<?xml version="1.0" encoding="UTF-8"?><svg id="Layer_1" xmlns="http://www.w3.org/2000/svg" viewBox="0 0 521 161.66"><defs><style>.cls-1{fill:#fff;}.cls-2{stroke-width:3.93px;}.cls-2,.cls-3,.cls-4,.cls-5,.cls-6,.cls-7{stroke:#0d192d;stroke-miterlimit:10;}.cls-2,.cls-6{fill:#1889ef;}.cls-3{stroke-width:1.97px;}.cls-3,.cls-5,.cls-8,.cls-7{fill:#fcd307;}.cls-4{fill:none;stroke-width:5.39px;}.cls-9{fill:#0d192d;}.cls-5{stroke-width:5.86px;}.cls-6,.cls-7{stroke-width:3.79px;}</style></defs><g><g><path class="cls-7" d="M75,81.6s-45.89,.48-48.27-26.17c-2.52-28.24,42.34-19.94,47.69,24.15,0,0,5.32-6.97,.58,2.02Z"/><path class="cls-7" d="M123.32,81.6s45.89,.48,48.27-26.17c2.52-28.24-42.34-19.94-47.69,24.15,0,0-5.32-6.97-.58,2.02Z"/><polygon class="cls-9" points="99.27 134.95 87.15 101.46 111.38 101.46 99.27 134.95"/><path class="cls-4" d="M99.72,43.11h-.9c-13.81,0-25.01,12.63-25.01,28.22l2.72,12.77,46.29-1.77,1.91-11c0-15.58-11.2-28.22-25.01-28.22Z"/><path class="cls-5" d="M125.12,74.44l-4.09,36.85c-.22,3.21-2.89,5.7-6.11,5.7h-31.31c-3.22,0-5.89-2.49-6.11-5.7l-4.09-36.85"/><ellipse class="cls-2" cx="99.27" cy="74.64" rx="26.47" ry="7.42"/><g><g><line class="cls-3" x1="86.14" y1="45.89" x2="75.64" y2="28.04"/><circle class="cls-9" cx="77.1" cy="30.64" r="3.94"/></g><g><line class="cls-3" x1="112.39" y1="45.89" x2="122.89" y2="28.04"/><circle class="cls-9" cx="121.43" cy="30.64" r="3.94"/></g></g><path class="cls-9" d="M76.23,89.25c0-.61-.3-1-.41-1.09,1.18,.99,9.27,2.84,23.45,2.84s22.26-1.85,23.45-2.84c-.11,.09-.41,.48-.41,1.09l2.93-.06c0,1.84,.79,3.12-1.22,3.97-1.73,.74-3.95,1.21-6.26,1.6-4.96,.83-11.53,1.29-18.49,1.29s-13.53-.46-18.49-1.29c-2-.33-3.93-.73-5.54-1.31"/><path class="cls-9" d="M75.88,100.9c0-.61-.3-1-.4-1.09,1.18,.99,9.23,2.84,23.33,2.84s22.16-1.85,23.33-2.84c-.11,.09-.4,.48-.4,1.09l2.46,.34c0,3.43-2.02,4.33-6.98,5.16-4.94,.83-11.48,1.29-18.41,1.29s-13.47-.46-18.41-1.29c-2.08-.35-4.1-.77-5.74-1.4"/><g><path class="cls-6" d="M72.02,73.56s-24.39,3.55-24.16,17.79c.24,15.09,23.73,6.1,24.16-17.79h0Z"/><path class="cls-6" d="M127.2,73.56s24.39,3.55,24.16,17.79c-.24,15.09-23.73,6.1-24.16-17.79h0Z"/></g></g><path class="cls-1" d="M67.05,78.33s-12.25,3.39-12.78,9.13"/><path class="cls-1" d="M133.48,78.33s12.25,3.39,12.78,9.13"/></g><g><g><path class="cls-8" d="M200.61,110.79c-6.19,0-11.3-2.16-15.19-6.43-3.74-4.07-5.63-9.25-5.63-15.38s1.85-11.06,5.49-15.24c3.87-4.45,8.86-6.71,14.83-6.71,6.39,0,11.51,2.04,15.23,6.05,.81,.9,1.21,1.83,1.21,2.79,0,.81-.21,1.56-2.16,4.98-1.81,3.17-2.36,3.84-2.81,4.24-.61,.57-1.41,.88-2.26,.88-1.12,0-1.8-.6-3.04-1.7-.78-.69-1.54-1.23-2.25-1.6-1-.5-2.02-.76-3.1-.76-1.78,0-3.09,.61-4.13,1.91-1.04,1.32-1.56,2.95-1.56,4.98s.51,3.74,1.57,5.08c1.04,1.33,2.35,1.95,4.12,1.95,1.13,0,2.17-.24,3.19-.73,.69-.34,1.43-.84,2.18-1.48,1.2-1.04,1.87-1.61,2.97-1.61,.91,0,1.78,.4,2.44,1.14,.3,.34,.79,.98,2.52,3.59,2.15,3.26,2.35,3.76,2.35,4.64s-.37,1.79-1.12,2.73c-3.75,4.47-8.74,6.71-14.84,6.71Z"/><path class="cls-9" d="M200.11,69.63c5.66,0,10.1,1.74,13.32,5.22,.35,.38,.52,.73,.52,1.02,0,.33-.61,1.56-1.82,3.7-1.21,2.13-1.98,3.33-2.29,3.59-.14,.14-.31,.21-.52,.21-.09,0-.52-.35-1.31-1.05-.94-.84-1.87-1.49-2.78-1.97-1.38-.7-2.81-1.05-4.3-1.05-2.57,0-4.62,.96-6.16,2.88-1.42,1.78-2.12,3.98-2.12,6.61s.71,4.89,2.12,6.69c1.54,1.96,3.59,2.94,6.16,2.94,1.52,0,2.96-.33,4.33-1,.89-.44,1.8-1.05,2.73-1.84,.77-.66,1.2-1,1.28-1,.17,0,.35,.1,.52,.29,.28,.31,1.04,1.41,2.28,3.28,1.28,1.94,1.91,3.01,1.91,3.2,0,.28-.18,.65-.55,1.1-3.22,3.83-7.49,5.74-12.82,5.74s-9.88-1.86-13.27-5.58c-3.3-3.6-4.96-8.14-4.96-13.63s1.62-9.82,4.85-13.53c3.37-3.88,7.66-5.82,12.87-5.82m0-5.19c-6.75,0-12.4,2.56-16.79,7.61-4.06,4.65-6.12,10.35-6.12,16.94s2.13,12.57,6.32,17.14c4.39,4.82,10.14,7.27,17.09,7.27s12.56-2.56,16.8-7.59l.03-.04,.03-.04c1.15-1.42,1.7-2.85,1.7-4.36,0-1.76-.67-2.85-2.77-6.05-1.92-2.89-2.39-3.48-2.74-3.87l-.02-.02-.02-.02c-1.17-1.28-2.72-1.99-4.37-1.99-2.06,0-3.33,1.1-4.68,2.26-.56,.48-1.12,.86-1.62,1.1-.64,.31-1.31,.47-2.04,.47-1.11,0-1.6-.35-2.08-.95-.68-.87-1.01-2.01-1.01-3.48,0-1.9,.57-2.84,1-3.38,.45-.56,.96-.92,2.09-.92,.66,0,1.29,.16,1.93,.48,.52,.27,1.09,.69,1.7,1.23,1.42,1.27,2.66,2.36,4.76,2.36,1.5,0,2.91-.55,4-1.54,.77-.68,1.49-1.66,3.33-4.88,2.01-3.53,2.5-4.76,2.5-6.27,0-1.12-.32-2.81-1.87-4.51-4.26-4.6-10.02-6.92-17.16-6.92h0Z"/></g><g><path class="cls-8" d="M221.48,110.08c-3.04,0-4.04-.14-4.62-.28-1.4-.32-2.42-1.43-2.62-2.89l-.02-.17v-1.3c0-1.56,.02-3.9,.05-7.02,.04-3.09,.05-5.4,.05-6.93,0-3.38,0-5.91,0-7.6,0-.9,0-1.71,.07-2.41h-.05c-.05-3.71-.26-6.95-.62-9.62-.06-.33-.08-.6-.08-.85,0-1.84,1.38-3.17,3.28-3.17h9.36c1.31,0,2.08,.63,2.43,1.01,.56,.62,.83,1.44,.77,2.31l-.02,.44c-.45,7.46-.68,14.15-.68,19.89,0,4.74,.02,8.42,.05,10.95,0,.41,.03,1.06,.07,1.97,.06,.94,.08,1.68,.08,2.21,0,1.65-1.14,2.95-2.84,3.22-.92,.16-2.41,.24-4.66,.24Z"/><path class="cls-9" d="M226.27,70.44c.44,0,.64,.18,.6,.55l-.03,.47c-.45,7.55-.68,14.23-.68,20.03,0,4.77,.02,8.43,.05,10.99,0,.4,.03,1.09,.08,2.07,.05,.89,.08,1.58,.08,2.07,0,.37-.22,.59-.66,.66-.79,.14-2.2,.21-4.25,.21s-3.43-.07-4.01-.21c-.38-.09-.6-.32-.66-.71v-1.13c0-1.56,.02-3.88,.05-6.99,.03-3.1,.05-5.42,.05-6.96,0-6.75,0-10.12,.02-10.12,0,0,0,.03,0,.08-.05-3.86-.27-7.19-.66-9.99-.04-.19-.05-.34-.05-.45,0-.38,.23-.58,.68-.58h9.36m0-5.19h-9.36c-3.29,0-5.88,2.53-5.88,5.77,0,.39,.04,.79,.11,1.24,.35,2.56,.55,5.67,.59,9.25,0,.15-.01,.3-.01,.46,0,.43,0,1.07,0,1.92,0,1.69,0,4.22,0,7.6,0,1.5-.02,3.83-.05,6.9-.04,3.09-.05,5.46-.05,7.05v1.48l.05,.35c.34,2.5,2.15,4.49,4.61,5.06,.88,.21,2.11,.35,5.2,.35,2.41,0,3.99-.09,5.12-.28,2.93-.49,4.98-2.86,4.98-5.78,0-.6-.03-1.38-.09-2.38-.06-1.13-.07-1.59-.07-1.77v-.07c-.03-2.51-.05-6.18-.05-10.91,0-5.67,.23-12.31,.67-19.72l.02-.44c.11-1.58-.4-3.08-1.44-4.23-1.09-1.2-2.63-1.86-4.34-1.86h0Z"/></g><g><path class="cls-8" d="M243.81,110.63c-4.83,0-8.82-1.47-11.86-4.36-3.14-2.95-4.74-6.91-4.74-11.76s1.41-8.58,4.19-11.63c2.91-3.21,6.79-4.83,11.51-4.83,4.08,0,7.58,1.5,10.42,4.47,2.81,2.94,4.23,6.48,4.23,10.53,0,3.65-1.9,4.93-3.17,5.39,.22,.37,.46,.79,.72,1.27,1.34,2.5,1.61,3.47,1.61,4.3,0,1.07-.58,1.83-1.1,2.38-2.63,2.82-6.61,4.26-11.83,4.26Z"/><path class="cls-9" d="M242.92,80.64c3.36,0,6.2,1.22,8.55,3.67,2.34,2.45,3.51,5.36,3.51,8.73,0,1.77-.57,2.77-1.7,3.02-.19,.04-2,.23-5.43,.58-2.06,.23-5.14,.5-9.23,.81,.24,1.14,.99,2,2.23,2.6,1.01,.49,2.17,.73,3.46,.73,1.56,0,3.12-.42,4.69-1.26,.66-.42,1.33-.84,1.99-1.26,.37,.17,.98,1.07,1.85,2.67,.86,1.61,1.3,2.63,1.3,3.07,0,.12-.13,.32-.39,.6-2.13,2.29-5.44,3.43-9.94,3.43-4.16,0-7.52-1.21-10.07-3.64-2.62-2.46-3.93-5.76-3.93-9.88s1.17-7.31,3.51-9.88c2.41-2.66,5.61-3.99,9.6-3.99m-4.01,11.82c1.29,0,3.3-.2,6.03-.6,.58-.09,.87-.23,.87-.42,0-1.08-.38-2.04-1.15-2.86-.77-.82-1.69-1.23-2.75-1.23s-2.01,.46-2.73,1.39c-.66,.86-1,1.86-1,3.01,0,.47,.24,.71,.73,.71m4.01-17.02c-5.41,0-10.06,1.97-13.44,5.69-3.22,3.54-4.86,8.04-4.86,13.38s1.87,10.19,5.57,13.67c3.51,3.35,8.11,5.05,13.62,5.05,5.97,0,10.59-1.71,13.74-5.09,.43-.46,1.79-1.9,1.79-4.14,0-1.29-.4-2.59-1.49-4.72,1.36-1.33,2.33-3.36,2.33-6.23,0-4.74-1.67-8.89-4.95-12.32-3.3-3.45-7.56-5.27-12.3-5.27h0Z"/></g><g><path class="cls-8" d="M268.41,110.48c-4.2,0-7.72-1.67-10.46-4.97-2.5-2.98-3.77-6.57-3.77-10.68,0-4.67,1.32-8.53,3.93-11.48,2.78-3.12,6.57-4.7,11.28-4.7,2.18,0,4.11,.49,5.76,1.46,.68-.78,1.5-.99,2.19-.99,.57,0,1.57,.07,4.21,.6,1.85,.37,3.16,.69,4.01,.97l.16,.06c1.49,.6,2.02,1.85,2.02,2.83,0,.25-.03,.5-.12,1-.53,3-.8,6.22-.8,9.59,0,1.29,.08,3.26,.23,5.85,.16,2.68,.24,4.75,.24,6.13,0,2.05-1.32,3.55-3.29,3.71-2.25,.16-4.82,.25-7.67,.25-.68,0-1.68-.21-2.4-1.25-1.73,1.07-3.58,1.61-5.51,1.61Zm2.31-18.69c-1.02,0-1.48,.35-1.77,.65-.29,.3-.66,.81-.66,1.9,0,.74,.23,1.31,.74,1.84,.49,.51,1,.73,1.7,.73,1,0,1.48-.36,1.78-.67,.32-.33,.68-.84,.68-1.9,0-.82-.21-1.4-.68-1.88-.3-.31-.77-.66-1.79-.66Z"/><path class="cls-9" d="M269.38,81.24c2.74,0,4.91,.96,6.5,2.88,.07,.09,.13,.13,.18,.13,.16,0,.34-.42,.54-1.27,.2-.85,.44-1.27,.72-1.27,.65,0,1.88,.18,3.7,.55,1.73,.35,2.97,.65,3.72,.89,.26,.1,.39,.24,.39,.42,0,.07-.03,.25-.08,.55-.56,3.16-.84,6.51-.84,10.04,0,1.35,.08,3.35,.24,6,.16,2.66,.24,4.65,.24,5.98,0,.7-.31,1.07-.92,1.13-2.17,.16-4.65,.24-7.45,.24-.33,0-.56-.5-.67-1.51-.11-1-.25-1.52-.41-1.53-.14,.07-.32,.22-.55,.45-1.96,1.98-4.06,2.96-6.29,2.96-3.41,0-6.23-1.35-8.47-4.04-2.11-2.52-3.17-5.52-3.17-9.02,0-4.04,1.09-7.29,3.28-9.75,2.27-2.55,5.38-3.83,9.33-3.83m1.34,18.25c1.49,0,2.7-.49,3.64-1.46,.94-.97,1.42-2.21,1.42-3.71s-.47-2.71-1.4-3.68c-.94-.97-2.15-1.46-3.66-1.46s-2.72,.48-3.64,1.44c-.93,.96-1.39,2.19-1.39,3.7,0,1.42,.49,2.63,1.47,3.64,.98,1.01,2.17,1.52,3.57,1.52m-1.34-23.44c-5.4,0-9.97,1.93-13.21,5.57-3.05,3.44-4.59,7.88-4.59,13.21,0,4.74,1.48,8.89,4.39,12.36,3.2,3.85,7.51,5.89,12.44,5.89,1.41,0,3.2-.24,5.16-1.1,1.19,.67,2.36,.74,2.76,.74,2.91,0,5.54-.08,7.82-.25h.07c3.28-.29,5.67-2.94,5.67-6.31,0-1.44-.08-3.5-.24-6.28-.15-2.55-.23-4.46-.23-5.7,0-3.21,.26-6.29,.76-9.14,.1-.57,.16-.99,.16-1.46,0-2.33-1.4-4.34-3.66-5.24l-.16-.06-.16-.05c-.96-.31-2.33-.64-4.3-1.04-2.27-.46-3.68-.65-4.73-.65-.47,0-1.42,.07-2.44,.57-1.67-.69-3.52-1.05-5.51-1.05h0Z"/></g><g><path class="cls-8" d="M310.93,110.03c-3.14,0-4.09-.1-4.6-.21-1.75-.35-2.87-1.77-2.87-3.62,0-.84,.03-2.11,.08-3.81,.05-1.62,.08-2.85,.08-3.67,0-.63-.02-1.57-.05-2.83-.04-1.31-.05-2.3-.05-2.97,0-.57-.09-.87-.14-.97h-.01s-.17-.02-.37-.02c0,0-.29,.03-.96,.47-.13,.09-.22,.16-.29,.22v13.73c0,1.88-1.24,3.31-3.08,3.55-.5,.06-1.42,.13-4.08,.13-2.92,0-3.9-.1-4.42-.19-1.77-.28-2.97-1.66-2.97-3.42,0-1.37,0-3.43,.03-6.18,.02-2.74,.03-4.79,.03-6.17,0-4.1-.31-7.32-.93-9.56l-.03-.12c-.08-.35-.12-.66-.12-.96,0-1.34,.78-2.49,2.03-2.99l.33-.13,.35-.04c1.05-.12,2.44-.3,4.26-.56,4.35-.85,4.78-.85,5.12-.85,1.5,0,2.24,.92,2.62,1.95,2.41-1.38,4.55-2.05,6.53-2.05,2.76,0,5.13,.69,7.06,2.05,2.36,1.71,3.59,4.18,3.59,7.16v8.36c0,1.13,0,2.82,.03,5.08,.02,2.27,.03,3.98,.03,5.12,0,1.77-1.19,3.13-2.96,3.38-.43,.06-1.29,.13-4.19,.13Z"/><path class="cls-9" d="M307.39,81.35c2.22,0,4.07,.52,5.56,1.57,1.66,1.21,2.49,2.88,2.49,5.03v8.36c0,1.14,0,2.84,.03,5.1,.02,2.26,.03,3.96,.03,5.1,0,.47-.24,.74-.73,.81-.49,.07-1.77,.1-3.83,.1-2.2,0-3.57-.05-4.09-.16-.52-.1-.79-.46-.79-1.07,0-.82,.03-2.06,.08-3.72,.05-1.66,.08-2.91,.08-3.75,0-.65-.02-1.61-.05-2.9-.04-1.28-.05-2.25-.05-2.9,0-2.39-1.04-3.59-3.12-3.59-.68,0-1.48,.3-2.39,.89-.98,.66-1.47,1.32-1.47,1.97v14.16c0,.58-.27,.9-.81,.97-.61,.07-1.86,.1-3.75,.1-2.04,0-3.37-.05-3.99-.16-.54-.09-.81-.38-.81-.87,0-1.36,0-3.42,.03-6.16,.02-2.74,.03-4.81,.03-6.19,0-4.35-.34-7.77-1.02-10.25-.04-.16-.05-.29-.05-.39,0-.28,.13-.47,.39-.58,1.1-.12,2.57-.31,4.4-.58,2.78-.54,4.34-.81,4.69-.81,.19,0,.34,.59,.45,1.77,.1,1.18,.25,1.77,.44,1.77h0c-.18,0,.76-.61,2.82-1.82,2.07-1.21,3.88-1.82,5.44-1.82m0-5.19c-1.82,0-3.71,.44-5.72,1.32-1.13-.99-2.46-1.22-3.43-1.22-.63,0-1.32,.06-5.56,.88-1.72,.25-3.11,.43-4.11,.54l-.7,.08-.65,.26c-2.22,.89-3.66,3.01-3.66,5.4,0,.49,.06,.99,.18,1.53l.03,.12,.03,.12c.38,1.39,.84,4.06,.84,8.88,0,1.37,0,3.43-.03,6.15-.02,2.76-.03,4.82-.03,6.19,0,3.03,2.12,5.49,5.15,5.99,.67,.11,1.78,.23,4.84,.23,2.77,0,3.77-.07,4.34-.14h.08c1.47-.2,2.73-.85,3.65-1.81,.83,.84,1.92,1.43,3.18,1.69,.78,.15,1.94,.26,5.11,.26s3.99-.08,4.56-.16c3.06-.44,5.2-2.88,5.2-5.95,0-1.14,0-2.86-.03-5.14-.02-2.25-.03-3.93-.03-5.06v-8.36c0-3.79-1.64-7.07-4.63-9.24l-.03-.02-.03-.02c-2.37-1.67-5.25-2.52-8.55-2.52h0Z"/></g><g><path class="cls-8" d="M325.06,110.03c-2.99,0-3.97-.1-4.49-.2-1.2-.22-2.05-.77-2.53-1.64-.35-.69-.38-1.3-.38-2.04,0-1.22,.03-3.05,.08-5.5,.05-2.39,.08-4.2,.08-5.41,0-4.83-.19-8.7-.55-11.51-.06-.46-.07-.75-.07-.89,0-1.07,.54-2.14,1.58-2.71-.97-1.2-1.47-2.69-1.47-4.37,0-2.15,.9-4.01,2.59-5.38,1.46-1.18,3.22-1.78,5.22-1.78s3.72,.61,5.19,1.83c1.66,1.36,2.54,3.21,2.54,5.33,0,1.85-.49,3.38-1.41,4.56,.83,.55,1.35,1.48,1.35,2.57,0,.12-.02,.4-.08,.84-.37,3.24-.55,7.13-.55,11.5,0,1.26,.03,3.15,.08,5.65,.05,2.55,.08,4.46,.08,5.73,0,1.65-1.14,2.95-2.84,3.22-.48,.08-1.45,.19-4.42,.19Z"/><path class="cls-9" d="M325.11,71.2c1.36,0,2.54,.41,3.54,1.23,1.07,.87,1.6,1.98,1.6,3.33,0,3.04-1.71,4.56-5.14,4.56-1.47,0-2.68-.38-3.64-1.15-1.05-.84-1.57-1.97-1.57-3.41s.54-2.48,1.63-3.36c1-.8,2.19-1.21,3.59-1.21m-4.61,11.12c.49,0,1.24,.05,2.24,.16,1,.1,1.76,.16,2.27,.16s1.27-.04,2.28-.13c1.01-.09,1.77-.13,2.28-.13,.42,0,.63,.17,.63,.52,0,.07-.02,.24-.05,.5-.38,3.41-.58,7.36-.58,11.85,0,1.28,.03,3.18,.08,5.7,.05,2.53,.08,4.42,.08,5.68,0,.37-.22,.59-.66,.66-.59,.1-1.93,.16-4.01,.16s-3.44-.05-4.04-.16c-.38-.07-.62-.18-.71-.34-.04-.07-.05-.33-.05-.79,0-1.21,.03-3.02,.08-5.44,.05-2.42,.08-4.24,.08-5.47,0-4.96-.19-8.91-.58-11.85-.04-.28-.05-.46-.05-.55,0-.35,.24-.52,.71-.52m4.61-16.31c-2.57,0-4.94,.82-6.85,2.36-2.29,1.85-3.56,4.48-3.56,7.4,0,1.41,.28,2.74,.8,3.94-.58,.89-.91,1.96-.91,3.14,0,.33,.03,.68,.09,1.2,.36,2.72,.54,6.48,.54,11.2,0,1.18-.03,2.99-.08,5.35-.05,2.44-.08,4.31-.08,5.55,0,.98,.05,2.02,.62,3.14l.04,.08,.05,.08c.6,1.09,1.84,2.49,4.32,2.93,.72,.13,1.8,.24,4.96,.24s4.18-.11,4.88-.23c2.94-.49,4.98-2.86,4.98-5.78,0-1.29-.03-3.24-.08-5.78-.05-2.49-.08-4.37-.08-5.59,0-4.26,.18-8.03,.54-11.22,.06-.43,.09-.77,.09-1.13,0-1.06-.28-2.04-.77-2.89,.54-1.25,.82-2.67,.82-4.25,0-2.89-1.24-5.49-3.5-7.35-1.91-1.57-4.28-2.41-6.83-2.41h0Z"/></g><g><path class="cls-8" d="M356.13,110.03c-3.14,0-4.09-.1-4.6-.21-1.75-.35-2.87-1.77-2.87-3.62,0-.84,.03-2.11,.08-3.81,.05-1.62,.08-2.85,.08-3.67,0-.63-.02-1.57-.05-2.83-.04-1.32-.05-2.31-.05-2.97,0-.57-.09-.87-.14-.97h-.01s-.17-.02-.37-.02c0,0-.29,.03-.96,.47-.13,.09-.22,.16-.29,.22v13.73c0,1.88-1.24,3.31-3.08,3.55-.5,.06-1.42,.13-4.08,.13-2.92,0-3.9-.1-4.42-.19-1.77-.28-2.97-1.66-2.97-3.42,0-1.37,0-3.43,.03-6.18,.02-2.74,.03-4.79,.03-6.17,0-4.1-.31-7.32-.93-9.56l-.03-.12c-.08-.35-.12-.66-.12-.96,0-1.35,.78-2.49,2.03-2.99l.33-.13,.35-.04c1.04-.12,2.47-.3,4.26-.56,4.35-.85,4.78-.85,5.12-.85,1.5,0,2.24,.92,2.62,1.95,2.41-1.38,4.55-2.05,6.53-2.05,2.76,0,5.13,.69,7.06,2.05,2.36,1.71,3.59,4.18,3.59,7.16v8.36c0,1.13,0,2.82,.03,5.08,.02,2.27,.03,3.98,.03,5.12,0,1.77-1.19,3.13-2.96,3.38-.43,.06-1.29,.13-4.19,.13Z"/><path class="cls-9" d="M352.59,81.35c2.22,0,4.07,.52,5.56,1.57,1.66,1.21,2.49,2.88,2.49,5.03v8.36c0,1.14,0,2.84,.03,5.1,.02,2.26,.03,3.96,.03,5.1,0,.47-.25,.74-.73,.81-.49,.07-1.77,.1-3.83,.1-2.2,0-3.57-.05-4.09-.16s-.79-.46-.79-1.07c0-.82,.03-2.06,.08-3.72,.05-1.66,.08-2.91,.08-3.75,0-.65-.02-1.61-.05-2.9-.04-1.28-.05-2.25-.05-2.9,0-2.39-1.04-3.59-3.12-3.59-.68,0-1.48,.3-2.39,.89-.98,.66-1.47,1.32-1.47,1.97v14.16c0,.58-.27,.9-.81,.97-.61,.07-1.86,.1-3.75,.1-2.05,0-3.37-.05-3.99-.16-.54-.09-.81-.38-.81-.87,0-1.36,0-3.42,.03-6.16,.02-2.74,.03-4.81,.03-6.19,0-4.35-.34-7.77-1.02-10.25-.04-.16-.05-.29-.05-.39,0-.28,.13-.47,.39-.58,1.1-.12,2.57-.31,4.4-.58,2.78-.54,4.34-.81,4.69-.81,.19,0,.34,.59,.45,1.77,.1,1.18,.25,1.77,.44,1.77h0c-.18,0,.76-.61,2.82-1.82,2.07-1.21,3.88-1.82,5.44-1.82m0-5.19c-1.82,0-3.71,.44-5.72,1.32-1.13-.99-2.46-1.22-3.43-1.22-.63,0-1.32,.06-5.56,.88-1.72,.25-3.11,.43-4.11,.54l-.7,.08-.65,.26c-2.22,.89-3.66,3.01-3.66,5.4,0,.5,.06,1,.18,1.53l.03,.12,.03,.12c.38,1.39,.84,4.06,.84,8.88,0,1.37,0,3.43-.03,6.15-.02,2.76-.03,4.82-.03,6.19,0,3.03,2.12,5.48,5.15,5.99,.67,.11,1.78,.23,4.84,.23,2.77,0,3.77-.07,4.34-.14h.08c1.47-.2,2.73-.85,3.65-1.81,.83,.84,1.92,1.43,3.19,1.69,.77,.15,1.94,.26,5.11,.26s3.99-.08,4.56-.16c3.06-.44,5.2-2.88,5.2-5.95,0-1.14,0-2.86-.03-5.14-.02-2.25-.03-3.93-.03-5.06v-8.36c0-3.79-1.65-7.07-4.63-9.24l-.03-.02-.03-.02c-2.37-1.67-5.25-2.52-8.55-2.52h0Z"/></g><g><path class="cls-8" d="M377.24,117.11c-1.65,0-3.77-.25-6.48-.75-2.43-.45-6.97-1.28-6.97-4.65,0-.4,0-.81,1.2-5.75,.2-.8,.55-1.4,.97-1.82-.35-.32-.69-.66-1.01-1.02-2.47-2.75-3.73-6.16-3.73-10.12s1.21-7.35,3.59-10.04c2.55-2.86,5.9-4.31,9.96-4.31,1.97,0,3.73,.44,5.23,1.29,.51-.61,1.21-.92,2.11-.92,.23,0,.55,0,4.81,.45,4.4,.46,4.48,.49,4.82,.6,1.39,.49,2.23,1.69,2.23,3.15,0,1.23-.04,3.02-.12,5.48-.08,2.35-.12,4.14-.12,5.32,0,.71,0,1.77,.03,3.19,.02,1.45,.03,2.53,.03,3.26,0,5.74-1.27,9.83-3.88,12.53-2.67,2.74-6.93,4.12-12.67,4.12Zm.42-26.03c-.53,0-.89,.16-1.25,.56-.42,.48-.61,.98-.61,1.62s.18,1.09,.6,1.53c.38,.4,.74,.57,1.26,.57s.9-.16,1.25-.56c.42-.47,.61-.96,.61-1.59s-.18-1.12-.6-1.57c-.35-.39-.72-.55-1.26-.55Z"/><path class="cls-9" d="M374.77,81.24c2.64,0,4.66,.94,6.06,2.83,.28,.38,.47,.58,.58,.58,.16,0,.24-.31,.24-.94,0-1.4,.16-2.1,.47-2.1,.28,0,1.79,.14,4.54,.43,2.74,.29,4.17,.45,4.27,.49,.3,.1,.45,.33,.45,.68,0,1.21-.04,3.01-.12,5.4-.08,2.39-.12,4.19-.12,5.4,0,.72,0,1.79,.03,3.22,.02,1.43,.03,2.51,.03,3.22,0,4.98-1.05,8.56-3.15,10.72-2.17,2.22-5.77,3.33-10.8,3.33-1.47,0-3.47-.24-6-.71-3.23-.59-4.85-1.29-4.85-2.1,0-.33,.38-2.04,1.13-5.14,.12-.49,.31-.73,.58-.73,.09,.02,.18,.05,.29,.1,2.69,1.33,5.18,1.99,7.47,1.99,1.26,0,2.51-.31,3.75-.94,1.5-.75,2.25-1.7,2.25-2.83v-1.76c-1.78,1.68-4.07,2.52-6.87,2.52-3.29,0-5.99-1.18-8.1-3.54-2.04-2.27-3.07-5.07-3.07-8.39s.98-6.11,2.94-8.31c2.04-2.29,4.72-3.43,8.02-3.43m2.88,16.7c1.28,0,2.34-.47,3.19-1.42,.85-.94,1.27-2.05,1.27-3.33s-.42-2.38-1.27-3.32c-.85-.93-1.91-1.4-3.19-1.4s-2.34,.48-3.19,1.43c-.85,.95-1.27,2.07-1.27,3.34s.43,2.38,1.3,3.3c.87,.93,1.92,1.39,3.16,1.39m-2.88-21.89c-4.76,0-8.88,1.79-11.9,5.17-2.83,3.18-4.26,7.14-4.26,11.77s1.38,8.34,4.1,11.52c-.09,.25-.18,.52-.25,.8-1.23,5.04-1.28,5.66-1.28,6.4,0,5.53,6.38,6.7,9.1,7.21,2.86,.53,5.14,.79,6.94,.79,6.46,0,11.35-1.65,14.52-4.89,3.12-3.22,4.62-7.91,4.62-14.35,0-.73,0-1.83-.03-3.29-.02-1.41-.03-2.46-.03-3.16,0-1.14,.04-2.9,.12-5.23,.08-2.48,.12-4.3,.12-5.57,0-2.55-1.53-4.74-3.91-5.58l-.05-.02-.05-.02c-.63-.21-.69-.23-5.36-.72-4.39-.46-4.72-.46-5.08-.46-.5,0-1.41,.07-2.37,.52-1.51-.59-3.17-.88-4.98-.88h0Z"/></g><g><path class="cls-8" d="M425.24,110.19c-.45,0-1.1,0-1.94-.03h-1.81c-8.82,0-11.07-.24-12.05-.45-1.7-.35-2.81-1.67-2.81-3.35,0-1.91,.11-4.82,.33-8.64,.21-3.73,.32-6.55,.32-8.37,0-1.99-.11-5.81-.31-11.33-.05-1.43-.15-3.57-.29-6.42l-.02-.31c-.08-1.5,.85-3.09,3.1-3.37,.5-.06,1.65-.12,6.39-.12,5.67,0,8.9,.02,9.88,.05,4.79,.18,8.31,.98,10.77,2.47,2.43,1.49,5.31,4.54,5.31,10.64,0,1.47-.42,2.99-1.26,4.52-.36,.64-.78,1.28-1.26,1.91,.86,.85,1.58,1.9,2.15,3.13,.78,1.7,1.18,3.53,1.18,5.44,0,3.89-1.25,7.18-3.73,9.79-2.82,2.99-7.38,4.45-13.94,4.45Zm-2.82-13.47c.39,.01,.88,.02,1.5,.02,2.23,0,2.93-.23,3.05-.27,.18-.07,.25-.1,.25-.62,0-.64-.14-.7-.39-.81-.16-.07-.93-.32-3.07-.32-.54,0-.99,0-1.35,.01,0,.24,0,.53,0,.85,0,.45,0,.82,.01,1.13Zm-.19-14.91c.32,0,.7,.01,1.17,.01,2.25,0,2.93-.44,3.04-.53,0-.01,0-.05,0-.1,0-.23-.04-.31-.04-.31-.02-.02-.14-.12-.42-.21-.23-.07-1.09-.27-3.34-.27-.13,0-.26,0-.38,0-.04,.46-.04,.7-.04,.84,0,.21,0,.4,0,.56Z"/><path class="cls-9" d="M416.14,70.39c5.58,0,8.84,.02,9.78,.05,4.3,.16,7.47,.86,9.52,2.1,2.71,1.66,4.06,4.47,4.06,8.42,0,1.03-.31,2.12-.94,3.28-.45,.82-1.05,1.64-1.78,2.46-.6,.67-.92,1-.97,1h0c0,.12,.23,.31,.68,.57,1.22,.7,2.18,1.81,2.88,3.33,.63,1.36,.94,2.81,.94,4.35,0,3.22-1.01,5.88-3.01,8-2.29,2.43-6.31,3.64-12.06,3.64-.44,0-1.07,0-1.89-.03h-1.86c-6.45,0-10.29-.13-11.51-.39-.51-.1-.76-.38-.76-.81,0-1.87,.11-4.7,.33-8.49,.22-3.79,.33-6.63,.33-8.52,0-2.03-.1-5.84-.31-11.43-.05-1.43-.15-3.58-.29-6.45l-.03-.37c-.02-.33,.26-.53,.83-.6,.57-.07,2.59-.1,6.07-.1m7.26,14.03c3.76,0,5.64-1.07,5.64-3.22,0-1.5-.75-2.5-2.25-2.99-.84-.26-2.22-.39-4.14-.39s-2.83,.14-2.83,.42c0,.33-.03,.83-.09,1.51-.06,.67-.09,1.18-.09,1.51,0,1.75,.15,2.73,.45,2.94,.19,.16,1.3,.24,3.33,.24m.52,14.92c1.89,0,3.22-.15,3.99-.45,1.28-.51,1.91-1.52,1.91-3.04s-.66-2.64-1.97-3.2c-.84-.35-2.2-.52-4.09-.52-2.25,0-3.48,.08-3.67,.25-.19,.17-.29,1.24-.29,3.21s.11,3.2,.34,3.42c.23,.22,1.49,.33,3.78,.33m-7.79-34.14c-5.11,0-6.14,.07-6.7,.14-3.72,.46-5.52,3.38-5.38,6.04v.09l.03,.31c.14,2.87,.23,4.94,.28,6.33,.21,5.51,.31,9.29,.31,11.24,0,1.78-.11,4.54-.32,8.22-.23,3.93-.34,6.8-.34,8.79,0,2.92,1.97,5.29,4.9,5.9,1.2,.26,3.58,.5,12.56,.5h1.81c.84,.02,1.49,.03,1.94,.03,7.31,0,12.49-1.73,15.84-5.28,2.93-3.09,4.43-6.98,4.43-11.56,0-2.29-.48-4.49-1.42-6.53-.37-.8-.78-1.53-1.26-2.2,.09-.16,.19-.32,.27-.47,1.06-1.95,1.59-3.89,1.59-5.79,0-7.3-3.56-11.01-6.54-12.84-2.86-1.74-6.79-2.67-12.04-2.86-.65-.02-2.39-.06-9.97-.06h0Z"/></g><g><path class="cls-8" d="M456.31,110.63c-4.83,0-8.82-1.47-11.86-4.36-3.14-2.95-4.74-6.91-4.74-11.76s1.41-8.58,4.19-11.63c2.91-3.21,6.79-4.83,11.51-4.83,4.08,0,7.58,1.5,10.42,4.47,2.81,2.94,4.23,6.48,4.23,10.53,0,3.65-1.9,4.93-3.17,5.39,.22,.37,.46,.79,.72,1.27,1.34,2.5,1.61,3.47,1.61,4.3,0,1.21-.8,2.06-1.1,2.38-2.62,2.82-6.61,4.25-11.83,4.25Z"/><path class="cls-9" d="M455.42,80.64c3.36,0,6.2,1.22,8.55,3.67,2.34,2.45,3.51,5.36,3.51,8.73,0,1.77-.57,2.77-1.7,3.02-.19,.04-2,.23-5.43,.58-2.06,.23-5.14,.5-9.23,.81,.24,1.14,.99,2,2.23,2.6,1.01,.49,2.17,.73,3.46,.73,1.56,0,3.12-.42,4.69-1.26,.66-.42,1.33-.84,1.99-1.26,.37,.17,.98,1.07,1.85,2.67,.87,1.61,1.3,2.63,1.3,3.07,0,.12-.13,.32-.39,.6-2.13,2.29-5.44,3.43-9.94,3.43-4.16,0-7.52-1.21-10.07-3.64-2.62-2.46-3.93-5.76-3.93-9.88s1.17-7.31,3.51-9.88c2.41-2.66,5.61-3.99,9.6-3.99m-4.01,11.82c1.29,0,3.3-.2,6.03-.6,.58-.09,.87-.23,.87-.42,0-1.08-.38-2.04-1.15-2.86-.77-.82-1.69-1.23-2.75-1.23s-2.01,.46-2.73,1.39c-.66,.86-1,1.86-1,3.01,0,.47,.24,.71,.73,.71m4.01-17.02c-5.42,0-10.06,1.97-13.44,5.69-3.22,3.54-4.86,8.04-4.86,13.38s1.87,10.19,5.57,13.67c3.51,3.35,8.11,5.05,13.62,5.05,5.97,0,10.59-1.71,13.74-5.09,.43-.46,1.79-1.9,1.79-4.14,0-1.3-.4-2.59-1.5-4.72,1.36-1.33,2.33-3.36,2.33-6.23,0-4.74-1.67-8.89-4.95-12.32-3.3-3.45-7.56-5.27-12.3-5.27h0Z"/></g><g><path class="cls-8" d="M483.21,110.63c-4.83,0-8.82-1.47-11.86-4.36-3.14-2.95-4.74-6.91-4.74-11.76s1.41-8.58,4.19-11.63c2.91-3.21,6.79-4.83,11.51-4.83,4.08,0,7.58,1.5,10.42,4.47,2.81,2.94,4.23,6.48,4.23,10.53,0,3.65-1.9,4.93-3.17,5.39,.22,.37,.46,.79,.72,1.27,1.34,2.49,1.61,3.49,1.61,4.3,0,1.21-.79,2.06-1.09,2.38-2.63,2.82-6.61,4.26-11.83,4.26Z"/><path class="cls-9" d="M482.32,80.64c3.36,0,6.2,1.22,8.55,3.67,2.34,2.45,3.51,5.36,3.51,8.73,0,1.77-.57,2.77-1.7,3.02-.19,.04-2,.23-5.43,.58-2.06,.23-5.14,.5-9.23,.81,.24,1.14,.99,2,2.23,2.6,1.01,.49,2.17,.73,3.46,.73,1.56,0,3.12-.42,4.69-1.26,.66-.42,1.33-.84,1.99-1.26,.37,.17,.98,1.07,1.85,2.67,.86,1.61,1.3,2.63,1.3,3.07,0,.12-.13,.32-.39,.6-2.13,2.29-5.44,3.43-9.94,3.43-4.16,0-7.52-1.21-10.07-3.64-2.62-2.46-3.93-5.76-3.93-9.88s1.17-7.31,3.51-9.88c2.41-2.66,5.61-3.99,9.6-3.99m-4.01,11.82c1.29,0,3.3-.2,6.03-.6,.58-.09,.87-.23,.87-.42,0-1.08-.38-2.04-1.15-2.86-.77-.82-1.69-1.23-2.75-1.23s-2.01,.46-2.73,1.39c-.66,.86-1,1.86-1,3.01,0,.47,.24,.71,.73,.71m4.01-17.02c-5.42,0-10.06,1.97-13.44,5.69-3.22,3.54-4.86,8.04-4.86,13.38s1.87,10.19,5.57,13.67c3.51,3.35,8.11,5.05,13.62,5.05,5.97,0,10.59-1.71,13.74-5.09,.43-.46,1.79-1.9,1.79-4.14,0-1.29-.4-2.59-1.49-4.72,1.36-1.33,2.33-3.36,2.33-6.23,0-4.74-1.67-8.89-4.95-12.32-3.3-3.45-7.56-5.27-12.3-5.27h0Z"/></g></g></svg>