<?xml version="1.0" encoding="UTF-8"?><svg id="Layer_1" xmlns="http://www.w3.org/2000/svg" viewBox="0 0 1080 1080"><defs><style>.cls-1{fill:#fff;}.cls-2,.cls-3{stroke-width:7.14px;}.cls-2,.cls-3,.cls-4,.cls-5,.cls-6,.cls-7{stroke:#0d192d;stroke-miterlimit:10;}.cls-2,.cls-6,.cls-8,.cls-7{fill:#fcd307;}.cls-3,.cls-4{fill:#1889ef;}.cls-4{stroke-width:7.4px;}.cls-5{fill:none;stroke-width:10.16px;}.cls-9{fill:#0d192d;}.cls-6{stroke-width:3.7px;}.cls-7{stroke-width:11.04px;}</style></defs><g><g><path class="cls-2" d="M190.59,541.45s-86.45,.89-90.92-49.29c-4.74-53.18,79.75-37.55,89.82,45.49,0,0,10.02-13.12,1.1,3.8Z"/><path class="cls-2" d="M281.6,541.45s86.45,.89,90.92-49.29c4.74-53.18-79.75-37.55-89.82,45.49,0,0-10.02-13.12-1.1,3.8Z"/><polygon class="cls-9" points="236.3 641.95 213.47 578.85 259.12 578.85 236.3 641.95"/><path class="cls-5" d="M237.15,468.95h-1.7c-26.02,0-47.11,23.8-47.11,53.15l5.13,24.04,87.19-3.33,3.6-20.72c0-29.35-21.09-53.15-47.11-53.15Z"/><path class="cls-7" d="M284.99,527.96l-7.7,69.42c-.42,6.04-5.45,10.73-11.51,10.73h-58.97c-6.06,0-11.09-4.69-11.51-10.73l-7.7-69.42"/><ellipse class="cls-4" cx="236.3" cy="528.34" rx="49.85" ry="13.98"/><g><g><line class="cls-6" x1="211.58" y1="474.18" x2="191.8" y2="440.56"/><circle class="cls-9" cx="194.55" cy="445.47" r="7.42"/></g><g><line class="cls-6" x1="261.02" y1="474.18" x2="280.8" y2="440.56"/><circle class="cls-9" cx="278.05" cy="445.47" r="7.42"/></g></g><path class="cls-9" d="M192.9,555.85c0-1.16-.57-1.89-.77-2.06,2.23,1.87,17.46,5.35,44.16,5.35s41.94-3.49,44.16-5.35c-.2,.17-.77,.9-.77,2.06l5.52-.11c0,3.47,1.48,5.87-2.3,7.48-3.25,1.39-7.44,2.28-11.79,3.01-9.35,1.56-21.71,2.42-34.83,2.42s-25.48-.86-34.83-2.42c-3.76-.63-7.4-1.38-10.43-2.47"/><path class="cls-9" d="M192.26,577.81c0-1.15-.56-1.88-.76-2.05,2.22,1.87,17.38,5.35,43.95,5.35s41.74-3.48,43.95-5.35c-.2,.17-.76,.9-.76,2.05l4.64,.64c0,6.46-3.8,8.16-13.15,9.73-9.31,1.56-21.62,2.42-34.68,2.42s-25.37-.86-34.68-2.42c-3.93-.66-7.73-1.45-10.82-2.63"/><g><path class="cls-3" d="M184.98,526.31s-45.94,6.7-45.51,33.52c.46,28.42,44.7,11.5,45.51-33.52h0Z"/><path class="cls-3" d="M288.92,526.31s45.94,6.7,45.51,33.52c-.46,28.42-44.7,11.5-45.51-33.52h0Z"/></g></g><path class="cls-1" d="M175.62,535.29s-23.08,6.38-24.06,17.19"/><path class="cls-1" d="M300.75,535.29s23.08,6.38,24.06,17.19"/></g><g><g><path class="cls-8" d="M427.19,596.43c-11.66,0-21.28-4.08-28.6-12.12-7.03-7.67-10.61-17.42-10.61-28.97s3.48-20.83,10.34-28.7c7.29-8.38,16.69-12.64,27.93-12.64,12.04,0,21.68,3.83,28.68,11.4,1.53,1.68,2.29,3.44,2.29,5.25,0,1.52-.4,2.94-4.07,9.38-3.4,5.96-4.44,7.24-5.3,7.98-1.16,1.06-2.66,1.65-4.26,1.65-2.11,0-3.39-1.14-5.72-3.21-1.47-1.3-2.89-2.32-4.24-3.02-1.88-.95-3.81-1.43-5.84-1.43-3.35,0-5.82,1.14-7.79,3.6-1.97,2.48-2.93,5.55-2.93,9.39s.97,7.04,2.95,9.57c1.96,2.5,4.43,3.66,7.76,3.66,2.13,0,4.1-.45,6-1.38,1.3-.64,2.68-1.58,4.11-2.79,2.26-1.95,3.52-3.04,5.59-3.04,1.71,0,3.34,.76,4.6,2.14,.57,.64,1.51,1.87,4.76,6.76,4.04,6.15,4.42,7.08,4.42,8.73s-.69,3.38-2.12,5.15c-7.06,8.41-16.45,12.63-27.95,12.63Z"/><path class="cls-9" d="M426.25,518.9c10.67,0,19.03,3.28,25.09,9.83,.66,.72,.99,1.37,.99,1.93,0,.63-1.14,2.95-3.43,6.96-2.29,4.02-3.73,6.27-4.32,6.77-.26,.26-.59,.4-.99,.4-.17,0-.99-.66-2.47-1.98-1.78-1.58-3.52-2.81-5.23-3.7-2.6-1.32-5.3-1.98-8.1-1.98-4.84,0-8.71,1.81-11.61,5.43-2.67,3.36-4,7.51-4,12.44s1.33,9.2,4,12.59c2.9,3.69,6.77,5.53,11.61,5.53,2.86,0,5.58-.62,8.15-1.88,1.68-.82,3.39-1.98,5.14-3.46,1.45-1.25,2.25-1.88,2.42-1.88,.33,0,.66,.18,.99,.54,.53,.59,1.96,2.65,4.3,6.17,2.4,3.65,3.61,5.66,3.61,6.02,0,.53-.35,1.22-1.04,2.07-6.06,7.21-14.11,10.82-24.15,10.82s-18.6-3.51-24.99-10.52c-6.22-6.78-9.33-15.34-9.33-25.68s3.04-18.5,9.14-25.48c6.35-7.31,14.44-10.96,24.25-10.96m0-9.78c-12.72,0-23.37,4.82-31.63,14.33-7.65,8.77-11.54,19.5-11.54,31.9s4.01,23.68,11.91,32.29c8.26,9.07,19.1,13.69,32.2,13.69s23.66-4.81,31.64-14.3l.06-.07,.06-.07c2.16-2.67,3.21-5.36,3.21-8.22,0-3.31-1.25-5.38-5.21-11.4-3.61-5.45-4.5-6.56-5.16-7.29l-.04-.05-.04-.04c-2.2-2.41-5.12-3.74-8.22-3.74-3.87,0-6.26,2.05-8.78,4.23-1.11,.94-2.15,1.65-3.08,2.1-1.21,.59-2.47,.88-3.84,.88-2.1,0-3.02-.66-3.91-1.79-1.29-1.64-1.91-3.78-1.91-6.55,0-3.58,1.07-5.35,1.88-6.36,.85-1.06,1.81-1.73,3.94-1.73,1.24,0,2.43,.29,3.63,.9,.98,.51,2.05,1.29,3.2,2.31,2.68,2.39,5,4.45,8.97,4.45,2.82,0,5.48-1.03,7.54-2.91,1.44-1.28,2.81-3.12,6.27-9.19,3.79-6.65,4.71-8.97,4.71-11.81,0-2.11-.61-5.29-3.53-8.5l-.03-.03-.03-.03c-7.96-8.61-18.81-12.97-32.27-12.97h0Z"/></g><g><path class="cls-8" d="M466.5,595.1c-5.74,0-7.62-.27-8.71-.53-2.64-.6-4.55-2.68-4.93-5.43l-.04-.33v-2.46c0-2.99,.03-7.44,.1-13.22,.07-5.83,.1-10.22,.1-13.06,0-6.36,0-11.13,.01-14.31,0-1.6,0-2.8,.01-3.6,0-.33,.02-.65,.04-.95h-.02c-.09-6.99-.49-13.09-1.18-18.12-.11-.61-.16-1.12-.16-1.6,0-3.46,2.6-5.98,6.18-5.98h17.63c2.46,0,3.92,1.19,4.56,1.9,1.06,1.17,1.58,2.71,1.45,4.36l-.05,.83c-.85,14.08-1.28,26.67-1.28,37.46,0,8.95,.03,15.88,.1,20.62,0,.53,.02,1.53,.14,3.71,.1,1.77,.16,3.14,.16,4.16,0,3.12-2.15,5.56-5.36,6.07-1.72,.31-4.53,.46-8.77,.46Z"/><path class="cls-9" d="M475.53,520.43c.82,0,1.2,.35,1.14,1.04l-.05,.89c-.86,14.22-1.28,26.8-1.28,37.73,0,8.99,.03,15.89,.1,20.69,0,.76,.05,2.06,.15,3.9,.1,1.68,.15,2.98,.15,3.9,0,.69-.41,1.1-1.23,1.23-1.48,.26-4.15,.4-8,.4s-6.47-.13-7.56-.4c-.72-.16-1.14-.61-1.23-1.33v-2.12c0-2.93,.03-7.32,.1-13.16,.07-5.84,.1-10.21,.1-13.11,0-12.71,.01-19.06,.04-19.06,0,0,0,.05,0,.15-.1-7.28-.51-13.55-1.23-18.81-.07-.36-.1-.64-.1-.84,0-.72,.43-1.09,1.28-1.09h17.63m0-9.78h-17.63c-6.21,0-11.07,4.77-11.07,10.87,0,.74,.07,1.49,.21,2.35,.64,4.7,1.01,10.41,1.11,16.96,0,.12,0,.23-.01,.35,0,.22,0,.54,0,.98,0,.8,0,2.01-.01,3.62,0,3.18-.01,7.95-.01,14.32,0,2.82-.03,7.2-.1,13-.07,5.81-.1,10.27-.1,13.27v2.79l.09,.66c.64,4.71,4.05,8.45,8.68,9.53,1.66,.39,3.98,.66,9.8,.66,4.54,0,7.52-.17,9.65-.53,5.52-.93,9.37-5.39,9.37-10.88,0-1.12-.05-2.58-.16-4.45-.12-2.16-.13-3.02-.13-3.35v-.14c-.07-4.7-.1-11.62-.1-20.56,0-10.69,.43-23.19,1.27-37.14l.05-.82c.21-2.98-.75-5.8-2.71-7.97-2.06-2.26-4.96-3.51-8.18-3.51h0Z"/></g><g><path class="cls-8" d="M508.57,596.14c-9.1,0-16.61-2.76-22.34-8.21-5.92-5.56-8.93-13.02-8.93-22.16s2.66-16.17,7.89-21.91c5.48-6.04,12.78-9.1,21.69-9.1,7.68,0,14.28,2.83,19.63,8.42,5.29,5.53,7.98,12.2,7.98,19.83,0,6.87-3.59,9.29-5.96,10.14,.42,.7,.87,1.5,1.35,2.4,2.53,4.71,3.03,6.53,3.03,8.09,0,2.28-1.5,3.88-2.06,4.48-4.95,5.31-12.45,8.02-22.28,8.02Z"/><path class="cls-9" d="M506.89,539.64c6.32,0,11.69,2.3,16.1,6.91,4.41,4.61,6.62,10.09,6.62,16.44,0,3.33-1.07,5.22-3.21,5.68-.36,.07-3.77,.43-10.22,1.09-3.89,.43-9.68,.94-17.38,1.53,.46,2.14,1.86,3.77,4.2,4.89,1.91,.92,4.08,1.38,6.52,1.38,2.93,0,5.88-.79,8.84-2.37,1.25-.79,2.5-1.58,3.75-2.37,.69,.33,1.85,2.01,3.48,5.04,1.63,3.03,2.44,4.96,2.44,5.78,0,.23-.25,.61-.74,1.14-4.02,4.31-10.26,6.47-18.72,6.47-7.84,0-14.16-2.29-18.96-6.86-4.94-4.64-7.41-10.85-7.41-18.62s2.21-13.78,6.62-18.62c4.54-5,10.57-7.51,18.07-7.51m-7.56,22.27c2.44,0,6.22-.38,11.36-1.14,1.09-.16,1.63-.43,1.63-.79,0-2.04-.72-3.84-2.17-5.38-1.45-1.55-3.18-2.32-5.19-2.32s-3.79,.87-5.14,2.62c-1.25,1.61-1.88,3.51-1.88,5.68,0,.89,.46,1.33,1.38,1.33m7.56-32.05c-10.2,0-18.95,3.7-25.32,10.71-6.07,6.66-9.16,15.14-9.16,25.19s3.52,19.19,10.47,25.73c6.66,6.33,15.3,9.54,25.68,9.54,11.25,0,19.95-3.22,25.88-9.58,.81-.87,3.36-3.58,3.36-7.8,0-2.44-.75-4.87-2.82-8.9,2.56-2.5,4.4-6.32,4.4-11.74,0-8.93-3.14-16.74-9.33-23.21-6.22-6.5-14.23-9.93-23.17-9.93h0Z"/></g><g><path class="cls-8" d="M554.89,595.84c-7.91,0-14.55-3.15-19.71-9.37-4.71-5.6-7.11-12.38-7.11-20.11,0-8.8,2.49-16.08,7.41-21.62,5.23-5.88,12.38-8.86,21.24-8.86,4.11,0,7.74,.92,10.84,2.75,1.28-1.46,2.82-1.86,4.12-1.86,1.08,0,2.95,.13,7.93,1.13,3.48,.7,5.95,1.3,7.56,1.82l.15,.05,.15,.06c2.82,1.12,3.82,3.49,3.82,5.33,0,.47-.06,.95-.22,1.89-1,5.65-1.51,11.73-1.51,18.07,0,2.43,.15,6.13,.44,11.02,.3,5.16,.45,8.93,.45,11.55,0,3.87-2.49,6.68-6.2,7-4.24,.31-9.07,.46-14.44,.46-1.05,0-3.05-.3-4.51-2.36-3.27,2.03-6.75,3.05-10.41,3.05Zm4.35-35.21c-1.92,0-2.8,.65-3.34,1.22-.54,.56-1.25,1.53-1.25,3.57,0,1.4,.43,2.47,1.39,3.47,.93,.96,1.89,1.37,3.2,1.37,1.89,0,2.79-.67,3.36-1.26,.59-.61,1.28-1.57,1.28-3.58,0-1.54-.39-2.63-1.27-3.54-.56-.58-1.44-1.24-3.37-1.24Z"/><path class="cls-9" d="M556.72,540.78c5.17,0,9.25,1.81,12.25,5.43,.13,.17,.25,.25,.35,.25,.3,0,.63-.8,1.01-2.4,.38-1.6,.83-2.39,1.36-2.39,1.22,0,3.54,.35,6.96,1.04,3.26,.66,5.6,1.22,7.01,1.68,.49,.2,.74,.46,.74,.79,0,.13-.05,.48-.15,1.04-1.05,5.96-1.58,12.26-1.58,18.91,0,2.54,.15,6.31,.44,11.31,.3,5,.44,8.76,.44,11.26,0,1.32-.58,2.02-1.73,2.12-4.08,.3-8.76,.44-14.02,.44-.63,0-1.05-.95-1.26-2.84-.21-1.89-.47-2.86-.77-2.89-.26,.13-.61,.41-1.04,.84-3.69,3.72-7.64,5.58-11.85,5.58-6.42,0-11.74-2.53-15.95-7.61-3.98-4.74-5.98-10.4-5.98-16.99,0-7.61,2.06-13.73,6.17-18.37,4.28-4.81,10.14-7.21,17.58-7.21m2.52,34.37c2.8,0,5.09-.91,6.86-2.74,1.78-1.83,2.67-4.16,2.67-6.99s-.88-5.11-2.64-6.94c-1.76-1.83-4.06-2.74-6.89-2.74s-5.12,.91-6.86,2.72c-1.75,1.81-2.62,4.13-2.62,6.96,0,2.67,.92,4.96,2.77,6.86,1.84,1.91,4.08,2.86,6.72,2.86m-2.52-44.15c-10.17,0-18.78,3.63-24.89,10.49-5.74,6.48-8.65,14.84-8.65,24.88,0,8.91,2.78,16.74,8.25,23.26,6.05,7.27,14.16,11.11,23.46,11.11,2.65,0,6.03-.46,9.72-2.08,2.24,1.27,4.44,1.39,5.2,1.39,5.48,0,10.44-.16,14.73-.47h.13c6.19-.54,10.67-5.53,10.67-11.88,0-2.72-.15-6.59-.46-11.84-.28-4.79-.43-8.4-.43-10.73,0-6.05,.48-11.84,1.43-17.21,.19-1.07,.3-1.86,.3-2.74,0-4.39-2.64-8.17-6.89-9.87l-.3-.12-.31-.1c-1.81-.59-4.39-1.21-8.1-1.96-4.27-.86-6.93-1.23-8.9-1.23-.88,0-2.67,.14-4.59,1.08-3.14-1.3-6.62-1.97-10.37-1.97h0Zm3.95,11.34h0Z"/></g><g><path class="cls-8" d="M634.99,595c-5.91,0-7.69-.2-8.66-.39-3.29-.66-5.42-3.33-5.42-6.82,0-1.6,.05-3.95,.15-7.17,.1-3.05,.14-5.38,.14-6.91,0-1.16-.03-2.95-.1-5.33-.07-2.43-.1-4.31-.1-5.59,0-1.01-.15-1.58-.24-1.8-.11-.03-.35-.07-.74-.07,.01,0-.55,.05-1.82,.88-.24,.17-.42,.31-.55,.42v25.86c0,3.55-2.33,6.23-5.8,6.68-.93,.11-2.66,.24-7.68,.24-5.49,0-7.33-.2-8.33-.37-3.33-.53-5.6-3.13-5.6-6.45,0-2.57,.02-6.45,.05-11.63,.03-5.16,.05-9.03,.05-11.62,0-7.72-.59-13.78-1.75-18.01l-.06-.22c-.15-.65-.22-1.24-.22-1.81,0-2.53,1.46-4.69,3.82-5.63l.62-.25,.66-.07c1.98-.22,4.6-.56,8.02-1.05,8.2-1.6,9.01-1.6,9.65-1.6,2.83,0,4.22,1.74,4.93,3.67,4.54-2.6,8.57-3.86,12.31-3.86,5.19,0,9.66,1.3,13.29,3.86,4.44,3.23,6.76,7.87,6.76,13.48v15.75c0,2.13,.02,5.32,.05,9.57,.03,4.28,.05,7.5,.05,9.64,0,3.34-2.25,5.9-5.59,6.37-.85,.12-2.46,.25-7.9,.25Z"/><path class="cls-9" d="M628.33,540.97c4.18,0,7.67,.99,10.47,2.96,3.13,2.27,4.69,5.43,4.69,9.48v15.75c0,2.14,.02,5.34,.05,9.61,.03,4.26,.05,7.47,.05,9.61,0,.89-.46,1.4-1.38,1.53-.92,.13-3.33,.2-7.21,.2-4.15,0-6.72-.1-7.7-.3-.99-.2-1.48-.87-1.48-2.02,0-1.55,.05-3.88,.15-7.01,.1-3.13,.15-5.48,.15-7.06,0-1.22-.03-3.04-.1-5.46-.07-2.42-.1-4.24-.1-5.46,0-4.51-1.96-6.77-5.88-6.77-1.28,0-2.78,.56-4.49,1.68-1.84,1.25-2.77,2.49-2.77,3.7v26.67c0,1.09-.51,1.7-1.53,1.83-1.15,.13-3.51,.2-7.06,.2-3.85,0-6.35-.1-7.51-.3-1.02-.16-1.53-.71-1.53-1.63,0-2.57,.02-6.44,.05-11.61,.03-5.17,.05-9.05,.05-11.65,0-8.2-.64-14.63-1.93-19.31-.07-.3-.1-.54-.1-.74,0-.53,.25-.89,.74-1.09,2.07-.23,4.84-.59,8.3-1.09,5.23-1.02,8.18-1.53,8.84-1.53,.36,0,.64,1.11,.84,3.33,.2,2.22,.48,3.33,.84,3.33h0c-.35,0,1.42-1.15,5.31-3.43,3.9-2.29,7.32-3.43,10.25-3.43m0-9.78c-3.45,0-7.03,.83-10.83,2.52-1.98-1.65-4.37-2.32-6.41-2.32-1.19,0-2.49,.11-10.47,1.66-3.25,.46-5.85,.8-7.75,1.01l-1.32,.15-1.23,.49c-4.19,1.67-6.89,5.67-6.89,10.17,0,.93,.11,1.87,.34,2.88l.05,.23,.06,.22c.72,2.62,1.58,7.65,1.58,16.72,0,2.52-.02,6.31-.05,11.59-.03,5.13-.05,9.06-.05,11.67,0,5.7,3.98,10.33,9.69,11.28,1.26,.21,3.35,.43,9.13,.43,5.21,0,7.1-.14,8.17-.26h.07l.07-.02c2.76-.36,5.14-1.58,6.88-3.39,1.57,1.58,3.62,2.7,6,3.18,1.46,.29,3.65,.49,9.62,.49s7.51-.14,8.59-.29c5.77-.82,9.79-5.43,9.79-11.22,0-2.11-.02-5.28-.05-9.68-.03-4.19-.05-7.39-.05-9.53v-15.75c0-7.13-3.1-13.31-8.73-17.4l-.05-.04-.05-.04c-4.47-3.15-9.89-4.75-16.11-4.75h0Z"/></g><g><path class="cls-8" d="M661.61,595c-5.63,0-7.47-.2-8.45-.37-2.25-.41-3.84-1.44-4.76-3.08l-.1-.18c-.58-1.14-.62-2.3-.62-3.68,0-2.31,.05-5.7,.15-10.35,.1-4.52,.15-7.95,.15-10.19,0-9.09-.35-16.38-1.04-21.69-.1-.79-.14-1.27-.14-1.67,0-2.01,1.01-4.03,2.97-5.1-1.82-2.26-2.77-5.06-2.77-8.23,0-4.05,1.69-7.55,4.88-10.13,2.76-2.23,6.07-3.36,9.84-3.36s7.01,1.16,9.78,3.44c3.13,2.57,4.79,6.05,4.79,10.05,0,3.48-.92,6.38-2.65,8.58,1.56,1.04,2.55,2.79,2.55,4.85,0,.38-.04,.79-.14,1.54-.7,6.2-1.05,13.51-1.05,21.72,0,2.34,.05,5.92,.15,10.64,.1,4.75,.15,8.38,.15,10.79,0,3.12-2.15,5.55-5.36,6.07-.9,.16-2.74,.36-8.32,.36Z"/><path class="cls-9" d="M661.71,521.86c2.57,0,4.79,.77,6.67,2.32,2.01,1.65,3.01,3.74,3.01,6.27,0,5.73-3.23,8.59-9.68,8.59-2.77,0-5.05-.72-6.86-2.17-1.98-1.58-2.96-3.72-2.96-6.42s1.02-4.67,3.06-6.32c1.88-1.51,4.13-2.27,6.77-2.27m-8.69,20.94c.92,0,2.33,.1,4.22,.3,1.89,.2,3.32,.3,4.27,.3s2.39-.08,4.3-.25c1.91-.16,3.34-.25,4.3-.25,.79,0,1.19,.33,1.19,.99,0,.13-.03,.44-.1,.94-.72,6.42-1.09,13.86-1.09,22.32,0,2.4,.05,5.98,.15,10.74,.1,4.76,.15,8.32,.15,10.69,0,.69-.41,1.1-1.23,1.23-1.12,.2-3.64,.3-7.56,.3s-6.49-.1-7.6-.3c-.72-.13-1.17-.35-1.33-.64-.07-.13-.1-.63-.1-1.48,0-2.27,.05-5.69,.15-10.25,.1-4.56,.15-7.99,.15-10.3,0-9.35-.36-16.79-1.09-22.32-.07-.53-.1-.87-.1-1.04,0-.66,.44-.99,1.33-.99m8.69-30.72c-4.84,0-9.31,1.54-12.91,4.44-4.32,3.49-6.7,8.43-6.7,13.94,0,2.65,.52,5.16,1.51,7.43-1.09,1.67-1.71,3.69-1.71,5.91,0,.62,.05,1.27,.18,2.26,.67,5.14,1.01,12.22,1.01,21.1,0,2.22-.05,5.61-.15,10.08-.1,4.61-.15,8.12-.15,10.46,0,1.83,.09,3.79,1.15,5.89l.09,.17,.09,.17c1.14,2.05,3.48,4.68,8.14,5.52,1.35,.24,3.39,.45,9.35,.45s7.88-.21,9.19-.43c5.53-.93,9.38-5.39,9.38-10.88,0-2.46-.05-6.02-.15-10.89-.1-4.67-.15-8.22-.15-10.54,0-8.02,.34-15.13,1.01-21.13,.11-.81,.17-1.45,.17-2.13,0-2-.53-3.85-1.45-5.44,1.01-2.35,1.55-5.03,1.55-8,0-5.44-2.34-10.35-6.59-13.84-3.6-2.96-8.05-4.54-12.87-4.54h0Z"/></g><g><path class="cls-8" d="M720.13,595c-5.9,0-7.69-.2-8.66-.39-3.29-.66-5.42-3.33-5.42-6.82,0-1.6,.05-3.95,.15-7.17,.1-3.07,.15-5.4,.15-6.91,0-1.17-.03-2.96-.1-5.32-.07-2.43-.1-4.31-.1-5.59,0-1.01-.15-1.58-.24-1.8-.11-.03-.35-.07-.74-.07,.01,0-.55,.05-1.82,.88-.24,.17-.42,.31-.55,.42v25.86c0,3.55-2.33,6.23-5.8,6.68-.93,.11-2.66,.24-7.68,.24-5.49,0-7.33-.2-8.33-.37-3.33-.53-5.6-3.13-5.6-6.45,0-2.57,.02-6.45,.05-11.64,.03-5.15,.05-9.03,.05-11.62,0-7.72-.59-13.78-1.75-18.01l-.06-.22c-.15-.65-.22-1.24-.22-1.81,0-2.53,1.46-4.69,3.82-5.63l.62-.25,.66-.07c1.98-.22,4.6-.56,8.02-1.05,8.2-1.6,9.01-1.6,9.65-1.6,2.83,0,4.22,1.74,4.93,3.67,4.54-2.6,8.57-3.86,12.31-3.86,5.19,0,9.66,1.3,13.29,3.86,4.44,3.23,6.76,7.87,6.76,13.48v15.75c0,2.13,.02,5.32,.05,9.57,.03,4.28,.05,7.5,.05,9.64,0,3.34-2.25,5.9-5.59,6.37-.85,.12-2.46,.25-7.9,.25Z"/><path class="cls-9" d="M713.46,540.97c4.18,0,7.67,.99,10.47,2.96,3.13,2.27,4.69,5.43,4.69,9.48v15.75c0,2.14,.02,5.34,.05,9.61,.03,4.26,.05,7.47,.05,9.61,0,.89-.46,1.4-1.38,1.53-.92,.13-3.33,.2-7.21,.2-4.15,0-6.72-.1-7.7-.3-.99-.2-1.48-.87-1.48-2.02,0-1.55,.05-3.88,.15-7.01,.1-3.13,.15-5.48,.15-7.06,0-1.22-.03-3.04-.1-5.46-.07-2.42-.1-4.24-.1-5.46,0-4.51-1.96-6.77-5.88-6.77-1.28,0-2.78,.56-4.49,1.68-1.84,1.25-2.77,2.49-2.77,3.7v26.67c0,1.09-.51,1.7-1.53,1.83-1.15,.13-3.51,.2-7.06,.2-3.85,0-6.35-.1-7.51-.3-1.02-.16-1.53-.71-1.53-1.63,0-2.57,.02-6.44,.05-11.61,.03-5.17,.05-9.05,.05-11.65,0-8.2-.64-14.63-1.93-19.31-.07-.3-.1-.54-.1-.74,0-.53,.25-.89,.74-1.09,2.07-.23,4.84-.59,8.3-1.09,5.23-1.02,8.18-1.53,8.84-1.53,.36,0,.64,1.11,.84,3.33,.2,2.22,.48,3.33,.84,3.33h0c-.35,0,1.42-1.15,5.31-3.43,3.9-2.29,7.32-3.43,10.25-3.43m0-9.78c-3.45,0-7.03,.83-10.83,2.52-1.98-1.65-4.37-2.32-6.41-2.32-1.19,0-2.49,.11-10.47,1.66-3.25,.46-5.85,.8-7.75,1.01l-1.32,.15-1.23,.49c-4.19,1.67-6.89,5.67-6.89,10.17,0,.93,.11,1.87,.34,2.88l.05,.23,.06,.22c.72,2.62,1.58,7.65,1.58,16.72,0,2.52-.02,6.31-.05,11.59-.03,5.13-.05,9.05-.05,11.67,0,5.7,3.98,10.33,9.7,11.28,1.26,.21,3.35,.43,9.12,.43,5.21,0,7.1-.14,8.17-.26h.07l.07-.02c2.76-.36,5.14-1.58,6.88-3.39,1.57,1.58,3.62,2.7,6,3.18,1.46,.29,3.65,.49,9.62,.49s7.51-.14,8.59-.29c5.77-.82,9.79-5.43,9.79-11.22,0-2.11-.02-5.28-.05-9.68-.03-4.19-.05-7.39-.05-9.53v-15.75c0-7.13-3.1-13.31-8.72-17.4l-.05-.04-.05-.04c-4.47-3.15-9.89-4.75-16.11-4.75h0Z"/></g><g><path class="cls-8" d="M759.88,608.34c-3.1,0-7.09-.46-12.21-1.42-4.58-.84-13.13-2.42-13.13-8.76,0-.75,0-1.52,2.26-10.83,.38-1.51,1.03-2.63,1.83-3.44-.66-.6-1.29-1.24-1.9-1.92-4.66-5.18-7.03-11.6-7.03-19.07s2.28-13.85,6.77-18.9c4.81-5.38,11.12-8.11,18.77-8.11,3.71,0,7.03,.83,9.86,2.43,.95-1.15,2.28-1.73,3.97-1.73,.41,0,1.04,0,9.05,.84,8.28,.87,8.45,.93,9.08,1.14,2.62,.93,4.19,3.19,4.19,5.93,0,2.31-.08,5.79-.23,10.33-.15,4.45-.22,7.81-.22,10.01,0,1.34,.02,3.34,.05,6.01,.03,2.73,.05,4.77,.05,6.13,0,10.8-2.39,18.52-7.3,23.6-5.04,5.16-13.06,7.76-23.86,7.76Zm.79-49.04c-1,0-1.68,.3-2.35,1.05-.8,.9-1.16,1.84-1.16,3.04s.35,2.05,1.13,2.88c.71,.76,1.39,1.06,2.38,1.06s1.69-.3,2.36-1.04c.79-.88,1.14-1.81,1.14-3s-.35-2.1-1.13-2.96c-.67-.74-1.36-1.04-2.38-1.04Z"/><path class="cls-9" d="M755.24,540.78c4.97,0,8.77,1.78,11.41,5.33,.53,.72,.89,1.09,1.09,1.09,.3,0,.44-.59,.44-1.78,0-2.63,.3-3.95,.89-3.95,.53,0,3.37,.27,8.54,.81,5.17,.54,7.85,.85,8.05,.91,.56,.2,.84,.63,.84,1.28,0,2.27-.07,5.66-.22,10.17-.15,4.51-.22,7.9-.22,10.17,0,1.35,.02,3.38,.05,6.07,.03,2.7,.05,4.72,.05,6.07,0,9.38-1.98,16.12-5.93,20.2-4.08,4.18-10.86,6.27-20.35,6.27-2.77,0-6.54-.44-11.31-1.33-6.09-1.12-9.14-2.44-9.14-3.95,0-.63,.71-3.85,2.12-9.68,.23-.92,.59-1.38,1.09-1.38,.16,.03,.35,.1,.54,.2,5.07,2.5,9.76,3.75,14.07,3.75,2.37,0,4.72-.59,7.06-1.78,2.83-1.42,4.25-3.19,4.25-5.33v-3.31c-3.36,3.16-7.67,4.74-12.94,4.74-6.19,0-11.28-2.22-15.26-6.67-3.85-4.28-5.78-9.55-5.78-15.8s1.84-11.51,5.53-15.65c3.85-4.31,8.89-6.47,15.11-6.47m5.43,31.46c2.4,0,4.4-.89,6-2.67,1.6-1.78,2.4-3.87,2.4-6.27s-.8-4.49-2.4-6.25c-1.6-1.76-3.6-2.64-6-2.64s-4.4,.9-6,2.69c-1.6,1.79-2.4,3.89-2.4,6.3s.81,4.48,2.44,6.22c1.63,1.75,3.61,2.62,5.95,2.62m-5.43-41.24c-8.97,0-16.72,3.37-22.41,9.74-5.33,5.99-8.02,13.44-8.02,22.17s2.6,15.71,7.72,21.7c-.18,.48-.33,.98-.47,1.51v.06c-2.31,9.44-2.41,10.6-2.41,11.99,0,2.27,.8,7.91,8.18,11.1,2.25,.98,5.1,1.76,8.97,2.47,5.39,1,9.68,1.49,13.08,1.49,12.17,0,21.37-3.1,27.34-9.22,5.87-6.07,8.71-14.9,8.71-27.03,0-1.36-.02-3.38-.05-6.19-.03-2.63-.05-4.63-.05-5.96,0-2.15,.07-5.47,.22-9.85,.15-4.66,.23-8.09,.23-10.49,0-4.81-2.89-8.93-7.37-10.51l-.09-.03-.09-.03c-1.18-.39-1.3-.43-10.11-1.36-8.27-.87-8.9-.87-9.57-.87-1.44,0-2.96,.33-4.38,1.01-2.86-1.12-6.02-1.7-9.45-1.7h0Z"/></g><g><path class="cls-8" d="M850.3,595.3c-.84,0-2.04-.02-3.61-.05h-3.46c-16.61,0-20.86-.45-22.7-.85-3.2-.66-5.3-3.14-5.3-6.31,0-3.61,.21-9.09,.63-16.28,.4-7.02,.61-12.33,.61-15.77,0-3.74-.2-10.92-.59-21.35-.1-2.71-.28-6.76-.54-12.04l-.04-.64c-.15-2.82,1.6-5.81,5.84-6.34,.94-.12,3.11-.23,12.03-.23,10.65,0,16.74,.03,18.6,.1,9.03,.33,15.66,1.85,20.28,4.66,4.58,2.81,10.01,8.55,10.01,20.03,0,2.76-.8,5.63-2.38,8.52-.67,1.21-1.46,2.41-2.37,3.59,1.62,1.6,2.98,3.57,4.05,5.9,1.47,3.2,2.22,6.64,2.22,10.24,0,7.33-2.36,13.53-7.02,18.43-5.31,5.64-13.91,8.39-26.26,8.39Zm-5.3-25.38c.73,.02,1.66,.04,2.83,.04,4.21,0,5.52-.42,5.74-.51,.35-.14,.48-.19,.48-1.17,0-1.21-.26-1.32-.73-1.53-.31-.13-1.74-.6-5.78-.6-1.03,0-1.87,0-2.55,.02,0,.46-.01,.99-.01,1.6,0,.85,.01,1.55,.03,2.13Zm-.36-28.08c.6,.01,1.33,.02,2.21,.02,4.2,0,5.48-.82,5.71-.99,0-.04,.01-.1,.01-.19,0-.37-.06-.55-.08-.59-.04-.04-.26-.22-.79-.39-.44-.14-2.06-.5-6.29-.5-.25,0-.49,0-.71,0-.07,.9-.08,1.36-.08,1.57,0,.4,0,.75,.01,1.06Z"/><path class="cls-9" d="M833.17,520.33c10.5,0,16.64,.03,18.42,.1,8.1,.3,14.07,1.61,17.93,3.95,5.1,3.13,7.65,8.41,7.65,15.85,0,1.94-.59,4-1.78,6.17-.86,1.55-1.98,3.09-3.36,4.64-1.14,1.26-1.74,1.89-1.82,1.89,0,0,0,0,0-.01,0,.23,.43,.59,1.28,1.09,2.3,1.32,4.11,3.41,5.43,6.27,1.19,2.57,1.78,5.3,1.78,8.2,0,6.06-1.89,11.08-5.68,15.06-4.31,4.58-11.89,6.86-22.72,6.86-.82,0-2.01-.02-3.56-.05h-3.51c-12.15,0-19.38-.25-21.68-.74-.96-.2-1.43-.71-1.43-1.53,0-3.52,.21-8.86,.62-16,.41-7.14,.62-12.49,.62-16.05,0-3.82-.2-11-.59-21.53-.1-2.7-.28-6.75-.54-12.15l-.05-.69c-.03-.63,.49-1,1.56-1.14,1.07-.13,4.88-.2,11.43-.2m13.68,26.42c7.08,0,10.62-2.02,10.62-6.07,0-2.83-1.42-4.71-4.25-5.63-1.58-.49-4.18-.74-7.8-.74s-5.33,.26-5.33,.79c0,.63-.06,1.57-.17,2.84-.12,1.27-.17,2.21-.17,2.84,0,3.29,.28,5.14,.84,5.53,.36,.3,2.45,.44,6.27,.44m.99,28.1c3.56,0,6.06-.28,7.51-.84,2.4-.95,3.6-2.86,3.6-5.73s-1.23-4.97-3.7-6.02c-1.58-.66-4.15-.99-7.7-.99-4.25,0-6.55,.16-6.91,.47-.36,.31-.54,2.33-.54,6.05s.21,6.03,.64,6.44c.43,.41,2.8,.62,7.11,.62m-14.67-64.3c-9.62,0-11.56,.14-12.62,.27-7,.86-10.4,6.37-10.13,11.36v.18l.05,.58c.26,5.31,.44,9.32,.53,11.92,.39,10.38,.59,17.5,.59,21.17,0,3.35-.2,8.56-.6,15.49-.43,7.39-.63,12.81-.63,16.56,0,5.49,3.69,9.95,9.19,11.1,2.33,.5,6.84,.95,23.7,.95h3.41c1.6,.03,2.8,.05,3.66,.05,13.77,0,23.53-3.25,29.84-9.94,5.53-5.81,8.34-13.15,8.34-21.77,0-4.31-.9-8.45-2.68-12.3-.69-1.5-1.48-2.88-2.37-4.15,.18-.3,.35-.59,.51-.89v-.03l.03-.03c1.97-3.62,2.97-7.27,2.97-10.86,0-13.75-6.7-20.75-12.32-24.19-5.39-3.27-12.8-5.02-22.68-5.39-1.22-.05-4.5-.11-18.78-.11h0Z"/></g><g><path class="cls-8" d="M908.82,596.14c-9.1,0-16.61-2.76-22.34-8.21-5.92-5.56-8.93-13.02-8.93-22.16s2.66-16.17,7.89-21.91c5.48-6.04,12.78-9.1,21.69-9.1,7.68,0,14.28,2.83,19.63,8.42,5.29,5.53,7.98,12.2,7.98,19.83,0,6.87-3.59,9.29-5.96,10.14,.42,.7,.87,1.5,1.35,2.4,2.52,4.69,3.03,6.57,3.03,8.09,0,2.02-1.1,3.46-2.06,4.48-4.95,5.32-12.45,8.02-22.29,8.02Z"/><path class="cls-9" d="M907.14,539.64c6.32,0,11.69,2.3,16.1,6.91,4.41,4.61,6.62,10.09,6.62,16.44,0,3.33-1.07,5.22-3.21,5.68-.36,.07-3.77,.43-10.22,1.09-3.89,.43-9.68,.94-17.38,1.53,.46,2.14,1.86,3.77,4.2,4.89,1.91,.92,4.08,1.38,6.52,1.38,2.93,0,5.88-.79,8.84-2.37,1.25-.79,2.5-1.58,3.75-2.37,.69,.33,1.85,2.01,3.48,5.04,1.63,3.03,2.44,4.96,2.44,5.78,0,.23-.25,.61-.74,1.14-4.02,4.31-10.26,6.47-18.72,6.47-7.84,0-14.16-2.29-18.96-6.86-4.94-4.64-7.41-10.85-7.41-18.62s2.21-13.78,6.62-18.62c4.54-5,10.57-7.51,18.07-7.51m-7.56,22.27c2.44,0,6.22-.38,11.36-1.14,1.09-.16,1.63-.43,1.63-.79,0-2.04-.72-3.84-2.17-5.38-1.45-1.55-3.18-2.32-5.19-2.32s-3.79,.87-5.14,2.62c-1.25,1.61-1.88,3.51-1.88,5.68,0,.89,.46,1.33,1.38,1.33m7.56-32.05c-10.2,0-18.95,3.7-25.32,10.71-6.07,6.66-9.16,15.14-9.16,25.19s3.52,19.18,10.46,25.72c6.66,6.33,15.3,9.54,25.69,9.54,11.25,0,19.95-3.22,25.88-9.58,.81-.87,3.36-3.58,3.36-7.8,0-2.44-.75-4.87-2.82-8.9,2.56-2.5,4.4-6.32,4.4-11.74,0-8.93-3.14-16.74-9.33-23.21-6.22-6.5-14.23-9.93-23.17-9.93h0Z"/></g><g><path class="cls-8" d="M959.49,596.14c-9.1,0-16.61-2.76-22.34-8.21-5.92-5.56-8.93-13.02-8.93-22.16s2.66-16.17,7.89-21.91c5.48-6.04,12.78-9.1,21.69-9.1,7.68,0,14.28,2.83,19.63,8.42,5.29,5.53,7.98,12.2,7.98,19.83,0,6.87-3.59,9.29-5.96,10.14,.42,.7,.87,1.5,1.35,2.4,2.52,4.69,3.03,6.57,3.03,8.09,0,2.28-1.5,3.88-2.07,4.48-4.95,5.31-12.45,8.01-22.28,8.01Z"/><path class="cls-9" d="M957.81,539.64c6.32,0,11.69,2.3,16.1,6.91,4.41,4.61,6.62,10.09,6.62,16.44,0,3.33-1.07,5.22-3.21,5.68-.36,.07-3.77,.43-10.22,1.09-3.89,.43-9.68,.94-17.38,1.53,.46,2.14,1.86,3.77,4.2,4.89,1.91,.92,4.08,1.38,6.52,1.38,2.93,0,5.88-.79,8.84-2.37,1.25-.79,2.5-1.58,3.75-2.37,.69,.33,1.85,2.01,3.48,5.04,1.63,3.03,2.44,4.96,2.44,5.78,0,.23-.25,.61-.74,1.14-4.02,4.31-10.26,6.47-18.72,6.47-7.84,0-14.16-2.29-18.96-6.86-4.94-4.64-7.41-10.85-7.41-18.62s2.21-13.78,6.62-18.62c4.54-5,10.57-7.51,18.07-7.51m-7.56,22.27c2.44,0,6.22-.38,11.36-1.14,1.09-.16,1.63-.43,1.63-.79,0-2.04-.72-3.84-2.17-5.38-1.45-1.55-3.18-2.32-5.19-2.32s-3.79,.87-5.14,2.62c-1.25,1.61-1.88,3.51-1.88,5.68,0,.89,.46,1.33,1.38,1.33m7.56-32.05c-10.2,0-18.95,3.7-25.32,10.71-6.07,6.66-9.16,15.14-9.16,25.19s3.52,19.18,10.46,25.72c6.66,6.33,15.3,9.54,25.69,9.54,11.25,0,19.95-3.22,25.88-9.58,.81-.87,3.36-3.58,3.36-7.8,0-2.44-.75-4.87-2.82-8.9,2.56-2.5,4.4-6.32,4.4-11.74,0-8.93-3.14-16.74-9.33-23.21-6.22-6.5-14.23-9.93-23.17-9.93h0Z"/></g></g></svg>