<svg xmlns="http://www.w3.org/2000/svg" xmlns:xlink="http://www.w3.org/1999/xlink" width="1000" zoomAndPan="magnify" viewBox="0 0 750 187.499995" height="250" preserveAspectRatio="xMidYMid meet" version="1.0"><defs><clipPath id="8c57454b65"><path d="M 0.996094 0 L 114 0 L 114 187 L 0.996094 187 Z M 0.996094 0 " clip-rule="nonzero"/></clipPath></defs><g clip-path="url(#8c57454b65)"><path stroke-linecap="butt" transform="matrix(2.314365, 0, 0, 2.313527, -408.199301, -93.600922)" fill="none" stroke-linejoin="miter" d="M 123.319487 81.600308 C 123.319487 81.600308 169.209837 82.079825 171.589674 55.429498 C 174.109601 27.19035 129.250514 35.490718 123.9001 79.579246 C 123.9001 79.579246 118.580066 72.609368 123.319487 81.600308 Z M 123.319487 81.600308 " stroke="#0d192d" stroke-width="3.79" stroke-opacity="1" stroke-miterlimit="10"/></g><path fill="#fcd307" d="M 56.085938 162.714844 C 41.757812 162.714844 29.933594 157.71875 20.929688 147.839844 C 12.273438 138.421875 7.902344 126.4375 7.902344 112.257812 C 7.902344 98.074219 12.183594 86.667969 20.605469 77 C 29.5625 66.703125 41.113281 61.476562 54.929688 61.476562 C 69.71875 61.476562 81.566406 66.195312 90.175781 75.472656 C 92.050781 77.554688 92.976562 79.707031 92.976562 81.925781 C 92.976562 83.800781 92.492188 85.535156 87.976562 93.449219 C 83.789062 100.78125 82.515625 102.332031 81.472656 103.257812 C 80.0625 104.574219 78.210938 105.292969 76.242188 105.292969 C 73.652344 105.292969 72.078125 103.90625 69.207031 101.359375 C 67.402344 99.765625 65.644531 98.515625 64 97.660156 C 61.6875 96.5 59.324219 95.898438 56.824219 95.898438 C 52.707031 95.898438 49.675781 97.3125 47.269531 100.320312 C 44.859375 103.371094 43.65625 107.144531 43.65625 111.839844 C 43.65625 116.535156 44.835938 120.492188 47.289062 123.59375 C 49.699219 126.671875 52.730469 128.105469 56.824219 128.105469 C 59.441406 128.105469 61.847656 127.550781 64.207031 126.414062 C 65.804688 125.628906 67.519531 124.472656 69.253906 122.992188 C 72.03125 120.585938 73.582031 119.265625 76.128906 119.265625 C 78.234375 119.265625 80.246094 120.191406 81.773438 121.902344 C 82.46875 122.691406 83.601562 124.171875 87.605469 130.210938 C 92.582031 137.75 93.046875 138.910156 93.046875 140.945312 C 93.046875 142.980469 92.191406 145.085938 90.453125 147.261719 C 81.773438 157.601562 70.226562 162.785156 56.109375 162.785156 Z M 56.085938 162.714844 " fill-opacity="1" fill-rule="nonzero"/><path fill="#0d192d" d="M 54.929688 67.488281 C 68.027344 67.488281 78.304688 71.515625 85.753906 79.566406 C 86.566406 80.445312 86.960938 81.253906 86.960938 81.925781 C 86.960938 82.691406 85.546875 85.535156 82.746094 90.488281 C 79.945312 95.414062 78.164062 98.191406 77.445312 98.792969 C 77.125 99.117188 76.730469 99.277344 76.242188 99.277344 C 76.035156 99.277344 75.039062 98.46875 73.210938 96.847656 C 71.035156 94.90625 68.882812 93.402344 66.777344 92.289062 C 63.585938 90.671875 60.273438 89.863281 56.824219 89.863281 C 50.878906 89.863281 46.132812 92.082031 42.570312 96.523438 C 39.28125 100.644531 37.664062 105.734375 37.664062 111.816406 C 37.664062 117.902344 39.304688 123.128906 42.570312 127.292969 C 46.132812 131.828125 50.878906 134.097656 56.824219 134.097656 C 60.34375 134.097656 63.675781 133.332031 66.847656 131.78125 C 68.90625 130.765625 71.011719 129.355469 73.164062 127.527344 C 74.949219 126 75.941406 125.210938 76.128906 125.210938 C 76.519531 125.210938 76.9375 125.445312 77.332031 125.882812 C 77.980469 126.601562 79.738281 129.144531 82.609375 133.472656 C 85.570312 137.960938 87.027344 140.433594 87.027344 140.875 C 87.027344 141.523438 86.613281 142.378906 85.753906 143.417969 C 78.304688 152.28125 68.421875 156.699219 56.085938 156.699219 C 43.75 156.699219 33.21875 152.394531 25.375 143.789062 C 17.738281 135.460938 13.894531 124.957031 13.894531 112.257812 C 13.894531 99.554688 17.644531 89.539062 25.121094 80.953125 C 32.917969 71.976562 42.847656 67.488281 54.90625 67.488281 M 54.90625 55.484375 C 39.28125 55.484375 26.207031 61.40625 16.046875 73.089844 C 6.652344 83.847656 1.882812 97.035156 1.882812 112.28125 C 1.882812 127.527344 6.8125 141.359375 16.511719 151.933594 C 26.667969 163.085938 39.976562 168.753906 56.0625 168.753906 C 72.148438 168.753906 85.128906 162.832031 94.945312 151.191406 L 95.011719 151.101562 L 95.082031 151.007812 C 97.742188 147.722656 99.015625 144.414062 99.015625 140.921875 C 99.015625 136.847656 97.464844 134.328125 92.605469 126.925781 C 88.164062 120.238281 87.074219 118.875 86.265625 117.972656 L 86.171875 117.878906 C 83.464844 114.917969 79.878906 113.273438 76.058594 113.273438 C 71.289062 113.273438 68.351562 115.820312 65.226562 118.503906 C 63.929688 119.613281 62.636719 120.492188 61.476562 121.046875 C 59.996094 121.765625 58.445312 122.136719 56.757812 122.136719 C 54.1875 122.136719 53.054688 121.324219 51.941406 119.9375 C 50.367188 117.925781 49.605469 115.289062 49.605469 111.886719 C 49.605469 107.492188 50.925781 105.316406 51.917969 104.066406 C 52.960938 102.769531 54.140625 101.9375 56.757812 101.9375 C 58.285156 101.9375 59.742188 102.308594 61.222656 103.050781 C 62.425781 103.671875 63.746094 104.644531 65.15625 105.894531 C 68.445312 108.832031 71.3125 111.355469 76.175781 111.355469 C 79.644531 111.355469 82.910156 110.082031 85.429688 107.792969 C 87.214844 106.21875 88.878906 103.949219 93.136719 96.5 C 97.789062 88.335938 98.925781 85.488281 98.925781 81.996094 C 98.925781 79.40625 98.183594 75.496094 94.597656 71.5625 C 84.738281 60.917969 71.40625 55.550781 54.882812 55.550781 Z M 54.90625 55.484375 " fill-opacity="1" fill-rule="nonzero"/><path fill="#fcd307" d="M 104.386719 161.070312 C 97.351562 161.070312 95.035156 160.75 93.695312 160.425781 C 90.453125 159.683594 88.09375 157.117188 87.628906 153.738281 L 87.585938 153.34375 L 87.585938 150.335938 C 87.585938 146.726562 87.628906 141.316406 87.699219 134.097656 C 87.792969 126.949219 87.816406 121.601562 87.816406 118.0625 C 87.816406 110.242188 87.816406 104.390625 87.816406 100.480469 C 87.816406 98.398438 87.816406 96.523438 87.976562 94.90625 L 87.863281 94.90625 C 87.746094 86.320312 87.261719 78.828125 86.425781 72.648438 C 86.289062 71.886719 86.242188 71.261719 86.242188 70.683594 C 86.242188 66.425781 89.4375 63.347656 93.832031 63.347656 L 115.496094 63.347656 C 118.527344 63.347656 120.308594 64.804688 121.121094 65.683594 C 122.414062 67.121094 123.039062 69.015625 122.902344 71.03125 L 122.855469 72.046875 C 121.8125 89.304688 121.28125 104.785156 121.28125 118.0625 C 121.28125 129.03125 121.328125 137.542969 121.398438 143.398438 C 121.398438 144.34375 121.464844 145.847656 121.558594 147.953125 C 121.699219 150.128906 121.742188 151.839844 121.742188 153.066406 C 121.742188 156.882812 119.105469 159.890625 115.171875 160.515625 C 113.042969 160.886719 109.59375 161.070312 104.386719 161.070312 Z M 104.386719 161.070312 " fill-opacity="1" fill-rule="nonzero"/><path fill="#0d192d" d="M 115.472656 69.363281 C 116.492188 69.363281 116.953125 69.78125 116.859375 70.636719 L 116.792969 71.722656 C 115.75 89.191406 115.21875 104.644531 115.21875 118.0625 C 115.21875 129.097656 115.265625 137.566406 115.332031 143.488281 C 115.332031 144.414062 115.402344 146.011719 115.519531 148.277344 C 115.632812 150.335938 115.703125 151.933594 115.703125 153.066406 C 115.703125 153.921875 115.195312 154.433594 114.175781 154.59375 C 112.347656 154.917969 109.085938 155.082031 104.339844 155.082031 C 99.59375 155.082031 96.402344 154.917969 95.058594 154.59375 C 94.179688 154.386719 93.671875 153.855469 93.53125 152.953125 L 93.53125 150.335938 C 93.53125 146.726562 93.578125 141.359375 93.648438 134.164062 C 93.71875 126.992188 93.761719 121.625 93.761719 118.0625 C 93.761719 102.449219 93.761719 94.652344 93.808594 94.652344 C 93.808594 94.652344 93.808594 94.71875 93.808594 94.835938 C 93.695312 85.90625 93.183594 78.203125 92.28125 71.722656 C 92.191406 71.285156 92.167969 70.9375 92.167969 70.683594 C 92.167969 69.804688 92.699219 69.339844 93.742188 69.339844 L 115.402344 69.339844 M 115.402344 57.332031 L 93.742188 57.332031 C 86.125 57.332031 80.132812 63.1875 80.132812 70.683594 C 80.132812 71.585938 80.222656 72.511719 80.386719 73.550781 C 81.195312 79.472656 81.660156 86.667969 81.75 94.953125 C 81.75 95.296875 81.730469 95.644531 81.730469 96.015625 C 81.730469 97.011719 81.730469 98.492188 81.730469 100.457031 C 81.730469 104.367188 81.730469 110.222656 81.730469 118.039062 C 81.730469 121.511719 81.683594 126.902344 81.613281 134.003906 C 81.519531 141.152344 81.496094 146.636719 81.496094 150.3125 L 81.496094 153.738281 L 81.613281 154.546875 C 82.398438 160.332031 86.589844 164.9375 92.28125 166.253906 C 94.320312 166.742188 97.164062 167.0625 104.316406 167.0625 C 109.894531 167.0625 113.550781 166.855469 116.167969 166.417969 C 122.949219 165.28125 127.691406 159.800781 127.691406 153.042969 C 127.691406 151.65625 127.621094 149.851562 127.484375 147.539062 C 127.34375 144.921875 127.320312 143.859375 127.320312 143.441406 L 127.320312 143.28125 C 127.253906 137.472656 127.207031 128.984375 127.207031 118.039062 C 127.207031 104.921875 127.738281 89.5625 128.757812 72.417969 L 128.804688 71.398438 C 129.058594 67.746094 127.878906 64.273438 125.46875 61.613281 C 122.949219 58.835938 119.382812 57.308594 115.425781 57.308594 Z M 115.402344 57.332031 " fill-opacity="1" fill-rule="nonzero"/><path fill="#fcd307" d="M 156.066406 162.34375 C 144.886719 162.34375 135.652344 158.945312 128.617188 152.257812 C 121.351562 145.433594 117.648438 136.269531 117.648438 125.050781 C 117.648438 113.828125 120.910156 105.199219 127.34375 98.144531 C 134.078125 90.71875 143.058594 86.96875 153.984375 86.96875 C 163.425781 86.96875 171.527344 90.441406 178.097656 97.3125 C 184.601562 104.113281 187.886719 112.304688 187.886719 121.671875 C 187.886719 130.117188 183.492188 133.078125 180.550781 134.144531 C 181.0625 135 181.617188 135.96875 182.21875 137.082031 C 185.320312 142.863281 185.945312 145.109375 185.945312 147.027344 C 185.945312 149.503906 184.601562 151.261719 183.398438 152.535156 C 177.3125 159.058594 168.101562 162.390625 156.019531 162.390625 Z M 156.066406 162.34375 " fill-opacity="1" fill-rule="nonzero"/><path fill="#0d192d" d="M 154.007812 92.960938 C 161.78125 92.960938 168.355469 95.785156 173.792969 101.453125 C 179.210938 107.121094 181.917969 113.851562 181.917969 121.648438 C 181.917969 125.746094 180.597656 128.058594 177.984375 128.636719 C 177.542969 128.730469 173.355469 129.167969 165.417969 129.976562 C 160.648438 130.511719 153.519531 131.136719 144.054688 131.851562 C 144.609375 134.488281 146.347656 136.480469 149.214844 137.867188 C 151.554688 139 154.238281 139.554688 157.222656 139.554688 C 160.832031 139.554688 164.445312 138.585938 168.078125 136.640625 C 169.605469 135.667969 171.15625 134.699219 172.683594 133.726562 C 173.539062 134.121094 174.953125 136.203125 176.964844 139.902344 C 178.957031 143.628906 179.972656 145.988281 179.972656 147.003906 C 179.972656 147.285156 179.671875 147.746094 179.070312 148.394531 C 174.140625 153.691406 166.480469 156.328125 156.066406 156.328125 C 146.4375 156.328125 138.660156 153.53125 132.761719 147.90625 C 126.695312 142.21875 123.664062 134.582031 123.664062 125.050781 C 123.664062 115.519531 126.371094 108.136719 131.789062 102.191406 C 137.367188 96.039062 144.773438 92.960938 154.007812 92.960938 M 144.726562 120.308594 C 147.710938 120.308594 152.363281 119.84375 158.679688 118.917969 C 160.023438 118.710938 160.695312 118.386719 160.695312 117.949219 C 160.695312 115.449219 159.816406 113.226562 158.035156 111.332031 C 156.25 109.433594 154.121094 108.484375 151.667969 108.484375 C 149.214844 108.484375 147.015625 109.550781 145.351562 111.703125 C 143.824219 113.691406 143.035156 116.003906 143.035156 118.664062 C 143.035156 119.753906 143.589844 120.308594 144.726562 120.308594 M 154.007812 80.929688 C 141.484375 80.929688 130.722656 85.488281 122.902344 94.09375 C 115.449219 102.285156 111.652344 112.695312 111.652344 125.050781 C 111.652344 137.40625 115.980469 148.625 124.542969 156.675781 C 132.667969 164.425781 143.3125 168.359375 156.066406 168.359375 C 169.882812 168.359375 180.574219 164.402344 187.867188 156.582031 C 188.859375 155.519531 192.007812 152.1875 192.007812 147.003906 C 192.007812 144.019531 191.082031 141.015625 188.558594 136.085938 C 191.707031 133.007812 193.953125 128.3125 193.953125 121.671875 C 193.953125 110.707031 190.085938 101.105469 182.496094 93.171875 C 174.859375 85.1875 165 80.976562 154.03125 80.976562 Z M 154.007812 80.929688 " fill-opacity="1" fill-rule="nonzero"/><path fill="#fcd307" d="M 213 161.996094 C 203.277344 161.996094 195.132812 158.132812 188.792969 150.5 C 183.003906 143.605469 180.066406 135.300781 180.066406 125.789062 C 180.066406 114.988281 183.121094 106.054688 189.160156 99.230469 C 195.59375 92.011719 204.367188 88.359375 215.265625 88.359375 C 220.3125 88.359375 224.78125 89.492188 228.597656 91.734375 C 230.171875 89.929688 232.070312 89.445312 233.667969 89.445312 C 234.984375 89.445312 237.300781 89.605469 243.410156 90.832031 C 247.691406 91.691406 250.722656 92.429688 252.691406 93.078125 L 253.0625 93.214844 C 256.507812 94.605469 257.734375 97.496094 257.734375 99.765625 C 257.734375 100.34375 257.667969 100.921875 257.457031 102.078125 C 256.230469 109.019531 255.605469 116.46875 255.605469 124.265625 C 255.605469 127.25 255.792969 131.804688 256.140625 137.796875 C 256.507812 144 256.695312 148.789062 256.695312 151.980469 C 256.695312 156.722656 253.640625 160.191406 249.082031 160.5625 C 243.875 160.933594 237.925781 161.140625 231.328125 161.140625 C 229.753906 161.140625 227.441406 160.65625 225.773438 158.25 C 221.769531 160.726562 217.488281 161.972656 213.023438 161.972656 Z M 218.34375 118.757812 C 215.984375 118.757812 214.921875 119.566406 214.25 120.261719 C 213.578125 120.957031 212.722656 122.136719 212.722656 124.65625 C 212.722656 126.371094 213.253906 127.6875 214.433594 128.914062 C 215.570312 130.09375 216.75 130.601562 218.367188 130.601562 C 220.683594 130.601562 221.792969 129.769531 222.488281 129.054688 C 223.230469 128.289062 224.0625 127.109375 224.0625 124.65625 C 224.0625 122.761719 223.574219 121.417969 222.488281 120.308594 C 221.792969 119.589844 220.707031 118.78125 218.34375 118.78125 Z M 218.34375 118.757812 " fill-opacity="1" fill-rule="nonzero"/><path fill="#0d192d" d="M 215.246094 94.351562 C 221.585938 94.351562 226.609375 96.570312 230.289062 101.011719 C 230.449219 101.222656 230.589844 101.3125 230.703125 101.3125 C 231.074219 101.3125 231.492188 100.34375 231.953125 98.375 C 232.417969 96.410156 232.972656 95.4375 233.621094 95.4375 C 235.125 95.4375 237.972656 95.855469 242.183594 96.710938 C 246.1875 97.519531 249.058594 98.214844 250.792969 98.769531 C 251.394531 99 251.695312 99.324219 251.695312 99.742188 C 251.695312 99.902344 251.625 100.320312 251.511719 101.011719 C 250.214844 108.324219 249.566406 116.074219 249.566406 124.242188 C 249.566406 127.363281 249.75 131.992188 250.121094 138.121094 C 250.492188 144.277344 250.675781 148.878906 250.675781 151.957031 C 250.675781 153.578125 249.960938 154.433594 248.546875 154.570312 C 243.527344 154.941406 237.785156 155.125 231.304688 155.125 C 230.542969 155.125 230.011719 153.96875 229.753906 151.632812 C 229.5 149.320312 229.175781 148.117188 228.804688 148.09375 C 228.484375 148.253906 228.066406 148.601562 227.535156 149.132812 C 222.996094 153.714844 218.136719 155.980469 212.976562 155.980469 C 205.085938 155.980469 198.558594 152.859375 193.375 146.636719 C 188.492188 140.804688 186.035156 133.863281 186.035156 125.769531 C 186.035156 116.421875 188.558594 108.902344 193.628906 103.210938 C 198.882812 97.3125 206.078125 94.351562 215.222656 94.351562 M 218.324219 136.570312 C 221.769531 136.570312 224.570312 135.4375 226.746094 133.195312 C 228.921875 130.949219 230.03125 128.082031 230.03125 124.609375 C 230.03125 121.140625 228.945312 118.339844 226.792969 116.097656 C 224.617188 113.851562 221.816406 112.71875 218.324219 112.71875 C 214.828125 112.71875 212.027344 113.828125 209.898438 116.050781 C 207.746094 118.273438 206.679688 121.117188 206.679688 124.609375 C 206.679688 127.894531 207.816406 130.695312 210.082031 133.03125 C 212.351562 135.367188 215.105469 136.546875 218.34375 136.546875 M 215.246094 82.320312 C 202.746094 82.320312 192.171875 86.785156 184.671875 95.207031 C 177.613281 103.164062 174.046875 113.4375 174.046875 125.769531 C 174.046875 136.734375 177.472656 146.335938 184.207031 154.363281 C 191.613281 163.269531 201.589844 167.988281 213 167.988281 C 216.261719 167.988281 220.40625 167.433594 224.941406 165.445312 C 227.695312 166.996094 230.402344 167.15625 231.328125 167.15625 C 238.0625 167.15625 244.152344 166.972656 249.425781 166.578125 L 249.589844 166.578125 C 257.179688 165.90625 262.710938 159.777344 262.710938 151.980469 C 262.710938 148.648438 262.527344 143.882812 262.15625 137.449219 C 261.808594 131.550781 261.625 127.132812 261.625 124.265625 C 261.625 116.835938 262.226562 109.710938 263.382812 103.117188 C 263.613281 101.800781 263.753906 100.828125 263.753906 99.742188 C 263.753906 94.351562 260.511719 89.699219 255.28125 87.617188 L 254.914062 87.480469 L 254.542969 87.363281 C 252.320312 86.644531 249.148438 85.882812 244.589844 84.957031 C 239.335938 83.894531 236.074219 83.453125 233.644531 83.453125 C 232.554688 83.453125 230.355469 83.613281 227.996094 84.773438 C 224.132812 83.175781 219.851562 82.34375 215.246094 82.34375 Z M 215.246094 82.320312 " fill-opacity="1" fill-rule="nonzero"/><path fill="#fcd307" d="M 311.40625 160.957031 C 304.140625 160.957031 301.941406 160.726562 300.761719 160.46875 C 296.710938 159.660156 294.117188 156.375 294.117188 152.09375 C 294.117188 150.152344 294.1875 147.214844 294.304688 143.28125 C 294.417969 139.53125 294.488281 136.6875 294.488281 134.789062 C 294.488281 133.332031 294.441406 131.160156 294.371094 128.242188 C 294.28125 125.210938 294.257812 122.921875 294.257812 121.371094 C 294.257812 120.054688 294.046875 119.359375 293.933594 119.128906 L 293.910156 119.128906 C 293.910156 119.128906 293.515625 119.082031 293.054688 119.082031 C 293.054688 119.082031 292.382812 119.152344 290.832031 120.167969 C 290.53125 120.378906 290.324219 120.539062 290.160156 120.679688 L 290.160156 152.441406 C 290.160156 156.792969 287.289062 160.101562 283.03125 160.65625 C 281.875 160.792969 279.746094 160.957031 273.589844 160.957031 C 266.832031 160.957031 264.5625 160.726562 263.359375 160.515625 C 259.261719 159.867188 256.488281 156.675781 256.488281 152.605469 C 256.488281 149.433594 256.488281 144.667969 256.554688 138.308594 C 256.601562 131.96875 256.625 127.226562 256.625 124.03125 C 256.625 114.546875 255.90625 107.097656 254.472656 101.914062 L 254.402344 101.636719 C 254.21875 100.828125 254.125 100.109375 254.125 99.417969 C 254.125 96.316406 255.929688 93.65625 258.824219 92.5 L 259.585938 92.199219 L 260.398438 92.105469 C 262.828125 91.828125 266.042969 91.410156 270.257812 90.808594 C 280.324219 88.84375 281.320312 88.84375 282.105469 88.84375 C 285.578125 88.84375 287.289062 90.972656 288.171875 93.355469 C 293.746094 90.164062 298.699219 88.613281 303.28125 88.613281 C 309.671875 88.613281 315.15625 90.207031 319.621094 93.355469 C 325.085938 97.3125 327.929688 103.027344 327.929688 109.921875 L 327.929688 129.261719 C 327.929688 131.875 327.929688 135.785156 328 141.015625 C 328.046875 146.265625 328.070312 150.222656 328.070312 152.859375 C 328.070312 156.953125 325.316406 160.101562 321.21875 160.679688 C 320.222656 160.816406 318.234375 160.980469 311.523438 160.980469 Z M 311.40625 160.957031 " fill-opacity="1" fill-rule="nonzero"/><path fill="#0d192d" d="M 303.214844 94.605469 C 308.351562 94.605469 312.632812 95.808594 316.082031 98.238281 C 319.921875 101.035156 321.84375 104.898438 321.84375 109.875 L 321.84375 129.214844 C 321.84375 131.851562 321.84375 135.785156 321.914062 141.015625 C 321.960938 146.242188 321.984375 150.175781 321.984375 152.8125 C 321.984375 153.898438 321.425781 154.523438 320.292969 154.6875 C 319.160156 154.847656 316.195312 154.917969 311.429688 154.917969 C 306.335938 154.917969 303.167969 154.800781 301.964844 154.546875 C 300.761719 154.316406 300.136719 153.484375 300.136719 152.074219 C 300.136719 150.175781 300.203125 147.304688 300.320312 143.464844 C 300.4375 139.625 300.503906 136.734375 300.503906 134.789062 C 300.503906 133.285156 300.460938 131.066406 300.390625 128.082031 C 300.296875 125.121094 300.273438 122.875 300.273438 121.371094 C 300.273438 115.84375 297.867188 113.066406 293.054688 113.066406 C 291.480469 113.066406 289.628906 113.761719 287.523438 115.125 C 285.253906 116.652344 284.121094 118.179688 284.121094 119.683594 L 284.121094 152.441406 C 284.121094 153.785156 283.496094 154.523438 282.246094 154.6875 C 280.832031 154.847656 277.941406 154.917969 273.566406 154.917969 C 268.84375 154.917969 265.765625 154.800781 264.332031 154.546875 C 263.082031 154.339844 262.457031 153.667969 262.457031 152.535156 C 262.457031 149.390625 262.457031 144.621094 262.527344 138.285156 C 262.574219 131.945312 262.597656 127.15625 262.597656 123.964844 C 262.597656 113.898438 261.808594 105.988281 260.234375 100.25 C 260.144531 99.878906 260.121094 99.578125 260.121094 99.347656 C 260.121094 98.699219 260.421875 98.261719 261.023438 98.003906 C 263.570312 97.726562 266.96875 97.289062 271.207031 96.664062 C 277.640625 95.414062 281.25 94.789062 282.058594 94.789062 C 282.5 94.789062 282.847656 96.15625 283.101562 98.882812 C 283.332031 101.613281 283.679688 102.980469 284.121094 102.980469 C 283.703125 102.980469 285.878906 101.566406 290.648438 98.769531 C 295.4375 95.96875 299.625 94.558594 303.238281 94.558594 M 303.238281 82.550781 C 299.023438 82.550781 294.652344 83.570312 290 85.605469 C 287.382812 83.3125 284.304688 82.78125 282.058594 82.78125 C 280.601562 82.78125 279.003906 82.921875 269.191406 84.816406 C 265.210938 85.398438 261.996094 85.8125 259.679688 86.066406 L 258.058594 86.253906 L 256.554688 86.855469 C 251.417969 88.914062 248.085938 93.816406 248.085938 99.347656 C 248.085938 100.480469 248.222656 101.636719 248.503906 102.886719 L 248.570312 103.164062 L 248.640625 103.441406 C 249.519531 106.65625 250.585938 112.835938 250.585938 123.984375 C 250.585938 127.15625 250.585938 131.921875 250.515625 138.214844 C 250.46875 144.601562 250.445312 149.367188 250.445312 152.535156 C 250.445312 159.546875 255.351562 165.238281 262.363281 166.394531 C 263.914062 166.648438 266.484375 166.925781 273.566406 166.925781 C 279.976562 166.925781 282.292969 166.761719 283.609375 166.601562 L 283.796875 166.601562 C 287.199219 166.140625 290.113281 164.636719 292.242188 162.414062 C 294.164062 164.355469 296.6875 165.722656 299.601562 166.324219 C 301.410156 166.671875 304.09375 166.925781 311.429688 166.925781 C 318.765625 166.925781 320.664062 166.742188 321.984375 166.554688 C 329.066406 165.539062 334.019531 159.890625 334.019531 152.789062 C 334.019531 150.152344 334.019531 146.171875 333.949219 140.898438 C 333.902344 135.691406 333.878906 131.804688 333.878906 129.191406 L 333.878906 109.851562 C 333.878906 101.082031 330.082031 93.492188 323.164062 88.472656 L 323.09375 88.425781 L 323.023438 88.382812 C 317.539062 84.515625 310.875 82.550781 303.238281 82.550781 Z M 303.238281 82.550781 " fill-opacity="1" fill-rule="nonzero"/><path fill="#fcd307" d="M 344.109375 160.957031 C 337.1875 160.957031 334.921875 160.726562 333.714844 160.492188 C 330.941406 159.984375 328.972656 158.710938 327.863281 156.699219 C 327.050781 155.101562 326.980469 153.691406 326.980469 151.980469 C 326.980469 149.15625 327.050781 144.921875 327.167969 139.253906 C 327.28125 133.726562 327.351562 129.539062 327.351562 126.738281 C 327.351562 115.566406 326.914062 106.613281 326.078125 100.109375 C 325.941406 99.046875 325.917969 98.375 325.917969 98.050781 C 325.917969 95.578125 327.167969 93.101562 329.574219 91.78125 C 327.328125 89.003906 326.171875 85.558594 326.171875 81.671875 C 326.171875 76.699219 328.253906 72.394531 332.167969 69.226562 C 335.546875 66.496094 339.617188 65.105469 344.246094 65.105469 C 348.875 65.105469 352.855469 66.519531 356.257812 69.339844 C 360.101562 72.488281 362.136719 76.765625 362.136719 81.671875 C 362.136719 85.953125 361.003906 89.492188 358.875 92.222656 C 360.792969 93.492188 362 95.644531 362 98.167969 C 362 98.445312 361.953125 99.09375 361.8125 100.109375 C 360.957031 107.605469 360.539062 116.605469 360.539062 126.714844 C 360.539062 129.632812 360.609375 134.003906 360.726562 139.789062 C 360.839844 145.6875 360.910156 150.105469 360.910156 153.042969 C 360.910156 156.863281 358.273438 159.867188 354.335938 160.492188 C 353.226562 160.679688 350.980469 160.933594 344.109375 160.933594 Z M 344.109375 160.957031 " fill-opacity="1" fill-rule="nonzero"/><path fill="#0d192d" d="M 344.222656 71.121094 C 347.371094 71.121094 350.101562 72.070312 352.417969 73.96875 C 354.894531 75.980469 356.121094 78.546875 356.121094 81.671875 C 356.121094 88.703125 352.164062 92.222656 344.222656 92.222656 C 340.820312 92.222656 338.019531 91.34375 335.800781 89.5625 C 333.371094 87.617188 332.167969 85.003906 332.167969 81.671875 C 332.167969 78.339844 333.414062 75.933594 335.9375 73.898438 C 338.253906 72.046875 341.007812 71.097656 344.246094 71.097656 M 333.578125 96.824219 C 334.710938 96.824219 336.449219 96.941406 338.761719 97.195312 C 341.078125 97.425781 342.835938 97.566406 344.015625 97.566406 C 345.195312 97.566406 346.953125 97.472656 349.292969 97.265625 C 351.628906 97.058594 353.390625 96.964844 354.570312 96.964844 C 355.542969 96.964844 356.027344 97.359375 356.027344 98.167969 C 356.027344 98.328125 355.980469 98.722656 355.910156 99.324219 C 355.03125 107.214844 354.570312 116.351562 354.570312 126.738281 C 354.570312 129.699219 354.636719 134.097656 354.753906 139.925781 C 354.871094 145.78125 354.9375 150.152344 354.9375 153.066406 C 354.9375 153.921875 354.429688 154.433594 353.410156 154.59375 C 352.046875 154.824219 348.945312 154.964844 344.132812 154.964844 C 339.316406 154.964844 336.167969 154.847656 334.78125 154.59375 C 333.902344 154.433594 333.347656 154.179688 333.136719 153.808594 C 333.046875 153.644531 333.023438 153.042969 333.023438 151.980469 C 333.023438 149.179688 333.089844 144.992188 333.207031 139.394531 C 333.324219 133.796875 333.394531 129.585938 333.394531 126.738281 C 333.394531 115.265625 332.953125 106.125 332.050781 99.324219 C 331.957031 98.675781 331.933594 98.261719 331.933594 98.050781 C 331.933594 97.242188 332.488281 96.847656 333.578125 96.847656 M 344.246094 59.113281 C 338.300781 59.113281 332.8125 61.011719 328.394531 64.574219 C 323.09375 68.855469 320.15625 74.941406 320.15625 81.695312 C 320.15625 84.957031 320.800781 88.035156 322.007812 90.808594 C 320.664062 92.871094 319.898438 95.34375 319.898438 98.074219 C 319.898438 98.839844 319.96875 99.648438 320.109375 100.851562 C 320.941406 107.144531 321.359375 115.84375 321.359375 126.761719 C 321.359375 129.492188 321.289062 133.679688 321.171875 139.140625 C 321.058594 144.785156 320.988281 149.109375 320.988281 151.980469 C 320.988281 154.246094 321.101562 156.652344 322.421875 159.246094 L 322.515625 159.429688 L 322.628906 159.613281 C 324.019531 162.136719 326.890625 165.375 332.628906 166.394531 C 334.296875 166.695312 336.792969 166.949219 344.109375 166.949219 C 351.421875 166.949219 353.78125 166.695312 355.402344 166.417969 C 362.207031 165.28125 366.929688 159.800781 366.929688 153.042969 C 366.929688 150.058594 366.859375 145.546875 366.742188 139.671875 C 366.628906 133.910156 366.558594 129.5625 366.558594 126.738281 C 366.558594 116.882812 366.972656 108.160156 367.808594 100.78125 C 367.945312 99.785156 368.015625 99 368.015625 98.167969 C 368.015625 95.714844 367.367188 93.449219 366.234375 91.480469 C 367.484375 88.589844 368.132812 85.304688 368.132812 81.648438 C 368.132812 74.960938 365.261719 68.949219 360.03125 64.644531 C 355.609375 61.011719 350.125 59.070312 344.222656 59.070312 Z M 344.246094 59.113281 " fill-opacity="1" fill-rule="nonzero"/><path fill="#fcd307" d="M 416.015625 160.957031 C 408.75 160.957031 406.550781 160.726562 405.371094 160.46875 C 401.320312 159.660156 398.726562 156.375 398.726562 152.09375 C 398.726562 150.152344 398.796875 147.214844 398.914062 143.28125 C 399.027344 139.53125 399.097656 136.6875 399.097656 134.789062 C 399.097656 133.332031 399.050781 131.160156 398.980469 128.242188 C 398.890625 125.1875 398.867188 122.898438 398.867188 121.371094 C 398.867188 120.054688 398.65625 119.359375 398.542969 119.128906 L 398.519531 119.128906 C 398.519531 119.128906 398.125 119.082031 397.664062 119.082031 C 397.664062 119.082031 396.992188 119.152344 395.441406 120.167969 C 395.140625 120.378906 394.933594 120.539062 394.769531 120.679688 L 394.769531 152.441406 C 394.769531 156.792969 391.898438 160.101562 387.640625 160.65625 C 386.484375 160.792969 384.355469 160.957031 378.199219 160.957031 C 371.441406 160.957031 369.171875 160.726562 367.96875 160.515625 C 363.871094 159.867188 361.09375 156.675781 361.09375 152.605469 C 361.09375 149.433594 361.09375 144.667969 361.164062 138.308594 C 361.210938 131.96875 361.234375 127.226562 361.234375 124.03125 C 361.234375 114.546875 360.515625 107.097656 359.082031 101.914062 L 359.011719 101.636719 C 358.828125 100.828125 358.734375 100.109375 358.734375 99.417969 C 358.734375 96.292969 360.539062 93.65625 363.433594 92.5 L 364.195312 92.199219 L 365.007812 92.105469 C 367.414062 91.828125 370.722656 91.410156 374.867188 90.808594 C 384.933594 88.84375 385.929688 88.84375 386.714844 88.84375 C 390.1875 88.84375 391.898438 90.972656 392.78125 93.355469 C 398.355469 90.164062 403.308594 88.613281 407.890625 88.613281 C 414.28125 88.613281 419.765625 90.207031 424.230469 93.355469 C 429.695312 97.3125 432.539062 103.027344 432.539062 109.921875 L 432.539062 129.261719 C 432.539062 131.875 432.539062 135.785156 432.609375 141.015625 C 432.65625 146.265625 432.679688 150.222656 432.679688 152.859375 C 432.679688 156.953125 429.925781 160.101562 425.828125 160.679688 C 424.832031 160.816406 422.84375 160.980469 416.132812 160.980469 Z M 416.015625 160.957031 " fill-opacity="1" fill-rule="nonzero"/><path fill="#0d192d" d="M 407.824219 94.605469 C 412.960938 94.605469 417.242188 95.808594 420.691406 98.238281 C 424.53125 101.035156 426.453125 104.898438 426.453125 109.875 L 426.453125 129.214844 C 426.453125 131.851562 426.453125 135.785156 426.523438 141.015625 C 426.570312 146.242188 426.59375 150.175781 426.59375 152.8125 C 426.59375 153.898438 426.011719 154.523438 424.902344 154.6875 C 423.769531 154.847656 420.804688 154.917969 416.039062 154.917969 C 410.945312 154.917969 407.777344 154.800781 406.574219 154.546875 C 405.371094 154.292969 404.746094 153.484375 404.746094 152.074219 C 404.746094 150.175781 404.8125 147.304688 404.929688 143.464844 C 405.046875 139.625 405.113281 136.734375 405.113281 134.789062 C 405.113281 133.285156 405.070312 131.066406 405 128.082031 C 404.90625 125.121094 404.882812 122.875 404.882812 121.371094 C 404.882812 115.84375 402.476562 113.066406 397.664062 113.066406 C 396.089844 113.066406 394.238281 113.761719 392.132812 115.125 C 389.863281 116.652344 388.730469 118.179688 388.730469 119.683594 L 388.730469 152.441406 C 388.730469 153.785156 388.105469 154.523438 386.855469 154.6875 C 385.441406 154.847656 382.550781 154.917969 378.175781 154.917969 C 373.429688 154.917969 370.375 154.800781 368.941406 154.546875 C 367.691406 154.339844 367.066406 153.667969 367.066406 152.535156 C 367.066406 149.390625 367.066406 144.621094 367.136719 138.285156 C 367.183594 131.945312 367.207031 127.15625 367.207031 123.964844 C 367.207031 113.898438 366.417969 105.988281 364.84375 100.25 C 364.753906 99.878906 364.730469 99.578125 364.730469 99.347656 C 364.730469 98.699219 365.03125 98.261719 365.632812 98.003906 C 368.175781 97.726562 371.578125 97.289062 375.816406 96.664062 C 382.25 95.414062 385.859375 94.789062 386.667969 94.789062 C 387.109375 94.789062 387.457031 96.15625 387.710938 98.882812 C 387.941406 101.613281 388.289062 102.980469 388.730469 102.980469 C 388.3125 102.980469 390.488281 101.566406 395.253906 98.769531 C 400.046875 95.96875 404.234375 94.558594 407.847656 94.558594 M 407.847656 82.550781 C 403.632812 82.550781 399.257812 83.570312 394.609375 85.605469 C 391.992188 83.3125 388.914062 82.78125 386.667969 82.78125 C 385.210938 82.78125 383.613281 82.921875 373.800781 84.816406 C 369.820312 85.398438 366.605469 85.8125 364.289062 86.066406 L 362.667969 86.253906 L 361.164062 86.855469 C 356.027344 88.914062 352.695312 93.816406 352.695312 99.347656 C 352.695312 100.503906 352.832031 101.660156 353.109375 102.886719 L 353.25 103.441406 C 354.128906 106.65625 355.195312 112.835938 355.195312 123.984375 C 355.195312 127.15625 355.195312 131.921875 355.125 138.214844 C 355.078125 144.601562 355.054688 149.367188 355.054688 152.535156 C 355.054688 159.546875 359.960938 165.214844 366.972656 166.394531 C 368.523438 166.648438 371.09375 166.925781 378.175781 166.925781 C 384.585938 166.925781 386.902344 166.761719 388.21875 166.601562 L 388.40625 166.601562 C 391.808594 166.140625 394.722656 164.636719 396.851562 162.414062 C 398.773438 164.355469 401.296875 165.722656 404.234375 166.324219 C 406.015625 166.671875 408.726562 166.925781 416.0625 166.925781 C 423.398438 166.925781 425.296875 166.742188 426.617188 166.554688 C 433.699219 165.539062 438.648438 159.890625 438.648438 152.789062 C 438.648438 150.152344 438.648438 146.171875 438.582031 140.898438 C 438.535156 135.691406 438.511719 131.804688 438.511719 129.191406 L 438.511719 109.851562 C 438.511719 101.082031 434.691406 93.492188 427.796875 88.472656 L 427.726562 88.425781 L 427.65625 88.382812 C 422.171875 84.515625 415.507812 82.550781 407.867188 82.550781 Z M 407.847656 82.550781 " fill-opacity="1" fill-rule="nonzero"/><path fill="#fcd307" d="M 464.871094 177.335938 C 461.054688 177.335938 456.148438 176.757812 449.875 175.601562 C 444.25 174.558594 433.742188 172.640625 433.742188 164.84375 C 433.742188 163.917969 433.742188 162.96875 436.519531 151.539062 C 436.984375 149.691406 437.792969 148.300781 438.765625 147.328125 C 437.957031 146.589844 437.167969 145.804688 436.429688 144.96875 C 430.710938 138.609375 427.796875 130.71875 427.796875 121.558594 C 427.796875 112.394531 430.597656 104.550781 436.105469 98.328125 C 442.003906 91.710938 449.757812 88.359375 459.15625 88.359375 C 463.714844 88.359375 467.789062 89.375 471.257812 91.34375 C 472.441406 89.929688 474.058594 89.214844 476.144531 89.214844 C 476.675781 89.214844 477.414062 89.214844 487.273438 90.253906 C 497.457031 91.320312 497.644531 91.390625 498.429688 91.644531 C 501.648438 92.777344 503.589844 95.554688 503.589844 98.929688 C 503.589844 101.777344 503.5 105.917969 503.3125 111.609375 C 503.128906 117.046875 503.035156 121.1875 503.035156 123.917969 C 503.035156 125.558594 503.035156 128.011719 503.105469 131.296875 C 503.152344 134.652344 503.175781 137.148438 503.175781 138.839844 C 503.175781 152.117188 500.234375 161.582031 494.195312 167.828125 C 488.015625 174.167969 478.15625 177.359375 464.871094 177.359375 Z M 465.84375 117.113281 C 464.617188 117.113281 463.785156 117.484375 462.949219 118.410156 C 461.980469 119.519531 461.539062 120.679688 461.539062 122.160156 C 461.539062 123.640625 461.957031 124.679688 462.929688 125.699219 C 463.808594 126.625 464.640625 127.015625 465.84375 127.015625 C 467.046875 127.015625 467.925781 126.648438 468.738281 125.722656 C 469.707031 124.632812 470.148438 123.5 470.148438 122.042969 C 470.148438 120.585938 469.730469 119.453125 468.761719 118.410156 C 467.949219 117.507812 467.09375 117.136719 465.84375 117.136719 Z M 465.84375 117.113281 " fill-opacity="1" fill-rule="nonzero"/><path fill="#0d192d" d="M 459.15625 94.351562 C 465.265625 94.351562 469.941406 96.523438 473.179688 100.898438 C 473.828125 101.777344 474.269531 102.238281 474.523438 102.238281 C 474.894531 102.238281 475.078125 101.523438 475.078125 100.0625 C 475.078125 96.824219 475.449219 95.207031 476.164062 95.207031 C 476.8125 95.207031 480.308594 95.53125 486.671875 96.199219 C 493.015625 96.871094 496.324219 97.242188 496.554688 97.335938 C 497.25 97.566406 497.597656 98.097656 497.597656 98.90625 C 497.597656 101.707031 497.503906 105.871094 497.320312 111.402344 C 497.132812 116.929688 497.042969 121.09375 497.042969 123.894531 C 497.042969 125.558594 497.042969 128.035156 497.109375 131.34375 C 497.15625 134.652344 497.179688 137.148438 497.179688 138.792969 C 497.179688 150.3125 494.75 158.597656 489.890625 163.59375 C 484.867188 168.730469 476.535156 171.296875 464.894531 171.296875 C 461.492188 171.296875 456.863281 170.742188 451.007812 169.65625 C 443.535156 168.289062 439.785156 166.671875 439.785156 164.796875 C 439.785156 164.035156 440.664062 160.078125 442.398438 152.90625 C 442.675781 151.773438 443.117188 151.214844 443.742188 151.214844 C 443.949219 151.261719 444.160156 151.332031 444.414062 151.449219 C 450.636719 154.523438 456.402344 156.050781 461.699219 156.050781 C 464.617188 156.050781 467.511719 155.335938 470.378906 153.878906 C 473.851562 152.140625 475.585938 149.945312 475.585938 147.328125 L 475.585938 143.257812 C 471.46875 147.144531 466.167969 149.089844 459.6875 149.089844 C 452.074219 149.089844 445.824219 146.359375 440.941406 140.898438 C 436.21875 135.644531 433.835938 129.167969 433.835938 121.488281 C 433.835938 113.808594 436.105469 107.351562 440.640625 102.261719 C 445.363281 96.964844 451.5625 94.328125 459.203125 94.328125 M 465.867188 132.960938 C 468.828125 132.960938 471.28125 131.875 473.25 129.675781 C 475.21875 127.503906 476.1875 124.933594 476.1875 121.972656 C 476.1875 119.011719 475.21875 116.46875 473.25 114.292969 C 471.28125 112.140625 468.828125 111.054688 465.867188 111.054688 C 462.90625 111.054688 460.453125 112.164062 458.484375 114.363281 C 456.515625 116.558594 455.546875 119.152344 455.546875 122.089844 C 455.546875 125.027344 456.539062 127.59375 458.554688 129.722656 C 460.566406 131.875 462.996094 132.941406 465.867188 132.941406 M 459.203125 82.296875 C 448.183594 82.296875 438.648438 86.4375 431.660156 94.257812 C 425.109375 101.613281 421.800781 110.777344 421.800781 121.488281 C 421.800781 132.199219 424.996094 140.78125 431.289062 148.140625 C 431.082031 148.71875 430.875 149.34375 430.710938 149.992188 C 427.863281 161.652344 427.75 163.085938 427.75 164.796875 C 427.75 177.589844 442.515625 180.296875 448.808594 181.476562 C 455.429688 182.703125 460.707031 183.304688 464.871094 183.304688 C 479.824219 183.304688 491.140625 179.488281 498.476562 171.992188 C 505.695312 164.542969 509.167969 153.691406 509.167969 138.792969 C 509.167969 137.105469 509.167969 134.558594 509.097656 131.179688 C 509.054688 127.917969 509.03125 125.488281 509.03125 123.871094 C 509.03125 121.234375 509.121094 117.160156 509.308594 111.769531 C 509.492188 106.035156 509.585938 101.824219 509.585938 98.882812 C 509.585938 92.984375 506.042969 87.917969 500.535156 85.976562 L 500.421875 85.929688 L 500.304688 85.882812 C 498.847656 85.398438 498.707031 85.351562 487.898438 84.214844 C 477.738281 83.152344 476.976562 83.152344 476.144531 83.152344 C 474.984375 83.152344 472.878906 83.316406 470.65625 84.355469 C 467.164062 82.992188 463.320312 82.320312 459.132812 82.320312 Z M 459.203125 82.296875 " fill-opacity="1" fill-rule="nonzero"/><path fill="#fcd307" d="M 575.960938 161.328125 C 574.917969 161.328125 573.414062 161.328125 571.472656 161.257812 L 567.28125 161.257812 C 546.871094 161.257812 541.664062 160.703125 539.394531 160.214844 C 535.460938 159.40625 532.890625 156.351562 532.890625 152.464844 C 532.890625 148.046875 533.144531 141.316406 533.65625 132.476562 C 534.140625 123.847656 534.394531 117.324219 534.394531 113.113281 C 534.394531 108.507812 534.140625 99.671875 533.679688 86.902344 C 533.5625 83.59375 533.332031 78.640625 533.007812 72.046875 L 532.960938 71.332031 C 532.773438 67.859375 534.925781 64.183594 540.136719 63.535156 C 541.292969 63.394531 543.953125 63.257812 554.925781 63.257812 C 568.046875 63.257812 575.523438 63.300781 577.789062 63.371094 C 588.875 63.789062 597.023438 65.640625 602.714844 69.085938 C 608.339844 72.535156 615.003906 79.589844 615.003906 93.703125 C 615.003906 97.101562 614.03125 100.621094 612.089844 104.160156 C 611.253906 105.640625 610.285156 107.121094 609.171875 108.578125 C 611.164062 110.542969 612.828125 112.972656 614.148438 115.820312 C 615.953125 119.753906 616.878906 123.984375 616.878906 128.40625 C 616.878906 137.40625 613.988281 145.015625 608.246094 151.054688 C 601.71875 157.972656 591.167969 161.351562 575.984375 161.351562 Z M 569.433594 130.164062 C 570.335938 130.1875 571.472656 130.210938 572.90625 130.210938 C 578.066406 130.210938 579.6875 129.675781 579.964844 129.585938 C 580.382812 129.421875 580.542969 129.355469 580.542969 128.152344 C 580.542969 126.671875 580.21875 126.53125 579.640625 126.277344 C 579.269531 126.113281 577.488281 125.535156 572.535156 125.535156 C 571.285156 125.535156 570.246094 125.535156 569.410156 125.558594 C 569.410156 126.113281 569.410156 126.785156 569.410156 127.527344 C 569.410156 128.566406 569.410156 129.421875 569.433594 130.140625 Z M 568.996094 95.667969 C 569.734375 95.667969 570.613281 95.691406 571.703125 95.691406 C 576.910156 95.691406 578.484375 94.675781 578.738281 94.464844 C 578.738281 94.441406 578.738281 94.351562 578.738281 94.234375 C 578.738281 93.703125 578.644531 93.515625 578.644531 93.515625 C 578.601562 93.472656 578.320312 93.238281 577.675781 93.03125 C 577.140625 92.871094 575.152344 92.40625 569.945312 92.40625 C 569.644531 92.40625 569.34375 92.40625 569.066406 92.40625 C 568.972656 93.472656 568.972656 94.027344 568.972656 94.351562 C 568.972656 94.835938 568.972656 95.277344 568.972656 95.644531 Z M 568.996094 95.667969 " fill-opacity="1" fill-rule="nonzero"/><path fill="#0d192d" d="M 554.902344 69.25 C 567.816406 69.25 575.359375 69.292969 577.535156 69.363281 C 587.488281 69.734375 594.824219 71.355469 599.566406 74.222656 C 605.839844 78.0625 608.964844 84.5625 608.964844 93.703125 C 608.964844 96.085938 608.246094 98.605469 606.789062 101.289062 C 605.746094 103.1875 604.359375 105.085938 602.667969 106.980469 C 601.28125 108.53125 600.539062 109.296875 600.425781 109.296875 C 600.425781 109.574219 600.957031 110.011719 601.996094 110.613281 C 604.820312 112.234375 607.042969 114.800781 608.664062 118.316406 C 610.121094 121.464844 610.839844 124.820312 610.839844 128.382812 C 610.839844 135.832031 608.5 141.984375 603.871094 146.890625 C 598.574219 152.511719 589.269531 155.3125 575.960938 155.3125 C 574.941406 155.3125 573.484375 155.3125 571.585938 155.242188 L 567.28125 155.242188 C 552.355469 155.242188 543.46875 154.941406 540.644531 154.339844 C 539.464844 154.109375 538.886719 153.460938 538.886719 152.464844 C 538.886719 148.140625 539.140625 141.59375 539.648438 132.824219 C 540.15625 124.054688 540.414062 117.484375 540.414062 113.113281 C 540.414062 108.417969 540.179688 99.601562 539.695312 86.667969 C 539.578125 83.359375 539.347656 78.386719 539.023438 71.746094 L 538.953125 70.890625 C 538.910156 70.128906 539.554688 69.664062 540.875 69.503906 C 542.195312 69.339844 546.871094 69.269531 554.921875 69.269531 M 571.726562 101.730469 C 580.429688 101.730469 584.777344 99.253906 584.777344 94.28125 C 584.777344 90.808594 583.042969 88.496094 579.570312 87.363281 C 577.628906 86.761719 574.433594 86.460938 569.988281 86.460938 C 565.546875 86.460938 563.441406 86.785156 563.441406 87.433594 C 563.441406 88.195312 563.371094 89.351562 563.230469 90.925781 C 563.09375 92.476562 563.023438 93.65625 563.023438 94.417969 C 563.023438 98.46875 563.371094 100.734375 564.066406 101.222656 C 564.503906 101.589844 567.074219 101.777344 571.773438 101.777344 M 572.976562 136.292969 C 577.351562 136.292969 580.429688 135.945312 582.210938 135.253906 C 585.171875 134.074219 586.628906 131.738281 586.628906 128.21875 C 586.628906 124.703125 585.101562 122.113281 582.070312 120.816406 C 580.128906 120.007812 576.980469 119.613281 572.605469 119.613281 C 567.398438 119.613281 564.550781 119.800781 564.113281 120.191406 C 563.671875 120.585938 563.441406 123.0625 563.441406 127.617188 C 563.441406 132.175781 563.695312 135.023438 564.226562 135.53125 C 564.757812 136.039062 567.675781 136.292969 572.976562 136.292969 M 554.945312 57.308594 C 543.121094 57.308594 540.738281 57.472656 539.441406 57.632812 C 530.832031 58.699219 526.664062 65.453125 526.988281 71.609375 L 526.988281 71.816406 L 527.058594 72.535156 C 527.382812 79.171875 527.589844 83.960938 527.707031 87.179688 C 528.191406 99.925781 528.425781 108.671875 528.425781 113.183594 C 528.425781 117.300781 528.167969 123.6875 527.683594 132.199219 C 527.152344 141.292969 526.898438 147.929688 526.898438 152.535156 C 526.898438 159.289062 531.457031 164.773438 538.238281 166.183594 C 541.015625 166.785156 546.523438 167.34375 567.304688 167.34375 L 571.496094 167.34375 C 573.4375 167.386719 574.941406 167.410156 575.984375 167.410156 C 592.902344 167.410156 604.890625 163.410156 612.644531 155.195312 C 619.425781 148.046875 622.894531 139.046875 622.894531 128.453125 C 622.894531 123.152344 621.785156 118.0625 619.609375 113.34375 C 618.753906 111.492188 617.804688 109.804688 616.695312 108.253906 C 616.902344 107.882812 617.132812 107.515625 617.320312 107.167969 C 619.773438 102.65625 621 98.167969 621 93.773438 C 621 76.882812 612.757812 68.300781 605.863281 64.066406 C 599.242188 60.039062 590.148438 57.890625 577.996094 57.449219 C 576.492188 57.402344 572.464844 57.308594 554.921875 57.308594 Z M 554.945312 57.308594 " fill-opacity="1" fill-rule="nonzero"/><path fill="#fcd307" d="M 647.867188 162.34375 C 636.691406 162.34375 627.457031 158.945312 620.421875 152.257812 C 613.152344 145.433594 609.449219 136.269531 609.449219 125.050781 C 609.449219 113.828125 612.714844 105.199219 619.148438 98.144531 C 625.882812 90.71875 634.863281 86.96875 645.785156 86.96875 C 655.226562 86.96875 663.328125 90.441406 669.902344 97.3125 C 676.40625 104.113281 679.691406 112.304688 679.691406 121.671875 C 679.691406 130.117188 675.292969 133.078125 672.355469 134.144531 C 672.863281 135 673.417969 135.96875 674.019531 137.082031 C 677.121094 142.863281 677.746094 145.109375 677.746094 147.027344 C 677.746094 149.828125 675.894531 151.792969 675.203125 152.535156 C 669.136719 159.058594 659.902344 162.367188 647.824219 162.367188 Z M 647.867188 162.34375 " fill-opacity="1" fill-rule="nonzero"/><path fill="#0d192d" d="M 645.808594 92.960938 C 653.585938 92.960938 660.15625 95.785156 665.597656 101.453125 C 671.011719 107.121094 673.71875 113.851562 673.71875 121.648438 C 673.71875 125.746094 672.402344 128.058594 669.785156 128.636719 C 669.347656 128.730469 665.15625 129.167969 657.21875 129.976562 C 652.449219 130.511719 645.324219 131.136719 635.855469 131.851562 C 636.414062 134.488281 638.148438 136.480469 641.019531 137.867188 C 643.355469 139 646.039062 139.554688 649.027344 139.554688 C 652.636719 139.554688 656.246094 138.585938 659.878906 136.640625 C 661.40625 135.667969 662.957031 134.699219 664.484375 133.726562 C 665.34375 134.121094 666.753906 136.203125 668.765625 139.902344 C 670.78125 143.628906 671.777344 145.988281 671.777344 147.003906 C 671.777344 147.285156 671.476562 147.746094 670.875 148.394531 C 665.945312 153.691406 658.285156 156.328125 647.867188 156.328125 C 638.242188 156.328125 630.464844 153.53125 624.5625 147.90625 C 618.5 142.21875 615.46875 134.582031 615.46875 125.050781 C 615.46875 115.519531 618.175781 108.136719 623.589844 102.191406 C 629.167969 96.039062 636.574219 92.960938 645.808594 92.960938 M 636.527344 120.308594 C 639.515625 120.308594 644.164062 119.84375 650.484375 118.917969 C 651.824219 118.710938 652.496094 118.386719 652.496094 117.949219 C 652.496094 115.449219 651.617188 113.226562 649.835938 111.332031 C 648.054688 109.433594 645.925781 108.484375 643.472656 108.484375 C 641.019531 108.484375 638.820312 109.550781 637.152344 111.703125 C 635.625 113.691406 634.839844 116.003906 634.839844 118.664062 C 634.839844 119.753906 635.394531 120.308594 636.527344 120.308594 M 645.808594 80.929688 C 633.265625 80.929688 622.527344 85.488281 614.703125 94.09375 C 607.25 102.285156 603.457031 112.695312 603.457031 125.050781 C 603.457031 137.40625 607.785156 148.625 616.347656 156.675781 C 624.46875 164.425781 635.117188 168.359375 647.867188 168.359375 C 661.683594 168.359375 672.378906 164.402344 679.667969 156.582031 C 680.664062 155.519531 683.8125 152.1875 683.8125 147.003906 C 683.8125 144 682.886719 141.015625 680.339844 136.085938 C 683.488281 133.007812 685.730469 128.3125 685.730469 121.671875 C 685.730469 110.707031 681.867188 101.105469 674.277344 93.171875 C 666.636719 85.1875 656.777344 80.976562 645.808594 80.976562 Z M 645.808594 80.929688 " fill-opacity="1" fill-rule="nonzero"/><path fill="#fcd307" d="M 710.125 162.34375 C 698.945312 162.34375 689.710938 158.945312 682.675781 152.257812 C 675.410156 145.433594 671.707031 136.269531 671.707031 125.050781 C 671.707031 113.828125 674.96875 105.199219 681.402344 98.144531 C 688.140625 90.71875 697.117188 86.96875 708.042969 86.96875 C 717.484375 86.96875 725.585938 90.441406 732.15625 97.3125 C 738.660156 104.113281 741.949219 112.304688 741.949219 121.671875 C 741.949219 130.117188 737.550781 133.078125 734.609375 134.144531 C 735.121094 135 735.675781 135.96875 736.277344 137.082031 C 739.378906 142.839844 740.003906 145.15625 740.003906 147.027344 C 740.003906 149.828125 738.175781 151.792969 737.480469 152.535156 C 731.394531 159.058594 722.183594 162.390625 710.101562 162.390625 Z M 710.125 162.34375 " fill-opacity="1" fill-rule="nonzero"/><path fill="#0d192d" d="M 708.066406 92.960938 C 715.839844 92.960938 722.414062 95.785156 727.851562 101.453125 C 733.269531 107.121094 735.976562 113.851562 735.976562 121.648438 C 735.976562 125.746094 734.65625 128.058594 732.042969 128.636719 C 731.601562 128.730469 727.414062 129.167969 719.476562 129.976562 C 714.707031 130.511719 707.578125 131.136719 698.113281 131.851562 C 698.667969 134.488281 700.40625 136.480469 703.273438 137.867188 C 705.613281 139 708.296875 139.554688 711.28125 139.554688 C 714.894531 139.554688 718.503906 138.585938 722.136719 136.640625 C 723.664062 135.667969 725.214844 134.699219 726.742188 133.726562 C 727.597656 134.121094 729.011719 136.203125 731.023438 139.902344 C 733.015625 143.628906 734.03125 145.988281 734.03125 147.003906 C 734.03125 147.285156 733.730469 147.746094 733.128906 148.394531 C 728.199219 153.691406 720.539062 156.328125 710.125 156.328125 C 700.496094 156.328125 692.722656 153.53125 686.820312 147.90625 C 680.753906 142.21875 677.722656 134.582031 677.722656 125.050781 C 677.722656 115.519531 680.433594 108.136719 685.847656 102.191406 C 691.425781 96.039062 698.832031 92.960938 708.066406 92.960938 M 698.785156 120.308594 C 701.769531 120.308594 706.421875 119.84375 712.742188 118.917969 C 714.082031 118.710938 714.753906 118.386719 714.753906 117.949219 C 714.753906 115.449219 713.875 113.226562 712.09375 111.332031 C 710.308594 109.433594 708.179688 108.484375 705.726562 108.484375 C 703.273438 108.484375 701.074219 109.550781 699.410156 111.703125 C 697.882812 113.691406 697.09375 116.003906 697.09375 118.664062 C 697.09375 119.753906 697.652344 120.308594 698.785156 120.308594 M 708.066406 80.929688 C 695.519531 80.929688 684.78125 85.488281 676.960938 94.09375 C 669.507812 102.285156 665.710938 112.695312 665.710938 125.050781 C 665.710938 137.40625 670.039062 148.625 678.601562 156.675781 C 686.726562 164.425781 697.371094 168.359375 710.125 168.359375 C 723.941406 168.359375 734.632812 164.402344 741.925781 156.582031 C 742.917969 155.519531 746.066406 152.1875 746.066406 147.003906 C 746.066406 144.019531 745.140625 141.015625 742.617188 136.085938 C 745.765625 133.007812 748.011719 128.3125 748.011719 121.671875 C 748.011719 110.707031 744.144531 101.105469 736.554688 93.171875 C 728.917969 85.1875 719.058594 80.976562 708.089844 80.976562 Z M 708.066406 80.929688 " fill-opacity="1" fill-rule="nonzero"/></svg>