<?xml version="1.0" encoding="UTF-8"?><svg id="Layer_1" xmlns="http://www.w3.org/2000/svg" viewBox="0 0 1080 1080"><defs><style>.cls-1{fill:#fff;}.cls-2{stroke-width:35.12px;}.cls-2,.cls-3,.cls-4,.cls-5,.cls-6,.cls-7{stroke:#0d192d;stroke-miterlimit:10;}.cls-2,.cls-4,.cls-7{fill:#fcd307;}.cls-3,.cls-6{fill:#1889ef;}.cls-3,.cls-7{stroke-width:22.71px;}.cls-4{stroke-width:11.78px;}.cls-5{fill:none;stroke-width:32.31px;}.cls-6{stroke-width:23.55px;}.cls-8{fill:#0d192d;}</style></defs><g><path class="cls-7" d="M393.07,539.73s-274.97,2.85-289.21-156.79c-15.09-169.18,253.67-119.45,285.71,144.7,0,0,31.88-41.74,3.5,12.1Z"/><path class="cls-7" d="M682.58,539.73s274.97,2.85,289.21-156.79c15.09-169.18-253.67-119.45-285.71,144.7,0,0-31.88-41.74-3.5,12.1Z"/><polygon class="cls-8" points="538.48 859.39 465.88 658.68 611.09 658.68 538.48 859.39"/><path class="cls-5" d="M541.19,309.08h-5.41c-82.75,0-149.84,75.69-149.84,169.07l16.3,76.48,277.34-10.58,11.45-65.9c0-93.37-67.09-169.07-149.84-169.07Z"/><path class="cls-2" d="M693.38,496.79l-24.5,220.8c-1.34,19.23-17.33,34.14-36.61,34.14h-187.58c-19.27,0-35.26-14.91-36.61-34.14l-24.5-220.8"/><ellipse class="cls-6" cx="538.48" cy="498.01" rx="158.57" ry="44.45"/><g><g><line class="cls-4" x1="459.84" y1="325.73" x2="396.94" y2="218.8"/><circle class="cls-8" cx="405.67" cy="234.4" r="23.59"/></g><g><line class="cls-4" x1="617.12" y1="325.73" x2="680.03" y2="218.8"/><circle class="cls-8" cx="671.3" cy="234.4" r="23.59"/></g></g><path class="cls-8" d="M400.44,585.53c0-3.67-1.81-6.02-2.44-6.55,7.08,5.94,55.55,17.03,140.47,17.03s133.39-11.09,140.47-17.03c-.63,.53-2.44,2.88-2.44,6.55l17.56-.35c0,11.05,4.7,18.66-7.31,23.8-10.34,4.42-23.68,7.26-37.49,9.57-29.73,4.97-69.07,7.7-110.78,7.7s-81.06-2.74-110.78-7.7c-11.96-2-23.55-4.39-33.16-7.87"/><path class="cls-8" d="M398.39,655.36c0-3.65-1.79-5.98-2.43-6.51,7.05,5.93,55.29,17.02,139.81,17.02s132.76-11.08,139.81-17.02c-.63,.53-2.43,2.86-2.43,6.51l14.76,2.04c0,20.54-12.09,25.95-41.83,30.94-29.6,4.97-68.78,7.7-110.31,7.7s-80.71-2.74-110.31-7.7c-12.49-2.1-24.59-4.63-34.42-8.38"/><g><path class="cls-3" d="M375.24,491.54s-146.14,21.3-144.77,106.62c1.45,90.42,142.2,36.57,144.77-106.62h0Z"/><path class="cls-3" d="M705.87,491.54s146.14,21.3,144.77,106.62c-1.45,90.42-142.2,36.57-144.77-106.62h0Z"/></g></g><path class="cls-1" d="M345.46,520.11s-73.42,20.31-76.54,54.67"/><path class="cls-1" d="M743.49,520.11s73.42,20.31,76.54,54.67"/></svg>