<svg xmlns="http://www.w3.org/2000/svg" xmlns:xlink="http://www.w3.org/1999/xlink" width="250" zoomAndPan="magnify" viewBox="0 0 187.5 187.499992" height="250" preserveAspectRatio="xMidYMid meet" version="1.0"><defs><clipPath id="3a0da0a92e"><path d="M 54 0 L 187 0 L 187 160 L 54 160 Z M 54 0 " clip-rule="nonzero"/></clipPath><clipPath id="56ced3a598"><path d="M 0 0 L 187 0 L 187 187 L 0 187 Z M 0 0 " clip-rule="nonzero"/></clipPath><clipPath id="b17e1c1737"><path d="M 0 0 L 187 0 L 187 187 L 0 187 Z M 0 0 " clip-rule="nonzero"/></clipPath><clipPath id="e12b756be7"><path d="M 0 7 L 187 7 L 187 163 L 0 163 Z M 0 7 " clip-rule="nonzero"/></clipPath><clipPath id="317a60eaff"><path d="M 61 17 L 187 17 L 187 181 L 61 181 Z M 61 17 " clip-rule="nonzero"/></clipPath></defs><path stroke-linecap="butt" transform="matrix(0.205701, 0, 0, 0.205701, -17.367895, -17.367899)" fill-opacity="1" fill="#fcd307" fill-rule="nonzero" stroke-linejoin="miter" d="M 393.075445 539.734487 C 393.075445 539.734487 118.101646 542.582972 103.859218 382.934856 C 88.762245 213.753808 357.526346 263.488365 389.562313 527.637919 C 389.562313 527.637919 421.44636 485.898111 393.075445 539.734487 Z M 393.075445 539.734487 " stroke="#0d192d" stroke-width="22.709999" stroke-opacity="1" stroke-miterlimit="10"/><path fill="#fcd307" d="M 123.039062 93.65625 C 123.039062 93.65625 179.601562 94.242188 182.53125 61.402344 C 185.632812 26.601562 130.351562 36.832031 123.757812 91.167969 C 123.757812 91.167969 117.203125 82.582031 123.039062 93.65625 Z M 123.039062 93.65625 " fill-opacity="1" fill-rule="nonzero"/><g clip-path="url(#3a0da0a92e)"><path stroke-linecap="butt" transform="matrix(0.205701, 0, 0, 0.205701, -17.367895, -17.367899)" fill="none" stroke-linejoin="miter" d="M 682.57652 539.734487 C 682.57652 539.734487 957.550319 542.582972 971.792746 382.934856 C 986.870729 213.753808 718.125619 263.488365 686.070662 527.637919 C 686.070662 527.637919 654.205604 485.898111 682.57652 539.734487 Z M 682.57652 539.734487 " stroke="#0d192d" stroke-width="22.709999" stroke-opacity="1" stroke-miterlimit="10"/></g><path fill="#0d192d" d="M 93.398438 159.410156 L 78.464844 118.125 L 108.335938 118.125 Z M 93.398438 159.410156 " fill-opacity="1" fill-rule="nonzero"/><g clip-path="url(#56ced3a598)"><path stroke-linecap="butt" transform="matrix(0.205701, 0, 0, 0.205701, -17.367895, -17.367899)" fill="none" stroke-linejoin="miter" d="M 541.19669 309.083122 L 535.784568 309.083122 C 453.026569 309.083122 385.935241 384.776877 385.935241 478.150231 L 402.247568 554.622571 L 679.576115 544.045195 L 691.027027 478.150231 C 691.027027 384.776877 623.935699 309.083122 541.19669 309.083122 Z M 541.19669 309.083122 " stroke="#0d192d" stroke-width="32.310001" stroke-opacity="1" stroke-miterlimit="10"/></g><path fill="#fcd307" d="M 125.261719 84.824219 L 120.222656 130.242188 C 119.945312 134.195312 116.65625 137.265625 112.691406 137.265625 L 74.105469 137.265625 C 70.140625 137.265625 66.851562 134.195312 66.574219 130.242188 L 61.535156 84.824219 " fill-opacity="1" fill-rule="nonzero"/><g clip-path="url(#b17e1c1737)"><path stroke-linecap="butt" transform="matrix(0.205701, 0, 0, 0.205701, -17.367895, -17.367899)" fill="none" stroke-linejoin="miter" d="M 693.381775 496.798316 L 668.8848 717.593921 C 667.536516 736.811703 651.547018 751.737767 632.272266 751.737767 L 444.690002 751.737767 C 425.41525 751.737767 409.425752 736.811703 408.077468 717.593921 L 383.580493 496.798316 " stroke="#0d192d" stroke-width="35.119999" stroke-opacity="1" stroke-miterlimit="10"/></g><path fill="#1889ef" d="M 126.015625 85.074219 C 126.015625 85.371094 125.964844 85.671875 125.859375 85.96875 C 125.753906 86.269531 125.597656 86.5625 125.390625 86.855469 C 125.179688 87.152344 124.921875 87.441406 124.613281 87.726562 C 124.300781 88.015625 123.941406 88.296875 123.535156 88.574219 C 123.125 88.847656 122.667969 89.121094 122.164062 89.382812 C 121.660156 89.648438 121.113281 89.902344 120.519531 90.152344 C 119.925781 90.402344 119.289062 90.640625 118.613281 90.875 C 117.933594 91.105469 117.21875 91.328125 116.460938 91.539062 C 115.707031 91.75 114.917969 91.953125 114.089844 92.140625 C 113.265625 92.332031 112.40625 92.507812 111.519531 92.675781 C 110.632812 92.84375 109.714844 92.996094 108.773438 93.136719 C 107.832031 93.277344 106.867188 93.40625 105.878906 93.519531 C 104.894531 93.636719 103.890625 93.734375 102.867188 93.824219 C 101.84375 93.910156 100.808594 93.984375 99.761719 94.042969 C 98.714844 94.101562 97.660156 94.144531 96.59375 94.171875 C 95.53125 94.203125 94.464844 94.21875 93.398438 94.21875 C 92.328125 94.21875 91.265625 94.203125 90.199219 94.171875 C 89.136719 94.144531 88.082031 94.101562 87.035156 94.042969 C 85.988281 93.984375 84.953125 93.910156 83.929688 93.824219 C 82.90625 93.734375 81.902344 93.636719 80.914062 93.519531 C 79.929688 93.40625 78.964844 93.277344 78.023438 93.136719 C 77.078125 92.996094 76.164062 92.84375 75.277344 92.675781 C 74.386719 92.507812 73.53125 92.332031 72.707031 92.140625 C 71.878906 91.953125 71.089844 91.75 70.332031 91.539062 C 69.578125 91.328125 68.863281 91.105469 68.183594 90.875 C 67.507812 90.640625 66.871094 90.402344 66.277344 90.152344 C 65.683594 89.902344 65.136719 89.648438 64.632812 89.382812 C 64.128906 89.121094 63.671875 88.847656 63.261719 88.574219 C 62.855469 88.296875 62.496094 88.015625 62.183594 87.726562 C 61.875 87.441406 61.617188 87.152344 61.40625 86.855469 C 61.199219 86.5625 61.042969 86.269531 60.9375 85.96875 C 60.832031 85.671875 60.78125 85.371094 60.78125 85.074219 C 60.78125 84.773438 60.832031 84.476562 60.9375 84.175781 C 61.042969 83.878906 61.199219 83.582031 61.40625 83.289062 C 61.617188 82.996094 61.875 82.707031 62.183594 82.417969 C 62.496094 82.132812 62.855469 81.851562 63.261719 81.574219 C 63.671875 81.296875 64.128906 81.027344 64.632812 80.761719 C 65.136719 80.5 65.683594 80.242188 66.277344 79.992188 C 66.871094 79.746094 67.507812 79.503906 68.183594 79.273438 C 68.863281 79.042969 69.578125 78.820312 70.332031 78.609375 C 71.089844 78.394531 71.878906 78.195312 72.707031 78.003906 C 73.53125 77.816406 74.386719 77.636719 75.277344 77.472656 C 76.164062 77.304688 77.078125 77.152344 78.023438 77.007812 C 78.964844 76.867188 79.929688 76.742188 80.914062 76.625 C 81.902344 76.511719 82.90625 76.410156 83.929688 76.324219 C 84.953125 76.238281 85.988281 76.164062 87.035156 76.105469 C 88.082031 76.046875 89.136719 76.003906 90.199219 75.972656 C 91.265625 75.945312 92.328125 75.929688 93.398438 75.929688 C 94.464844 75.929688 95.53125 75.945312 96.59375 75.972656 C 97.660156 76.003906 98.714844 76.046875 99.761719 76.105469 C 100.808594 76.164062 101.84375 76.238281 102.867188 76.324219 C 103.890625 76.410156 104.894531 76.511719 105.878906 76.625 C 106.867188 76.742188 107.832031 76.867188 108.773438 77.007812 C 109.714844 77.152344 110.632812 77.304688 111.519531 77.472656 C 112.40625 77.636719 113.265625 77.816406 114.089844 78.003906 C 114.917969 78.195312 115.707031 78.394531 116.460938 78.609375 C 117.21875 78.820312 117.933594 79.042969 118.613281 79.273438 C 119.289062 79.503906 119.925781 79.746094 120.519531 79.992188 C 121.113281 80.242188 121.660156 80.5 122.164062 80.761719 C 122.667969 81.027344 123.125 81.296875 123.535156 81.574219 C 123.941406 81.851562 124.300781 82.132812 124.613281 82.417969 C 124.921875 82.707031 125.179688 82.996094 125.390625 83.289062 C 125.597656 83.582031 125.753906 83.878906 125.859375 84.175781 C 125.964844 84.476562 126.015625 84.773438 126.015625 85.074219 Z M 126.015625 85.074219 " fill-opacity="1" fill-rule="nonzero"/><g clip-path="url(#e12b756be7)"><path stroke-linecap="butt" transform="matrix(0.205701, 0, 0, 0.205701, -17.367895, -17.367899)" fill="none" stroke-linejoin="miter" d="M 697.046826 498.01367 C 697.046826 499.456902 696.799957 500.919125 696.28723 502.362357 C 695.774503 503.82458 695.014906 505.248823 694.008442 506.673065 C 692.982987 508.116298 691.729653 509.521551 690.229451 510.907814 C 688.710258 512.313067 686.963187 513.68034 684.988237 515.028623 C 682.994298 516.357916 680.772479 517.687209 678.322781 518.959533 C 675.873084 520.250846 673.214497 521.48519 670.328032 522.700544 C 667.441567 523.915898 664.346213 525.074282 661.060959 526.213676 C 657.756716 527.33408 654.281564 528.416505 650.597523 529.441959 C 646.932471 530.467414 643.096511 531.454889 639.070651 532.366405 C 635.063782 533.29691 630.886003 534.151455 626.575295 534.968021 C 622.264587 535.784587 617.80196 536.525193 613.225393 537.20883 C 608.648826 537.892466 603.95832 538.519133 599.153875 539.06984 C 594.368419 539.639537 589.488014 540.114285 584.512659 540.551053 C 579.537305 540.968831 574.50498 541.329639 569.415686 541.614487 C 564.326392 541.899336 559.199118 542.108225 554.014875 542.241154 C 548.849621 542.393073 543.665378 542.469033 538.481134 542.469033 C 533.2779 542.469033 528.112647 542.393073 522.928403 542.241154 C 517.76315 542.108225 512.635876 541.899336 507.546582 541.614487 C 502.457287 541.329639 497.424963 540.968831 492.449608 540.551053 C 487.474254 540.114285 482.593849 539.639537 477.789403 539.06984 C 473.003948 538.519133 468.313441 537.892466 463.736875 537.20883 C 459.141318 536.525193 454.697681 535.784587 450.386973 534.968021 C 446.057275 534.151455 441.898486 533.29691 437.891616 532.366405 C 433.865757 531.454889 430.029797 530.467414 426.345755 529.441959 C 422.680704 528.416505 419.205552 527.33408 415.901309 526.213676 C 412.616055 525.074282 409.520701 523.915898 406.634236 522.700544 C 403.74777 521.48519 401.089184 520.250846 398.639486 518.959533 C 396.189789 517.687209 393.96797 516.357916 391.97403 515.028623 C 389.99908 513.68034 388.252009 512.313067 386.732817 510.907814 C 385.232615 509.521551 383.979281 508.116298 382.953826 506.673065 C 381.947362 505.248823 381.187765 503.82458 380.675038 502.362357 C 380.162311 500.919125 379.915442 499.456902 379.915442 498.01367 C 379.915442 496.551447 380.162311 495.108214 380.675038 493.645992 C 381.187765 492.202759 381.947362 490.759527 382.953826 489.335284 C 383.979281 487.911041 385.232615 486.505788 386.732817 485.100535 C 388.252009 483.714272 389.99908 482.346999 391.97403 480.998716 C 393.96797 479.650433 396.189789 478.34013 398.639486 477.048816 C 401.089184 475.776493 403.74777 474.523159 406.634236 473.307805 C 409.520701 472.111442 412.616055 470.934068 415.901309 469.813663 C 419.205552 468.693259 422.680704 467.610834 426.345755 466.58538 C 430.029797 465.540935 433.865757 464.57245 437.891616 463.641945 C 441.898486 462.730429 446.057275 461.856894 450.386973 461.059318 C 454.697681 460.242752 459.141318 459.502146 463.736875 458.799519 C 468.313441 458.115883 473.003948 457.508206 477.789403 456.938509 C 482.593849 456.387802 487.474254 455.894064 492.449608 455.476286 C 497.424963 455.058508 502.457287 454.6977 507.546582 454.412852 C 512.635876 454.128003 517.76315 453.919114 522.928403 453.767195 C 528.112647 453.634266 533.2779 453.558306 538.481134 453.558306 C 543.665378 453.558306 548.849621 453.634266 554.014875 453.767195 C 559.199118 453.919114 564.326392 454.128003 569.415686 454.412852 C 574.50498 454.6977 579.537305 455.058508 584.512659 455.476286 C 589.488014 455.894064 594.368419 456.387802 599.153875 456.938509 C 603.95832 457.508206 608.648826 458.115883 613.225393 458.799519 C 617.80196 459.502146 622.264587 460.242752 626.575295 461.059318 C 630.886003 461.856894 635.063782 462.730429 639.070651 463.641945 C 643.096511 464.57245 646.932471 465.540935 650.597523 466.58538 C 654.281564 467.610834 657.756716 468.693259 661.060959 469.813663 C 664.346213 470.934068 667.441567 472.111442 670.328032 473.307805 C 673.214497 474.523159 675.873084 475.776493 678.322781 477.048816 C 680.772479 478.34013 682.994298 479.650433 684.988237 480.998716 C 686.963187 482.346999 688.710258 483.714272 690.229451 485.100535 C 691.729653 486.505788 692.982987 487.911041 694.008442 489.335284 C 695.014906 490.759527 695.774503 492.202759 696.28723 493.645992 C 696.799957 495.108214 697.046826 496.551447 697.046826 498.01367 Z M 697.046826 498.01367 " stroke="#0d192d" stroke-width="23.549999" stroke-opacity="1" stroke-miterlimit="10"/></g><path stroke-linecap="butt" transform="matrix(0.205701, 0, 0, 0.205701, -17.367895, -17.367899)" fill-opacity="1" fill="#fcd307" fill-rule="nonzero" stroke-linejoin="miter" d="M 459.843945 325.737267 L 396.949385 218.805122 " stroke="#0d192d" stroke-width="11.78" stroke-opacity="1" stroke-miterlimit="10"/><path fill="#0d192d" d="M 70.929688 30.847656 C 70.929688 31.167969 70.902344 31.484375 70.839844 31.796875 C 70.777344 32.109375 70.683594 32.410156 70.5625 32.707031 C 70.441406 33 70.289062 33.28125 70.113281 33.542969 C 69.9375 33.808594 69.734375 34.054688 69.511719 34.28125 C 69.285156 34.503906 69.039062 34.707031 68.773438 34.882812 C 68.511719 35.058594 68.230469 35.210938 67.9375 35.332031 C 67.640625 35.453125 67.339844 35.546875 67.027344 35.609375 C 66.714844 35.671875 66.398438 35.699219 66.078125 35.699219 C 65.761719 35.699219 65.445312 35.671875 65.132812 35.609375 C 64.820312 35.546875 64.515625 35.453125 64.222656 35.332031 C 63.925781 35.210938 63.648438 35.058594 63.382812 34.882812 C 63.117188 34.707031 62.875 34.503906 62.648438 34.28125 C 62.421875 34.054688 62.222656 33.808594 62.042969 33.542969 C 61.867188 33.28125 61.71875 33 61.597656 32.707031 C 61.472656 32.410156 61.382812 32.109375 61.320312 31.796875 C 61.257812 31.484375 61.226562 31.167969 61.226562 30.847656 C 61.226562 30.53125 61.257812 30.214844 61.320312 29.902344 C 61.382812 29.589844 61.472656 29.285156 61.597656 28.992188 C 61.71875 28.695312 61.867188 28.417969 62.042969 28.152344 C 62.222656 27.886719 62.421875 27.640625 62.648438 27.417969 C 62.875 27.191406 63.117188 26.992188 63.382812 26.8125 C 63.648438 26.636719 63.925781 26.488281 64.222656 26.367188 C 64.515625 26.242188 64.820312 26.152344 65.132812 26.089844 C 65.445312 26.027344 65.761719 25.996094 66.078125 25.996094 C 66.398438 25.996094 66.714844 26.027344 67.027344 26.089844 C 67.339844 26.152344 67.640625 26.242188 67.9375 26.367188 C 68.230469 26.488281 68.511719 26.636719 68.773438 26.8125 C 69.039062 26.992188 69.285156 27.191406 69.511719 27.417969 C 69.734375 27.640625 69.9375 27.886719 70.113281 28.152344 C 70.289062 28.417969 70.441406 28.695312 70.5625 28.992188 C 70.683594 29.285156 70.777344 29.589844 70.839844 29.902344 C 70.902344 30.214844 70.929688 30.53125 70.929688 30.847656 Z M 70.929688 30.847656 " fill-opacity="1" fill-rule="nonzero"/><path stroke-linecap="butt" transform="matrix(0.205701, 0, 0, 0.205701, -17.367895, -17.367899)" fill-opacity="1" fill="#fcd307" fill-rule="nonzero" stroke-linejoin="miter" d="M 617.118323 325.737267 L 680.031873 218.805122 " stroke="#0d192d" stroke-width="11.78" stroke-opacity="1" stroke-miterlimit="10"/><path fill="#0d192d" d="M 125.570312 30.847656 C 125.570312 31.167969 125.539062 31.484375 125.480469 31.796875 C 125.417969 32.109375 125.324219 32.410156 125.203125 32.707031 C 125.082031 33 124.929688 33.28125 124.753906 33.542969 C 124.578125 33.808594 124.375 34.054688 124.152344 34.28125 C 123.925781 34.503906 123.679688 34.707031 123.414062 34.882812 C 123.152344 35.058594 122.871094 35.210938 122.578125 35.332031 C 122.28125 35.453125 121.980469 35.546875 121.667969 35.609375 C 121.355469 35.671875 121.039062 35.699219 120.71875 35.699219 C 120.402344 35.699219 120.085938 35.671875 119.773438 35.609375 C 119.460938 35.546875 119.15625 35.453125 118.863281 35.332031 C 118.566406 35.210938 118.289062 35.058594 118.023438 34.882812 C 117.757812 34.707031 117.511719 34.503906 117.289062 34.28125 C 117.0625 34.054688 116.863281 33.808594 116.683594 33.542969 C 116.507812 33.28125 116.359375 33 116.234375 32.707031 C 116.113281 32.410156 116.023438 32.109375 115.960938 31.796875 C 115.898438 31.484375 115.867188 31.167969 115.867188 30.847656 C 115.867188 30.53125 115.898438 30.214844 115.960938 29.902344 C 116.023438 29.589844 116.113281 29.285156 116.238281 28.992188 C 116.359375 28.695312 116.507812 28.417969 116.683594 28.152344 C 116.863281 27.886719 117.0625 27.640625 117.289062 27.417969 C 117.511719 27.191406 117.757812 26.992188 118.023438 26.8125 C 118.289062 26.636719 118.566406 26.488281 118.863281 26.367188 C 119.15625 26.242188 119.460938 26.152344 119.773438 26.089844 C 120.085938 26.027344 120.402344 25.996094 120.71875 25.996094 C 121.039062 25.996094 121.355469 26.027344 121.667969 26.089844 C 121.980469 26.152344 122.28125 26.242188 122.578125 26.367188 C 122.871094 26.488281 123.152344 26.636719 123.414062 26.8125 C 123.679688 26.992188 123.925781 27.191406 124.152344 27.417969 C 124.375 27.640625 124.578125 27.886719 124.753906 28.152344 C 124.929688 28.417969 125.082031 28.695312 125.203125 28.992188 C 125.324219 29.285156 125.417969 29.589844 125.480469 29.902344 C 125.539062 30.214844 125.570312 30.53125 125.570312 30.847656 Z M 125.570312 30.847656 " fill-opacity="1" fill-rule="nonzero"/><path fill="#0d192d" d="M 65.003906 103.078125 C 65.003906 102.320312 64.632812 101.839844 64.5 101.730469 C 65.957031 102.949219 75.929688 105.230469 93.394531 105.230469 C 110.863281 105.230469 120.835938 102.949219 122.289062 101.730469 C 122.160156 101.839844 121.789062 102.320312 121.789062 103.078125 L 125.402344 103.003906 C 125.402344 105.277344 126.367188 106.84375 123.898438 107.898438 C 121.769531 108.808594 119.027344 109.394531 116.1875 109.867188 C 110.070312 110.890625 101.976562 111.453125 93.398438 111.453125 C 84.820312 111.453125 76.722656 110.890625 70.609375 109.867188 C 68.152344 109.457031 65.765625 108.964844 63.789062 108.25 " fill-opacity="1" fill-rule="nonzero"/><path fill="#0d192d" d="M 64.582031 117.441406 C 64.582031 116.691406 64.214844 116.210938 64.082031 116.101562 C 65.53125 117.320312 75.453125 119.601562 92.839844 119.601562 C 110.226562 119.601562 120.148438 117.324219 121.601562 116.101562 C 121.46875 116.210938 121.101562 116.691406 121.101562 117.441406 L 124.136719 117.859375 C 124.136719 122.085938 121.648438 123.199219 115.53125 124.222656 C 109.441406 125.246094 101.382812 125.808594 92.839844 125.808594 C 84.296875 125.808594 76.238281 125.246094 70.148438 124.222656 C 67.582031 123.792969 65.089844 123.273438 63.070312 122.5 " fill-opacity="1" fill-rule="nonzero"/><path stroke-linecap="butt" transform="matrix(0.205701, 0, 0, 0.205701, -17.367895, -17.367899)" fill-opacity="1" fill="#1889ef" fill-rule="nonzero" stroke-linejoin="miter" d="M 375.243926 491.538113 C 375.243926 491.538113 229.09763 512.844784 230.464903 598.166419 C 231.927126 688.577349 372.661299 634.721983 375.243926 491.538113 Z M 375.243926 491.538113 " stroke="#0d192d" stroke-width="22.709999" stroke-opacity="1" stroke-miterlimit="10"/><path fill="#1889ef" d="M 127.832031 83.742188 C 127.832031 83.742188 157.890625 88.125 157.609375 105.675781 C 157.3125 124.273438 128.359375 113.195312 127.832031 83.742188 Z M 127.832031 83.742188 " fill-opacity="1" fill-rule="nonzero"/><g clip-path="url(#317a60eaff)"><path stroke-linecap="butt" transform="matrix(0.205701, 0, 0, 0.205701, -17.367895, -17.367899)" fill="none" stroke-linejoin="miter" d="M 705.877131 491.538113 C 705.877131 491.538113 852.004436 512.844784 850.637163 598.166419 C 849.193931 688.577349 708.440768 634.721983 705.877131 491.538113 Z M 705.877131 491.538113 " stroke="#0d192d" stroke-width="22.709999" stroke-opacity="1" stroke-miterlimit="10"/></g><path fill="#ffffff" d="M 53.695312 89.621094 C 53.695312 89.621094 38.589844 93.796875 37.949219 100.863281 " fill-opacity="1" fill-rule="nonzero"/><path fill="#ffffff" d="M 135.570312 89.621094 C 135.570312 89.621094 150.671875 93.796875 151.3125 100.863281 " fill-opacity="1" fill-rule="nonzero"/></svg>