<svg xmlns="http://www.w3.org/2000/svg" xmlns:xlink="http://www.w3.org/1999/xlink" width="500" zoomAndPan="magnify" viewBox="0 0 375 374.999991" height="500" preserveAspectRatio="xMidYMid meet" version="1.0"><defs><clipPath id="60af1805e1"><path d="M 0 94.726562 L 58 94.726562 L 58 250 L 0 250 Z M 0 94.726562 " clip-rule="nonzero"/></clipPath></defs><g clip-path="url(#60af1805e1)"><path stroke-linecap="butt" transform="matrix(1.145873, 0, 0, 1.14366, -200.829314, 94.907682)" fill="none" stroke-linejoin="miter" d="M 123.320592 81.600125 C 123.320592 81.600125 169.208761 82.078305 171.591632 55.43003 C 174.110862 27.190099 129.248794 35.489933 123.900117 79.581523 C 123.900117 79.581523 118.578712 72.610345 123.320592 81.600125 Z M 123.320592 81.600125 " stroke="#0d192d" stroke-width="3.79" stroke-opacity="1" stroke-miterlimit="10"/></g><path fill="#fcd307" d="M 29.042969 221.613281 C 21.953125 221.613281 16.097656 219.144531 11.636719 214.261719 C 7.351562 209.605469 5.1875 203.679688 5.1875 196.671875 C 5.1875 189.660156 7.308594 184.023438 11.476562 179.242188 C 15.914062 174.152344 21.628906 171.566406 28.472656 171.566406 C 35.792969 171.566406 41.660156 173.898438 45.921875 178.488281 C 46.851562 179.515625 47.308594 180.578125 47.308594 181.675781 C 47.308594 182.605469 47.070312 183.460938 44.835938 187.371094 C 42.761719 190.996094 42.128906 191.765625 41.613281 192.222656 C 40.914062 192.875 40 193.226562 39.023438 193.226562 C 37.742188 193.226562 36.960938 192.542969 35.542969 191.285156 C 34.648438 190.496094 33.777344 189.878906 32.964844 189.453125 C 31.816406 188.882812 30.648438 188.585938 29.410156 188.585938 C 27.371094 188.585938 25.871094 189.28125 24.679688 190.769531 C 23.488281 192.277344 22.890625 194.144531 22.890625 196.464844 C 22.890625 198.785156 23.476562 200.742188 24.691406 202.273438 C 25.882812 203.796875 27.382812 204.503906 29.410156 204.503906 C 30.707031 204.503906 31.898438 204.230469 33.066406 203.667969 C 33.855469 203.28125 34.703125 202.710938 35.5625 201.976562 C 36.9375 200.789062 37.707031 200.136719 38.96875 200.136719 C 40.011719 200.136719 41.007812 200.59375 41.761719 201.441406 C 42.105469 201.828125 42.667969 202.558594 44.652344 205.546875 C 47.113281 209.273438 47.34375 209.84375 47.34375 210.851562 C 47.34375 211.859375 46.921875 212.898438 46.0625 213.972656 C 41.761719 219.085938 36.046875 221.648438 29.054688 221.648438 Z M 29.042969 221.613281 " fill-opacity="1" fill-rule="nonzero"/><path fill="#0d192d" d="M 28.472656 174.539062 C 34.957031 174.539062 40.042969 176.53125 43.734375 180.511719 C 44.136719 180.945312 44.332031 181.34375 44.332031 181.675781 C 44.332031 182.054688 43.632812 183.460938 42.246094 185.910156 C 40.859375 188.34375 39.976562 189.71875 39.621094 190.015625 C 39.460938 190.175781 39.265625 190.253906 39.023438 190.253906 C 38.921875 190.253906 38.429688 189.855469 37.523438 189.054688 C 36.445312 188.09375 35.382812 187.351562 34.339844 186.800781 C 32.757812 186 31.117188 185.601562 29.410156 185.601562 C 26.464844 185.601562 24.117188 186.699219 22.351562 188.894531 C 20.726562 190.929688 19.921875 193.445312 19.921875 196.453125 C 19.921875 199.460938 20.738281 202.046875 22.351562 204.105469 C 24.117188 206.347656 26.464844 207.464844 29.410156 207.464844 C 31.152344 207.464844 32.804688 207.089844 34.371094 206.324219 C 35.390625 205.820312 36.433594 205.121094 37.5 204.21875 C 38.382812 203.464844 38.875 203.074219 38.96875 203.074219 C 39.164062 203.074219 39.367188 203.1875 39.5625 203.40625 C 39.882812 203.761719 40.753906 205.019531 42.175781 207.15625 C 43.644531 209.375 44.363281 210.601562 44.363281 210.816406 C 44.363281 211.136719 44.160156 211.5625 43.734375 212.074219 C 40.042969 216.457031 35.152344 218.640625 29.042969 218.640625 C 22.9375 218.640625 17.722656 216.511719 13.839844 212.257812 C 10.058594 208.140625 8.15625 202.949219 8.15625 196.671875 C 8.15625 190.390625 10.011719 185.441406 13.710938 181.195312 C 17.574219 176.757812 22.488281 174.539062 28.460938 174.539062 M 28.460938 168.605469 C 20.726562 168.605469 14.25 171.53125 9.21875 177.308594 C 4.570312 182.625 2.207031 189.144531 2.207031 196.683594 C 2.207031 204.21875 4.648438 211.058594 9.449219 216.285156 C 14.480469 221.796875 21.070312 224.597656 29.03125 224.597656 C 36.996094 224.597656 43.425781 221.671875 48.285156 215.917969 L 48.316406 215.871094 L 48.351562 215.828125 C 49.671875 214.203125 50.300781 212.566406 50.300781 210.839844 C 50.300781 208.828125 49.53125 207.582031 47.125 203.921875 C 44.925781 200.617188 44.386719 199.941406 43.988281 199.496094 L 43.941406 199.449219 C 42.601562 197.984375 40.824219 197.171875 38.933594 197.171875 C 36.574219 197.171875 35.117188 198.433594 33.570312 199.757812 C 32.929688 200.308594 32.289062 200.742188 31.714844 201.015625 C 30.980469 201.371094 30.214844 201.554688 29.375 201.554688 C 28.105469 201.554688 27.542969 201.152344 26.992188 200.46875 C 26.214844 199.472656 25.835938 198.167969 25.835938 196.488281 C 25.835938 194.316406 26.488281 193.238281 26.980469 192.621094 C 27.496094 191.980469 28.082031 191.570312 29.375 191.570312 C 30.132812 191.570312 30.855469 191.753906 31.589844 192.117188 C 32.183594 192.425781 32.835938 192.90625 33.535156 193.527344 C 35.164062 194.976562 36.585938 196.222656 38.992188 196.222656 C 40.710938 196.222656 42.324219 195.59375 43.574219 194.464844 C 44.457031 193.6875 45.28125 192.566406 47.390625 188.882812 C 49.691406 184.84375 50.253906 183.4375 50.253906 181.710938 C 50.253906 180.429688 49.886719 178.496094 48.113281 176.554688 C 43.230469 171.292969 36.628906 168.640625 28.449219 168.640625 Z M 28.460938 168.605469 " fill-opacity="1" fill-rule="nonzero"/><path fill="#fcd307" d="M 52.957031 220.800781 C 49.476562 220.800781 48.328125 220.640625 47.664062 220.480469 C 46.0625 220.117188 44.890625 218.847656 44.664062 217.175781 L 44.640625 216.980469 L 44.640625 215.496094 C 44.640625 213.710938 44.664062 211.035156 44.695312 207.464844 C 44.742188 203.933594 44.753906 201.289062 44.753906 199.542969 C 44.753906 195.675781 44.753906 192.78125 44.753906 190.847656 C 44.753906 189.820312 44.753906 188.894531 44.835938 188.09375 L 44.777344 188.09375 C 44.71875 183.851562 44.480469 180.144531 44.066406 177.089844 C 43.996094 176.714844 43.976562 176.40625 43.976562 176.117188 C 43.976562 174.015625 45.554688 172.492188 47.734375 172.492188 L 58.457031 172.492188 C 59.960938 172.492188 60.84375 173.214844 61.242188 173.648438 C 61.886719 174.359375 62.195312 175.296875 62.125 176.289062 L 62.101562 176.792969 C 61.585938 185.324219 61.324219 192.976562 61.324219 199.542969 C 61.324219 204.960938 61.347656 209.171875 61.382812 212.0625 C 61.382812 212.53125 61.414062 213.277344 61.460938 214.316406 C 61.53125 215.390625 61.554688 216.238281 61.554688 216.84375 C 61.554688 218.730469 60.246094 220.21875 58.296875 220.527344 C 57.246094 220.710938 55.535156 220.800781 52.957031 220.800781 Z M 52.957031 220.800781 " fill-opacity="1" fill-rule="nonzero"/><path fill="#0d192d" d="M 58.449219 175.46875 C 58.953125 175.46875 59.179688 175.671875 59.136719 176.097656 L 59.101562 176.632812 C 58.585938 185.269531 58.320312 192.90625 58.320312 199.542969 C 58.320312 204.996094 58.34375 209.183594 58.378906 212.109375 C 58.378906 212.566406 58.414062 213.355469 58.46875 214.476562 C 58.527344 215.496094 58.5625 216.285156 58.5625 216.84375 C 58.5625 217.269531 58.308594 217.519531 57.804688 217.597656 C 56.902344 217.757812 55.285156 217.839844 52.9375 217.839844 C 50.585938 217.839844 49.003906 217.757812 48.339844 217.597656 C 47.90625 217.496094 47.652344 217.234375 47.585938 216.789062 L 47.585938 215.496094 C 47.585938 213.710938 47.609375 211.058594 47.640625 207.5 C 47.675781 203.957031 47.699219 201.300781 47.699219 199.542969 C 47.699219 191.820312 47.699219 187.96875 47.722656 187.96875 C 47.722656 187.96875 47.722656 188 47.722656 188.058594 C 47.664062 183.644531 47.414062 179.835938 46.964844 176.632812 C 46.921875 176.417969 46.910156 176.246094 46.910156 176.117188 C 46.910156 175.683594 47.171875 175.457031 47.6875 175.457031 L 58.414062 175.457031 M 58.414062 169.519531 L 47.6875 169.519531 C 43.917969 169.519531 40.949219 172.414062 40.949219 176.117188 C 40.949219 176.566406 40.996094 177.023438 41.074219 177.539062 C 41.476562 180.464844 41.707031 184.023438 41.753906 188.117188 C 41.753906 188.289062 41.742188 188.460938 41.742188 188.640625 C 41.742188 189.132812 41.742188 189.867188 41.742188 190.835938 C 41.742188 192.769531 41.742188 195.664062 41.742188 199.53125 C 41.742188 201.246094 41.71875 203.910156 41.683594 207.421875 C 41.636719 210.953125 41.625 213.664062 41.625 215.484375 L 41.625 217.175781 L 41.683594 217.578125 C 42.074219 220.4375 44.148438 222.710938 46.964844 223.363281 C 47.972656 223.605469 49.382812 223.765625 52.925781 223.765625 C 55.6875 223.765625 57.496094 223.660156 58.792969 223.445312 C 62.148438 222.882812 64.496094 220.171875 64.496094 216.832031 C 64.496094 216.148438 64.464844 215.253906 64.394531 214.113281 C 64.324219 212.820312 64.3125 212.292969 64.3125 212.085938 L 64.3125 212.007812 C 64.28125 209.136719 64.257812 204.9375 64.257812 199.53125 C 64.257812 193.046875 64.519531 185.453125 65.023438 176.976562 L 65.046875 176.472656 C 65.171875 174.667969 64.589844 172.949219 63.398438 171.636719 C 62.148438 170.261719 60.382812 169.507812 58.425781 169.507812 Z M 58.414062 169.519531 " fill-opacity="1" fill-rule="nonzero"/><path fill="#fcd307" d="M 78.546875 221.429688 C 73.011719 221.429688 68.441406 219.75 64.957031 216.445312 C 61.359375 213.070312 59.523438 208.542969 59.523438 202.996094 C 59.523438 197.449219 61.140625 193.183594 64.324219 189.695312 C 67.660156 186.023438 72.105469 184.171875 77.515625 184.171875 C 82.191406 184.171875 86.199219 185.886719 89.453125 189.28125 C 92.675781 192.644531 94.300781 196.695312 94.300781 201.324219 C 94.300781 205.5 92.125 206.964844 90.667969 207.488281 C 90.921875 207.914062 91.195312 208.394531 91.496094 208.941406 C 93.03125 211.800781 93.339844 212.910156 93.339844 213.859375 C 93.339844 215.082031 92.675781 215.953125 92.078125 216.582031 C 89.066406 219.808594 84.503906 221.453125 78.523438 221.453125 Z M 78.546875 221.429688 " fill-opacity="1" fill-rule="nonzero"/><path fill="#0d192d" d="M 77.527344 187.132812 C 81.375 187.132812 84.628906 188.527344 87.324219 191.328125 C 90.003906 194.132812 91.34375 197.460938 91.34375 201.3125 C 91.34375 203.339844 90.691406 204.480469 89.398438 204.769531 C 89.179688 204.8125 87.105469 205.03125 83.175781 205.429688 C 80.816406 205.695312 77.285156 206.003906 72.597656 206.355469 C 72.875 207.660156 73.734375 208.644531 75.15625 209.332031 C 76.3125 209.890625 77.640625 210.164062 79.117188 210.164062 C 80.90625 210.164062 82.695312 209.683594 84.492188 208.726562 C 85.25 208.246094 86.015625 207.765625 86.773438 207.285156 C 87.199219 207.476562 87.894531 208.507812 88.894531 210.335938 C 89.878906 212.179688 90.382812 213.34375 90.382812 213.847656 C 90.382812 213.984375 90.234375 214.214844 89.9375 214.535156 C 87.496094 217.152344 83.703125 218.457031 78.546875 218.457031 C 73.777344 218.457031 69.929688 217.074219 67.007812 214.292969 C 64.003906 211.480469 62.503906 207.707031 62.503906 202.996094 C 62.503906 198.28125 63.84375 194.636719 66.527344 191.695312 C 69.289062 188.652344 72.953125 187.132812 77.527344 187.132812 M 72.929688 200.652344 C 74.410156 200.652344 76.710938 200.421875 79.839844 199.964844 C 80.503906 199.863281 80.835938 199.703125 80.835938 199.484375 C 80.835938 198.25 80.402344 197.152344 79.519531 196.214844 C 78.636719 195.273438 77.582031 194.804688 76.367188 194.804688 C 75.15625 194.804688 74.066406 195.332031 73.242188 196.394531 C 72.484375 197.378906 72.09375 198.523438 72.09375 199.839844 C 72.09375 200.375 72.371094 200.652344 72.929688 200.652344 M 77.527344 181.183594 C 71.328125 181.183594 66 183.4375 62.125 187.691406 C 58.4375 191.742188 56.558594 196.886719 56.558594 202.996094 C 56.558594 209.101562 58.699219 214.648438 62.9375 218.628906 C 66.960938 222.460938 72.230469 224.402344 78.546875 224.402344 C 85.386719 224.402344 90.679688 222.449219 94.289062 218.582031 C 94.78125 218.058594 96.339844 216.410156 96.339844 213.847656 C 96.339844 212.371094 95.882812 210.886719 94.632812 208.449219 C 96.191406 206.929688 97.304688 204.609375 97.304688 201.324219 C 97.304688 195.902344 95.390625 191.15625 91.632812 187.234375 C 87.851562 183.289062 82.96875 181.207031 77.539062 181.207031 Z M 77.527344 181.183594 " fill-opacity="1" fill-rule="nonzero"/><path fill="#fcd307" d="M 106.734375 221.257812 C 101.921875 221.257812 97.886719 219.347656 94.75 215.574219 C 91.882812 212.167969 90.429688 208.0625 90.429688 203.359375 C 90.429688 198.019531 91.941406 193.605469 94.933594 190.230469 C 98.117188 186.664062 102.460938 184.855469 107.859375 184.855469 C 110.355469 184.855469 112.566406 185.417969 114.457031 186.527344 C 115.238281 185.632812 116.175781 185.394531 116.96875 185.394531 C 117.621094 185.394531 118.765625 185.472656 121.792969 186.082031 C 123.910156 186.503906 125.414062 186.871094 126.386719 187.191406 L 126.570312 187.257812 C 128.277344 187.945312 128.882812 189.375 128.882812 190.496094 C 128.882812 190.78125 128.851562 191.066406 128.746094 191.636719 C 128.140625 195.070312 127.832031 198.753906 127.832031 202.605469 C 127.832031 204.082031 127.921875 206.335938 128.09375 209.296875 C 128.277344 212.363281 128.367188 214.730469 128.367188 216.308594 C 128.367188 218.652344 126.855469 220.367188 124.597656 220.550781 C 122.019531 220.734375 119.074219 220.835938 115.808594 220.835938 C 115.03125 220.835938 113.886719 220.597656 113.058594 219.40625 C 111.078125 220.628906 108.957031 221.246094 106.746094 221.246094 Z M 109.382812 199.882812 C 108.210938 199.882812 107.6875 200.285156 107.351562 200.628906 C 107.019531 200.96875 106.597656 201.554688 106.597656 202.800781 C 106.597656 203.648438 106.859375 204.296875 107.445312 204.90625 C 108.007812 205.488281 108.589844 205.738281 109.394531 205.738281 C 110.539062 205.738281 111.089844 205.328125 111.433594 204.972656 C 111.800781 204.597656 112.210938 204.011719 112.210938 202.800781 C 112.210938 201.863281 111.972656 201.199219 111.433594 200.652344 C 111.089844 200.296875 110.550781 199.894531 109.382812 199.894531 Z M 109.382812 199.882812 " fill-opacity="1" fill-rule="nonzero"/><path fill="#0d192d" d="M 107.847656 187.820312 C 110.984375 187.820312 113.472656 188.917969 115.292969 191.113281 C 115.375 191.214844 115.441406 191.261719 115.5 191.261719 C 115.683594 191.261719 115.890625 190.78125 116.121094 189.808594 C 116.347656 188.835938 116.625 188.355469 116.945312 188.355469 C 117.6875 188.355469 119.097656 188.5625 121.183594 188.984375 C 123.167969 189.386719 124.585938 189.730469 125.445312 190.003906 C 125.746094 190.117188 125.894531 190.277344 125.894531 190.484375 C 125.894531 190.5625 125.859375 190.769531 125.800781 191.113281 C 125.160156 194.726562 124.839844 198.558594 124.839844 202.59375 C 124.839844 204.136719 124.929688 206.425781 125.113281 209.457031 C 125.296875 212.5 125.390625 214.773438 125.390625 216.296875 C 125.390625 217.097656 125.035156 217.519531 124.335938 217.589844 C 121.847656 217.769531 119.007812 217.863281 115.796875 217.863281 C 115.421875 217.863281 115.15625 217.289062 115.03125 216.136719 C 114.90625 214.992188 114.746094 214.398438 114.5625 214.386719 C 114.402344 214.464844 114.195312 214.636719 113.929688 214.902344 C 111.683594 217.164062 109.277344 218.285156 106.722656 218.285156 C 102.816406 218.285156 99.585938 216.742188 97.015625 213.664062 C 94.601562 210.785156 93.386719 207.351562 93.386719 203.347656 C 93.386719 198.730469 94.632812 195.011719 97.144531 192.199219 C 99.746094 189.28125 103.308594 187.820312 107.835938 187.820312 M 109.371094 208.691406 C 111.078125 208.691406 112.464844 208.128906 113.542969 207.019531 C 114.617188 205.910156 115.167969 204.492188 115.167969 202.777344 C 115.167969 201.0625 114.628906 199.679688 113.5625 198.570312 C 112.488281 197.460938 111.101562 196.898438 109.371094 196.898438 C 107.640625 196.898438 106.253906 197.449219 105.199219 198.546875 C 104.132812 199.644531 103.605469 201.050781 103.605469 202.777344 C 103.605469 204.402344 104.167969 205.785156 105.289062 206.941406 C 106.414062 208.09375 107.777344 208.679688 109.382812 208.679688 M 107.847656 181.871094 C 101.660156 181.871094 96.421875 184.078125 92.710938 188.242188 C 89.214844 192.175781 87.449219 197.253906 87.449219 203.347656 C 87.449219 208.769531 89.144531 213.515625 92.480469 217.484375 C 96.148438 221.886719 101.085938 224.222656 106.734375 224.222656 C 108.351562 224.222656 110.402344 223.945312 112.648438 222.964844 C 114.011719 223.730469 115.351562 223.808594 115.808594 223.808594 C 119.144531 223.808594 122.15625 223.71875 124.769531 223.523438 L 124.851562 223.523438 C 128.609375 223.191406 131.347656 220.160156 131.347656 216.308594 C 131.347656 214.660156 131.257812 212.304688 131.074219 209.125 C 130.902344 206.207031 130.808594 204.023438 130.808594 202.605469 C 130.808594 198.933594 131.105469 195.414062 131.679688 192.152344 C 131.792969 191.5 131.863281 191.019531 131.863281 190.484375 C 131.863281 187.820312 130.257812 185.519531 127.667969 184.492188 L 127.488281 184.421875 L 127.304688 184.363281 C 126.203125 184.011719 124.632812 183.632812 122.375 183.175781 C 119.773438 182.648438 118.160156 182.433594 116.957031 182.433594 C 116.417969 182.433594 115.328125 182.511719 114.160156 183.082031 C 112.246094 182.292969 110.125 181.882812 107.847656 181.882812 Z M 107.847656 181.871094 " fill-opacity="1" fill-rule="nonzero"/><path fill="#fcd307" d="M 155.457031 220.746094 C 151.859375 220.746094 150.769531 220.628906 150.1875 220.503906 C 148.179688 220.105469 146.898438 218.480469 146.898438 216.363281 C 146.898438 215.402344 146.933594 213.953125 146.988281 212.007812 C 147.046875 210.152344 147.082031 208.746094 147.082031 207.808594 C 147.082031 207.089844 147.058594 206.015625 147.023438 204.574219 C 146.976562 203.074219 146.964844 201.941406 146.964844 201.175781 C 146.964844 200.523438 146.863281 200.179688 146.804688 200.066406 L 146.792969 200.066406 C 146.792969 200.066406 146.597656 200.042969 146.371094 200.042969 C 146.371094 200.042969 146.039062 200.078125 145.269531 200.582031 C 145.121094 200.683594 145.019531 200.765625 144.9375 200.832031 L 144.9375 216.535156 C 144.9375 218.6875 143.515625 220.320312 141.410156 220.597656 C 140.835938 220.664062 139.78125 220.746094 136.734375 220.746094 C 133.386719 220.746094 132.265625 220.628906 131.667969 220.527344 C 129.640625 220.207031 128.265625 218.628906 128.265625 216.617188 C 128.265625 215.050781 128.265625 212.691406 128.300781 209.546875 C 128.324219 206.414062 128.335938 204.070312 128.335938 202.492188 C 128.335938 197.804688 127.980469 194.121094 127.269531 191.558594 L 127.234375 191.421875 C 127.140625 191.019531 127.097656 190.667969 127.097656 190.324219 C 127.097656 188.789062 127.992188 187.476562 129.421875 186.902344 L 129.800781 186.753906 L 130.203125 186.710938 C 131.40625 186.570312 132.996094 186.367188 135.082031 186.070312 C 140.066406 185.097656 140.5625 185.097656 140.949219 185.097656 C 142.667969 185.097656 143.515625 186.148438 143.953125 187.328125 C 146.714844 185.75 149.167969 184.980469 151.433594 184.980469 C 154.597656 184.980469 157.3125 185.769531 159.523438 187.328125 C 162.230469 189.28125 163.636719 192.105469 163.636719 195.515625 L 163.636719 205.078125 C 163.636719 206.367188 163.636719 208.300781 163.671875 210.886719 C 163.695312 213.480469 163.707031 215.4375 163.707031 216.742188 C 163.707031 218.765625 162.34375 220.320312 160.316406 220.605469 C 159.824219 220.675781 158.835938 220.757812 155.515625 220.757812 Z M 155.457031 220.746094 " fill-opacity="1" fill-rule="nonzero"/><path fill="#0d192d" d="M 151.402344 187.945312 C 153.945312 187.945312 156.0625 188.539062 157.773438 189.738281 C 159.675781 191.125 160.625 193.035156 160.625 195.492188 L 160.625 205.054688 C 160.625 206.355469 160.625 208.300781 160.660156 210.886719 C 160.683594 213.472656 160.695312 215.414062 160.695312 216.71875 C 160.695312 217.257812 160.417969 217.566406 159.855469 217.644531 C 159.296875 217.726562 157.828125 217.757812 155.46875 217.757812 C 152.949219 217.757812 151.378906 217.703125 150.78125 217.578125 C 150.1875 217.460938 149.875 217.050781 149.875 216.351562 C 149.875 215.414062 149.910156 213.996094 149.96875 212.097656 C 150.027344 210.199219 150.058594 208.769531 150.058594 207.808594 C 150.058594 207.066406 150.035156 205.96875 150.003906 204.492188 C 149.957031 203.027344 149.945312 201.917969 149.945312 201.175781 C 149.945312 198.441406 148.753906 197.070312 146.371094 197.070312 C 145.589844 197.070312 144.675781 197.414062 143.632812 198.089844 C 142.507812 198.84375 141.945312 199.597656 141.945312 200.339844 L 141.945312 216.535156 C 141.945312 217.199219 141.636719 217.566406 141.019531 217.644531 C 140.320312 217.726562 138.886719 217.757812 136.722656 217.757812 C 134.382812 217.757812 132.859375 217.703125 132.148438 217.578125 C 131.53125 217.472656 131.222656 217.140625 131.222656 216.582031 C 131.222656 215.027344 131.222656 212.671875 131.257812 209.535156 C 131.277344 206.402344 131.289062 204.035156 131.289062 202.457031 C 131.289062 197.484375 130.902344 193.570312 130.121094 190.734375 C 130.074219 190.550781 130.066406 190.402344 130.066406 190.289062 C 130.066406 189.96875 130.214844 189.75 130.511719 189.625 C 131.773438 189.488281 133.457031 189.269531 135.554688 188.960938 C 138.738281 188.34375 140.527344 188.035156 140.925781 188.035156 C 141.144531 188.035156 141.316406 188.710938 141.441406 190.058594 C 141.558594 191.410156 141.730469 192.085938 141.949219 192.085938 C 141.742188 192.085938 142.816406 191.386719 145.179688 190.003906 C 147.550781 188.617188 149.625 187.921875 151.414062 187.921875 M 151.414062 181.984375 C 149.328125 181.984375 147.160156 182.488281 144.859375 183.496094 C 143.5625 182.363281 142.039062 182.101562 140.925781 182.101562 C 140.207031 182.101562 139.414062 182.167969 134.554688 183.105469 C 132.585938 183.394531 130.992188 183.597656 129.847656 183.722656 L 129.042969 183.816406 L 128.300781 184.113281 C 125.757812 185.132812 124.105469 187.554688 124.105469 190.289062 C 124.105469 190.847656 124.175781 191.421875 124.3125 192.039062 L 124.382812 192.3125 C 124.816406 193.902344 125.34375 196.957031 125.34375 202.46875 C 125.34375 204.035156 125.34375 206.390625 125.308594 209.503906 C 125.285156 212.660156 125.273438 215.015625 125.273438 216.582031 C 125.273438 220.046875 127.703125 222.859375 131.175781 223.433594 C 131.945312 223.558594 133.214844 223.695312 136.722656 223.695312 C 139.894531 223.695312 141.042969 223.613281 141.695312 223.535156 L 141.785156 223.535156 C 143.472656 223.304688 144.914062 222.5625 145.96875 221.464844 C 146.921875 222.425781 148.167969 223.101562 149.613281 223.398438 C 150.507812 223.570312 151.835938 223.695312 155.46875 223.695312 C 159.101562 223.695312 160.039062 223.605469 160.695312 223.511719 C 164.199219 223.007812 166.652344 220.21875 166.652344 216.707031 C 166.652344 215.402344 166.652344 213.4375 166.617188 210.828125 C 166.59375 208.253906 166.582031 206.335938 166.582031 205.042969 L 166.582031 195.480469 C 166.582031 191.148438 164.703125 187.394531 161.277344 184.914062 L 161.242188 184.890625 L 161.210938 184.867188 C 158.492188 182.957031 155.195312 181.984375 151.414062 181.984375 Z M 151.414062 181.984375 " fill-opacity="1" fill-rule="nonzero"/><path fill="#fcd307" d="M 171.648438 220.746094 C 168.222656 220.746094 167.097656 220.628906 166.503906 220.515625 C 165.128906 220.265625 164.152344 219.636719 163.605469 218.640625 C 163.203125 217.851562 163.167969 217.152344 163.167969 216.308594 C 163.167969 214.910156 163.203125 212.820312 163.261719 210.015625 C 163.316406 207.285156 163.351562 205.214844 163.351562 203.828125 C 163.351562 198.304688 163.132812 193.878906 162.722656 190.667969 C 162.652344 190.140625 162.640625 189.808594 162.640625 189.648438 C 162.640625 188.425781 163.261719 187.199219 164.453125 186.550781 C 163.339844 185.175781 162.769531 183.472656 162.769531 181.550781 C 162.769531 179.09375 163.800781 176.964844 165.734375 175.398438 C 167.410156 174.050781 169.425781 173.363281 171.71875 173.363281 C 174.007812 173.363281 175.980469 174.058594 177.664062 175.457031 C 179.566406 177.011719 180.574219 179.125 180.574219 181.550781 C 180.574219 183.667969 180.011719 185.417969 178.957031 186.765625 C 179.910156 187.394531 180.507812 188.460938 180.507812 189.707031 C 180.507812 189.84375 180.484375 190.164062 180.414062 190.667969 C 179.992188 194.371094 179.785156 198.820312 179.785156 203.820312 C 179.785156 205.257812 179.820312 207.421875 179.875 210.28125 C 179.933594 213.195312 179.96875 215.378906 179.96875 216.832031 C 179.96875 218.71875 178.660156 220.207031 176.714844 220.515625 C 176.164062 220.605469 175.050781 220.734375 171.648438 220.734375 Z M 171.648438 220.746094 " fill-opacity="1" fill-rule="nonzero"/><path fill="#0d192d" d="M 171.707031 176.335938 C 173.265625 176.335938 174.617188 176.804688 175.761719 177.742188 C 176.988281 178.738281 177.59375 180.007812 177.59375 181.550781 C 177.59375 185.027344 175.636719 186.765625 171.707031 186.765625 C 170.019531 186.765625 168.632812 186.332031 167.535156 185.453125 C 166.332031 184.492188 165.734375 183.199219 165.734375 181.550781 C 165.734375 179.90625 166.355469 178.714844 167.601562 177.707031 C 168.75 176.792969 170.113281 176.324219 171.71875 176.324219 M 166.433594 189.042969 C 166.996094 189.042969 167.855469 189.097656 169 189.226562 C 170.148438 189.339844 171.019531 189.410156 171.601562 189.410156 C 172.1875 189.410156 173.058594 189.363281 174.214844 189.257812 C 175.371094 189.15625 176.242188 189.109375 176.828125 189.109375 C 177.308594 189.109375 177.550781 189.304688 177.550781 189.707031 C 177.550781 189.785156 177.527344 189.980469 177.492188 190.277344 C 177.058594 194.175781 176.828125 198.695312 176.828125 203.828125 C 176.828125 205.292969 176.863281 207.464844 176.917969 210.347656 C 176.976562 213.242188 177.011719 215.402344 177.011719 216.84375 C 177.011719 217.269531 176.757812 217.519531 176.253906 217.597656 C 175.578125 217.714844 174.042969 217.78125 171.660156 217.78125 C 169.277344 217.78125 167.71875 217.726562 167.03125 217.597656 C 166.59375 217.519531 166.320312 217.394531 166.214844 217.210938 C 166.171875 217.128906 166.160156 216.832031 166.160156 216.308594 C 166.160156 214.921875 166.195312 212.851562 166.25 210.085938 C 166.308594 207.316406 166.34375 205.238281 166.34375 203.828125 C 166.34375 198.15625 166.125 193.640625 165.679688 190.277344 C 165.632812 189.957031 165.621094 189.75 165.621094 189.648438 C 165.621094 189.25 165.894531 189.054688 166.433594 189.054688 M 171.71875 170.402344 C 168.773438 170.402344 166.054688 171.339844 163.867188 173.101562 C 161.242188 175.214844 159.789062 178.222656 159.789062 181.5625 C 159.789062 183.175781 160.109375 184.695312 160.707031 186.070312 C 160.039062 187.085938 159.664062 188.308594 159.664062 189.660156 C 159.664062 190.039062 159.695312 190.4375 159.765625 191.03125 C 160.179688 194.144531 160.382812 198.441406 160.382812 203.839844 C 160.382812 205.191406 160.351562 207.261719 160.292969 209.960938 C 160.234375 212.75 160.199219 214.890625 160.199219 216.308594 C 160.199219 217.429688 160.257812 218.617188 160.910156 219.898438 L 160.957031 219.988281 L 161.015625 220.082031 C 161.703125 221.328125 163.121094 222.929688 165.964844 223.433594 C 166.789062 223.582031 168.027344 223.707031 171.648438 223.707031 C 175.269531 223.707031 176.4375 223.582031 177.238281 223.445312 C 180.609375 222.882812 182.945312 220.171875 182.945312 216.832031 C 182.945312 215.359375 182.914062 213.128906 182.855469 210.222656 C 182.796875 207.375 182.761719 205.226562 182.761719 203.828125 C 182.761719 198.957031 182.96875 194.644531 183.382812 190.996094 C 183.449219 190.507812 183.484375 190.117188 183.484375 189.707031 C 183.484375 188.492188 183.164062 187.371094 182.601562 186.402344 C 183.222656 184.972656 183.542969 183.347656 183.542969 181.539062 C 183.542969 178.234375 182.121094 175.261719 179.53125 173.132812 C 177.34375 171.339844 174.628906 170.378906 171.707031 170.378906 Z M 171.71875 170.402344 " fill-opacity="1" fill-rule="nonzero"/><path fill="#fcd307" d="M 207.25 220.746094 C 203.652344 220.746094 202.5625 220.628906 201.980469 220.503906 C 199.972656 220.105469 198.691406 218.480469 198.691406 216.363281 C 198.691406 215.402344 198.726562 213.953125 198.78125 212.007812 C 198.839844 210.152344 198.875 208.746094 198.875 207.808594 C 198.875 207.089844 198.851562 206.015625 198.816406 204.574219 C 198.769531 203.0625 198.757812 201.929688 198.757812 201.175781 C 198.757812 200.523438 198.65625 200.179688 198.597656 200.066406 L 198.585938 200.066406 C 198.585938 200.066406 198.394531 200.042969 198.164062 200.042969 C 198.164062 200.042969 197.832031 200.078125 197.0625 200.582031 C 196.914062 200.683594 196.8125 200.765625 196.730469 200.832031 L 196.730469 216.535156 C 196.730469 218.6875 195.3125 220.320312 193.203125 220.597656 C 192.628906 220.664062 191.574219 220.746094 188.527344 220.746094 C 185.179688 220.746094 184.058594 220.628906 183.460938 220.527344 C 181.433594 220.207031 180.058594 218.628906 180.058594 216.617188 C 180.058594 215.050781 180.058594 212.691406 180.09375 209.546875 C 180.117188 206.414062 180.128906 204.070312 180.128906 202.492188 C 180.128906 197.804688 179.773438 194.121094 179.0625 191.558594 L 179.027344 191.421875 C 178.9375 191.019531 178.890625 190.667969 178.890625 190.324219 C 178.890625 188.777344 179.785156 187.476562 181.214844 186.902344 L 181.59375 186.753906 L 181.996094 186.710938 C 183.1875 186.570312 184.824219 186.367188 186.878906 186.070312 C 191.863281 185.097656 192.355469 185.097656 192.742188 185.097656 C 194.460938 185.097656 195.3125 186.148438 195.746094 187.328125 C 198.507812 185.75 200.960938 184.980469 203.230469 184.980469 C 206.390625 184.980469 209.105469 185.769531 211.320312 187.328125 C 214.023438 189.28125 215.433594 192.105469 215.433594 195.515625 L 215.433594 205.078125 C 215.433594 206.367188 215.433594 208.300781 215.464844 210.886719 C 215.488281 213.480469 215.5 215.4375 215.5 216.742188 C 215.5 218.765625 214.136719 220.320312 212.109375 220.605469 C 211.617188 220.675781 210.632812 220.757812 207.308594 220.757812 Z M 207.25 220.746094 " fill-opacity="1" fill-rule="nonzero"/><path fill="#0d192d" d="M 203.195312 187.945312 C 205.738281 187.945312 207.859375 188.539062 209.566406 189.738281 C 211.46875 191.125 212.417969 193.035156 212.417969 195.492188 L 212.417969 205.054688 C 212.417969 206.355469 212.417969 208.300781 212.453125 210.886719 C 212.476562 213.472656 212.488281 215.414062 212.488281 216.71875 C 212.488281 217.257812 212.199219 217.566406 211.652344 217.644531 C 211.089844 217.726562 209.621094 217.757812 207.261719 217.757812 C 204.742188 217.757812 203.171875 217.703125 202.574219 217.578125 C 201.980469 217.449219 201.671875 217.050781 201.671875 216.351562 C 201.671875 215.414062 201.703125 213.996094 201.761719 212.097656 C 201.820312 210.199219 201.851562 208.769531 201.851562 207.808594 C 201.851562 207.066406 201.832031 205.96875 201.796875 204.492188 C 201.75 203.027344 201.738281 201.917969 201.738281 201.175781 C 201.738281 198.441406 200.546875 197.070312 198.164062 197.070312 C 197.382812 197.070312 196.46875 197.414062 195.425781 198.089844 C 194.300781 198.84375 193.742188 199.597656 193.742188 200.339844 L 193.742188 216.535156 C 193.742188 217.199219 193.429688 217.566406 192.8125 217.644531 C 192.113281 217.726562 190.679688 217.757812 188.515625 217.757812 C 186.167969 217.757812 184.652344 217.703125 183.945312 217.578125 C 183.324219 217.472656 183.015625 217.140625 183.015625 216.582031 C 183.015625 215.027344 183.015625 212.671875 183.050781 209.535156 C 183.074219 206.402344 183.085938 204.035156 183.085938 202.457031 C 183.085938 197.484375 182.695312 193.570312 181.914062 190.734375 C 181.871094 190.550781 181.859375 190.402344 181.859375 190.289062 C 181.859375 189.96875 182.007812 189.75 182.304688 189.625 C 183.566406 189.488281 185.25 189.269531 187.347656 188.960938 C 190.53125 188.34375 192.320312 188.035156 192.722656 188.035156 C 192.9375 188.035156 193.109375 188.710938 193.238281 190.058594 C 193.351562 191.410156 193.523438 192.085938 193.742188 192.085938 C 193.535156 192.085938 194.613281 191.386719 196.972656 190.003906 C 199.34375 188.617188 201.417969 187.921875 203.207031 187.921875 M 203.207031 181.984375 C 201.121094 181.984375 198.953125 182.488281 196.652344 183.496094 C 195.355469 182.363281 193.832031 182.101562 192.722656 182.101562 C 192 182.101562 191.207031 182.167969 186.351562 183.105469 C 184.378906 183.394531 182.785156 183.597656 181.640625 183.722656 L 180.839844 183.816406 L 180.09375 184.113281 C 177.550781 185.132812 175.898438 187.554688 175.898438 190.289062 C 175.898438 190.859375 175.96875 191.433594 176.105469 192.039062 L 176.175781 192.3125 C 176.609375 193.902344 177.136719 196.957031 177.136719 202.46875 C 177.136719 204.035156 177.136719 206.390625 177.101562 209.503906 C 177.078125 212.660156 177.066406 215.015625 177.066406 216.582031 C 177.066406 220.046875 179.496094 222.847656 182.96875 223.433594 C 183.738281 223.558594 185.007812 223.695312 188.515625 223.695312 C 191.691406 223.695312 192.835938 223.613281 193.488281 223.535156 L 193.582031 223.535156 C 195.265625 223.304688 196.707031 222.5625 197.761719 221.464844 C 198.714844 222.425781 199.960938 223.101562 201.417969 223.398438 C 202.300781 223.570312 203.640625 223.695312 207.273438 223.695312 C 210.90625 223.695312 211.84375 223.605469 212.5 223.511719 C 216.003906 223.007812 218.457031 220.21875 218.457031 216.707031 C 218.457031 215.402344 218.457031 213.4375 218.421875 210.828125 C 218.398438 208.253906 218.386719 206.335938 218.386719 205.042969 L 218.386719 195.480469 C 218.386719 191.148438 216.496094 187.394531 213.082031 184.914062 L 213.046875 184.890625 L 213.015625 184.867188 C 210.296875 182.957031 207 181.984375 203.21875 181.984375 Z M 203.207031 181.984375 " fill-opacity="1" fill-rule="nonzero"/><path fill="#fcd307" d="M 231.441406 228.839844 C 229.550781 228.839844 227.121094 228.554688 224.015625 227.984375 C 221.230469 227.46875 216.027344 226.519531 216.027344 222.664062 C 216.027344 222.207031 216.027344 221.738281 217.402344 216.089844 C 217.632812 215.175781 218.035156 214.488281 218.515625 214.007812 C 218.113281 213.640625 217.722656 213.253906 217.355469 212.84375 C 214.527344 209.695312 213.082031 205.796875 213.082031 201.269531 C 213.082031 196.738281 214.46875 192.863281 217.195312 189.785156 C 220.117188 186.515625 223.957031 184.855469 228.609375 184.855469 C 230.867188 184.855469 232.882812 185.359375 234.601562 186.332031 C 235.1875 185.632812 235.988281 185.28125 237.019531 185.28125 C 237.285156 185.28125 237.652344 185.28125 242.53125 185.792969 C 247.574219 186.320312 247.664062 186.355469 248.054688 186.480469 C 249.648438 187.039062 250.609375 188.414062 250.609375 190.082031 C 250.609375 191.488281 250.566406 193.535156 250.472656 196.351562 C 250.382812 199.039062 250.335938 201.085938 250.335938 202.433594 C 250.335938 203.246094 250.335938 204.457031 250.371094 206.082031 C 250.394531 207.742188 250.402344 208.976562 250.402344 209.8125 C 250.402344 216.375 248.949219 221.054688 245.957031 224.140625 C 242.898438 227.273438 238.015625 228.851562 231.441406 228.851562 Z M 231.921875 199.070312 C 231.3125 199.070312 230.902344 199.253906 230.488281 199.710938 C 230.007812 200.261719 229.789062 200.832031 229.789062 201.566406 C 229.789062 202.296875 229.996094 202.8125 230.476562 203.316406 C 230.914062 203.773438 231.324219 203.96875 231.921875 203.96875 C 232.515625 203.96875 232.953125 203.785156 233.355469 203.328125 C 233.835938 202.789062 234.050781 202.230469 234.050781 201.507812 C 234.050781 200.789062 233.847656 200.226562 233.363281 199.710938 C 232.964844 199.265625 232.539062 199.082031 231.921875 199.082031 Z M 231.921875 199.070312 " fill-opacity="1" fill-rule="nonzero"/><path fill="#0d192d" d="M 228.609375 187.820312 C 231.632812 187.820312 233.949219 188.894531 235.554688 191.054688 C 235.875 191.488281 236.09375 191.71875 236.21875 191.71875 C 236.402344 191.71875 236.492188 191.363281 236.492188 190.644531 C 236.492188 189.042969 236.675781 188.242188 237.03125 188.242188 C 237.351562 188.242188 239.082031 188.402344 242.234375 188.734375 C 245.375 189.066406 247.011719 189.25 247.125 189.292969 C 247.46875 189.410156 247.640625 189.671875 247.640625 190.070312 C 247.640625 191.457031 247.597656 193.515625 247.503906 196.246094 C 247.414062 198.980469 247.367188 201.039062 247.367188 202.421875 C 247.367188 203.246094 247.367188 204.46875 247.402344 206.105469 C 247.425781 207.742188 247.4375 208.976562 247.4375 209.789062 C 247.4375 215.484375 246.234375 219.578125 243.828125 222.046875 C 241.339844 224.585938 237.214844 225.855469 231.453125 225.855469 C 229.765625 225.855469 227.476562 225.582031 224.578125 225.042969 C 220.875 224.371094 219.019531 223.570312 219.019531 222.644531 C 219.019531 222.265625 219.453125 220.308594 220.3125 216.765625 C 220.449219 216.203125 220.667969 215.929688 220.976562 215.929688 C 221.082031 215.953125 221.183594 215.988281 221.308594 216.042969 C 224.394531 217.566406 227.246094 218.320312 229.871094 218.320312 C 231.3125 218.320312 232.746094 217.964844 234.167969 217.246094 C 235.886719 216.386719 236.746094 215.300781 236.746094 214.007812 L 236.746094 211.996094 C 234.707031 213.917969 232.082031 214.878906 228.875 214.878906 C 225.101562 214.878906 222.007812 213.527344 219.589844 210.828125 C 217.253906 208.234375 216.074219 205.03125 216.074219 201.234375 C 216.074219 197.4375 217.195312 194.246094 219.441406 191.730469 C 221.78125 189.109375 224.851562 187.808594 228.632812 187.808594 M 231.933594 206.90625 C 233.398438 206.90625 234.613281 206.367188 235.589844 205.28125 C 236.5625 204.207031 237.042969 202.9375 237.042969 201.472656 C 237.042969 200.011719 236.5625 198.753906 235.589844 197.675781 C 234.613281 196.613281 233.398438 196.074219 231.933594 196.074219 C 230.464844 196.074219 229.25 196.625 228.277344 197.710938 C 227.304688 198.796875 226.820312 200.078125 226.820312 201.53125 C 226.820312 202.984375 227.316406 204.253906 228.3125 205.304688 C 229.308594 206.367188 230.511719 206.894531 231.933594 206.894531 M 228.632812 181.859375 C 223.179688 181.859375 218.457031 183.90625 214.996094 187.773438 C 211.753906 191.410156 210.113281 195.9375 210.113281 201.234375 C 210.113281 206.527344 211.695312 210.773438 214.8125 214.410156 C 214.710938 214.695312 214.605469 215.003906 214.527344 215.324219 C 213.117188 221.085938 213.058594 221.796875 213.058594 222.644531 C 213.058594 228.96875 220.371094 230.304688 223.488281 230.890625 C 226.765625 231.496094 229.378906 231.792969 231.441406 231.792969 C 238.84375 231.792969 244.445312 229.90625 248.078125 226.199219 C 251.652344 222.515625 253.371094 217.152344 253.371094 209.789062 C 253.371094 208.953125 253.371094 207.695312 253.335938 206.027344 C 253.316406 204.414062 253.304688 203.210938 253.304688 202.410156 C 253.304688 201.109375 253.347656 199.09375 253.441406 196.429688 C 253.53125 193.59375 253.578125 191.511719 253.578125 190.058594 C 253.578125 187.144531 251.824219 184.640625 249.097656 183.679688 L 249.039062 183.65625 L 248.984375 183.632812 C 248.261719 183.394531 248.191406 183.371094 242.839844 182.808594 C 237.8125 182.285156 237.433594 182.285156 237.019531 182.285156 C 236.449219 182.285156 235.40625 182.363281 234.304688 182.878906 C 232.574219 182.203125 230.671875 181.871094 228.597656 181.871094 Z M 228.632812 181.859375 " fill-opacity="1" fill-rule="nonzero"/><path fill="#fcd307" d="M 286.441406 220.925781 C 285.925781 220.925781 285.179688 220.925781 284.21875 220.894531 L 282.144531 220.894531 C 272.039062 220.894531 269.460938 220.617188 268.335938 220.378906 C 266.390625 219.976562 265.117188 218.46875 265.117188 216.546875 C 265.117188 214.363281 265.242188 211.035156 265.496094 206.667969 C 265.734375 202.398438 265.863281 199.175781 265.863281 197.09375 C 265.863281 194.816406 265.734375 190.449219 265.507812 184.136719 C 265.449219 182.5 265.335938 180.054688 265.175781 176.792969 L 265.152344 176.4375 C 265.058594 174.722656 266.125 172.90625 268.703125 172.585938 C 269.277344 172.515625 270.59375 172.449219 276.027344 172.449219 C 282.523438 172.449219 286.222656 172.46875 287.347656 172.503906 C 292.835938 172.710938 296.871094 173.625 299.6875 175.328125 C 302.472656 177.035156 305.773438 180.523438 305.773438 187.5 C 305.773438 189.179688 305.292969 190.917969 304.328125 192.667969 C 303.917969 193.398438 303.433594 194.132812 302.886719 194.851562 C 303.871094 195.824219 304.695312 197.023438 305.347656 198.433594 C 306.242188 200.375 306.699219 202.46875 306.699219 204.652344 C 306.699219 209.101562 305.269531 212.863281 302.425781 215.851562 C 299.195312 219.269531 293.96875 220.9375 286.453125 220.9375 Z M 283.210938 205.523438 C 283.65625 205.535156 284.21875 205.546875 284.929688 205.546875 C 287.484375 205.546875 288.285156 205.28125 288.425781 205.238281 C 288.628906 205.15625 288.710938 205.121094 288.710938 204.527344 C 288.710938 203.796875 288.550781 203.726562 288.265625 203.601562 C 288.082031 203.519531 287.199219 203.234375 284.746094 203.234375 C 284.128906 203.234375 283.613281 203.234375 283.199219 203.246094 C 283.199219 203.519531 283.199219 203.851562 283.199219 204.21875 C 283.199219 204.734375 283.199219 205.15625 283.210938 205.511719 Z M 282.992188 188.46875 C 283.359375 188.46875 283.792969 188.480469 284.332031 188.480469 C 286.910156 188.480469 287.691406 187.980469 287.816406 187.875 C 287.816406 187.863281 287.816406 187.820312 287.816406 187.761719 C 287.816406 187.5 287.769531 187.40625 287.769531 187.40625 C 287.75 187.382812 287.609375 187.269531 287.289062 187.167969 C 287.027344 187.085938 286.039062 186.859375 283.460938 186.859375 C 283.3125 186.859375 283.164062 186.859375 283.027344 186.859375 C 282.980469 187.382812 282.980469 187.660156 282.980469 187.820312 C 282.980469 188.058594 282.980469 188.277344 282.980469 188.460938 Z M 282.992188 188.46875 " fill-opacity="1" fill-rule="nonzero"/><path fill="#0d192d" d="M 276.015625 175.410156 C 282.410156 175.410156 286.144531 175.433594 287.222656 175.46875 C 292.148438 175.648438 295.78125 176.449219 298.128906 177.867188 C 301.234375 179.765625 302.78125 182.980469 302.78125 187.5 C 302.78125 188.675781 302.425781 189.921875 301.703125 191.25 C 301.1875 192.1875 300.5 193.125 299.664062 194.0625 C 298.976562 194.828125 298.609375 195.207031 298.554688 195.207031 C 298.554688 195.34375 298.816406 195.5625 299.332031 195.859375 C 300.730469 196.660156 301.832031 197.929688 302.632812 199.667969 C 303.355469 201.222656 303.710938 202.878906 303.710938 204.640625 C 303.710938 208.324219 302.554688 211.367188 300.261719 213.792969 C 297.636719 216.570312 293.03125 217.953125 286.441406 217.953125 C 285.9375 217.953125 285.214844 217.953125 284.277344 217.917969 L 282.144531 217.917969 C 274.753906 217.917969 270.355469 217.769531 268.957031 217.472656 C 268.371094 217.359375 268.085938 217.039062 268.085938 216.546875 C 268.085938 214.410156 268.210938 211.171875 268.464844 206.835938 C 268.714844 202.503906 268.839844 199.253906 268.839844 197.09375 C 268.839844 194.773438 268.726562 190.414062 268.484375 184.023438 C 268.429688 182.386719 268.3125 179.925781 268.152344 176.644531 L 268.121094 176.222656 C 268.097656 175.84375 268.417969 175.617188 269.070312 175.535156 C 269.722656 175.457031 272.039062 175.421875 276.027344 175.421875 M 284.34375 191.46875 C 288.652344 191.46875 290.808594 190.242188 290.808594 187.785156 C 290.808594 186.070312 289.949219 184.925781 288.230469 184.363281 C 287.265625 184.066406 285.6875 183.917969 283.484375 183.917969 C 281.285156 183.917969 280.242188 184.078125 280.242188 184.398438 C 280.242188 184.777344 280.207031 185.347656 280.140625 186.125 C 280.070312 186.890625 280.035156 187.476562 280.035156 187.851562 C 280.035156 189.855469 280.207031 190.976562 280.550781 191.214844 C 280.769531 191.398438 282.042969 191.488281 284.367188 191.488281 M 284.964844 208.554688 C 287.128906 208.554688 288.652344 208.382812 289.535156 208.039062 C 291.003906 207.457031 291.722656 206.300781 291.722656 204.5625 C 291.722656 202.824219 290.96875 201.542969 289.46875 200.902344 C 288.503906 200.5 286.945312 200.308594 284.78125 200.308594 C 282.203125 200.308594 280.792969 200.398438 280.574219 200.59375 C 280.355469 200.789062 280.242188 202.011719 280.242188 204.265625 C 280.242188 206.515625 280.367188 207.925781 280.632812 208.175781 C 280.894531 208.425781 282.339844 208.554688 284.964844 208.554688 M 276.039062 169.507812 C 270.183594 169.507812 269 169.589844 268.359375 169.667969 C 264.097656 170.195312 262.035156 173.535156 262.195312 176.578125 L 262.195312 176.679688 L 262.230469 177.035156 C 262.390625 180.316406 262.492188 182.683594 262.550781 184.273438 C 262.789062 190.574219 262.90625 194.898438 262.90625 197.128906 C 262.90625 199.164062 262.78125 202.320312 262.539062 206.527344 C 262.273438 211.023438 262.148438 214.304688 262.148438 216.582031 C 262.148438 219.921875 264.40625 222.632812 267.765625 223.328125 C 269.140625 223.625 271.867188 223.902344 282.15625 223.902344 L 284.230469 223.902344 C 285.191406 223.925781 285.9375 223.933594 286.453125 223.933594 C 294.828125 223.933594 300.765625 221.957031 304.605469 217.898438 C 307.960938 214.363281 309.679688 209.914062 309.679688 204.675781 C 309.679688 202.058594 309.128906 199.542969 308.054688 197.207031 C 307.628906 196.292969 307.160156 195.457031 306.609375 194.691406 C 306.710938 194.507812 306.828125 194.324219 306.917969 194.15625 C 308.132812 191.925781 308.742188 189.707031 308.742188 187.53125 C 308.742188 179.183594 304.660156 174.941406 301.246094 172.847656 C 297.96875 170.859375 293.464844 169.792969 287.449219 169.578125 C 286.707031 169.554688 284.710938 169.507812 276.027344 169.507812 Z M 276.039062 169.507812 " fill-opacity="1" fill-rule="nonzero"/><path fill="#fcd307" d="M 322.042969 221.429688 C 316.507812 221.429688 311.9375 219.75 308.453125 216.445312 C 304.855469 213.070312 303.023438 208.542969 303.023438 202.996094 C 303.023438 197.449219 304.636719 193.183594 307.824219 189.695312 C 311.160156 186.023438 315.605469 184.171875 321.011719 184.171875 C 325.6875 184.171875 329.699219 185.886719 332.953125 189.28125 C 336.171875 192.644531 337.800781 196.695312 337.800781 201.324219 C 337.800781 205.5 335.621094 206.964844 334.167969 207.488281 C 334.417969 207.914062 334.695312 208.394531 334.992188 208.941406 C 336.527344 211.800781 336.835938 212.910156 336.835938 213.859375 C 336.835938 215.242188 335.921875 216.214844 335.578125 216.582031 C 332.574219 219.808594 328.003906 221.441406 322.019531 221.441406 Z M 322.042969 221.429688 " fill-opacity="1" fill-rule="nonzero"/><path fill="#0d192d" d="M 321.023438 187.132812 C 324.875 187.132812 328.128906 188.527344 330.820312 191.328125 C 333.503906 194.132812 334.84375 197.460938 334.84375 201.3125 C 334.84375 203.339844 334.191406 204.480469 332.894531 204.769531 C 332.679688 204.8125 330.605469 205.03125 326.671875 205.429688 C 324.3125 205.695312 320.785156 206.003906 316.097656 206.355469 C 316.371094 207.660156 317.230469 208.644531 318.652344 209.332031 C 319.808594 209.890625 321.140625 210.164062 322.617188 210.164062 C 324.40625 210.164062 326.191406 209.683594 327.992188 208.726562 C 328.746094 208.246094 329.515625 207.765625 330.273438 207.285156 C 330.695312 207.476562 331.394531 208.507812 332.390625 210.335938 C 333.386719 212.179688 333.882812 213.34375 333.882812 213.847656 C 333.882812 213.984375 333.730469 214.214844 333.433594 214.535156 C 330.992188 217.152344 327.199219 218.457031 322.042969 218.457031 C 317.277344 218.457031 313.425781 217.074219 310.503906 214.292969 C 307.503906 211.480469 306 207.707031 306 202.996094 C 306 198.28125 307.34375 194.636719 310.023438 191.695312 C 312.785156 188.652344 316.453125 187.132812 321.023438 187.132812 M 316.429688 200.652344 C 317.90625 200.652344 320.210938 200.421875 323.339844 199.964844 C 324.003906 199.863281 324.335938 199.703125 324.335938 199.484375 C 324.335938 198.25 323.902344 197.152344 323.019531 196.214844 C 322.136719 195.273438 321.082031 194.804688 319.867188 194.804688 C 318.652344 194.804688 317.5625 195.332031 316.738281 196.394531 C 315.984375 197.378906 315.59375 198.523438 315.59375 199.839844 C 315.59375 200.375 315.867188 200.652344 316.429688 200.652344 M 321.023438 181.183594 C 314.8125 181.183594 309.496094 183.4375 305.625 187.691406 C 301.933594 191.742188 300.054688 196.886719 300.054688 202.996094 C 300.054688 209.101562 302.199219 214.648438 306.4375 218.628906 C 310.460938 222.460938 315.730469 224.402344 322.042969 224.402344 C 328.886719 224.402344 334.179688 222.449219 337.789062 218.582031 C 338.28125 218.058594 339.839844 216.410156 339.839844 213.847656 C 339.839844 212.363281 339.382812 210.886719 338.121094 208.449219 C 339.679688 206.929688 340.789062 204.609375 340.789062 201.324219 C 340.789062 195.902344 338.878906 191.15625 335.117188 187.234375 C 331.335938 183.289062 326.457031 181.207031 321.023438 181.207031 Z M 321.023438 181.183594 " fill-opacity="1" fill-rule="nonzero"/><path fill="#fcd307" d="M 352.867188 221.429688 C 347.332031 221.429688 342.761719 219.75 339.277344 216.445312 C 335.679688 213.070312 333.847656 208.542969 333.847656 202.996094 C 333.847656 197.449219 335.460938 193.183594 338.648438 189.695312 C 341.980469 186.023438 346.429688 184.171875 351.835938 184.171875 C 356.511719 184.171875 360.523438 185.886719 363.777344 189.28125 C 366.996094 192.644531 368.625 196.695312 368.625 201.324219 C 368.625 205.5 366.445312 206.964844 364.992188 207.488281 C 365.242188 207.914062 365.519531 208.394531 365.816406 208.941406 C 367.351562 211.789062 367.660156 212.933594 367.660156 213.859375 C 367.660156 215.242188 366.757812 216.214844 366.414062 216.582031 C 363.398438 219.808594 358.839844 221.453125 352.855469 221.453125 Z M 352.867188 221.429688 " fill-opacity="1" fill-rule="nonzero"/><path fill="#0d192d" d="M 351.847656 187.132812 C 355.699219 187.132812 358.953125 188.527344 361.644531 191.328125 C 364.328125 194.132812 365.667969 197.460938 365.667969 201.3125 C 365.667969 203.339844 365.015625 204.480469 363.71875 204.769531 C 363.5 204.8125 361.429688 205.03125 357.496094 205.429688 C 355.136719 205.695312 351.609375 206.003906 346.921875 206.355469 C 347.195312 207.660156 348.054688 208.644531 349.476562 209.332031 C 350.632812 209.890625 351.964844 210.164062 353.441406 210.164062 C 355.230469 210.164062 357.015625 209.683594 358.816406 208.726562 C 359.570312 208.246094 360.339844 207.765625 361.09375 207.285156 C 361.519531 207.476562 362.21875 208.507812 363.214844 210.335938 C 364.199219 212.179688 364.703125 213.34375 364.703125 213.847656 C 364.703125 213.984375 364.554688 214.214844 364.257812 214.535156 C 361.816406 217.152344 358.023438 218.457031 352.867188 218.457031 C 348.101562 218.457031 344.25 217.074219 341.328125 214.292969 C 338.328125 211.480469 336.824219 207.707031 336.824219 202.996094 C 336.824219 198.28125 338.167969 194.636719 340.847656 191.695312 C 343.609375 188.652344 347.277344 187.132812 351.847656 187.132812 M 347.253906 200.652344 C 348.730469 200.652344 351.035156 200.421875 354.164062 199.964844 C 354.828125 199.863281 355.160156 199.703125 355.160156 199.484375 C 355.160156 198.25 354.722656 197.152344 353.84375 196.214844 C 352.960938 195.273438 351.90625 194.804688 350.691406 194.804688 C 349.476562 194.804688 348.386719 195.332031 347.5625 196.394531 C 346.804688 197.378906 346.417969 198.523438 346.417969 199.839844 C 346.417969 200.375 346.691406 200.652344 347.253906 200.652344 M 351.847656 181.183594 C 345.636719 181.183594 340.320312 183.4375 336.449219 187.691406 C 332.757812 191.742188 330.878906 196.886719 330.878906 202.996094 C 330.878906 209.101562 333.023438 214.648438 337.261719 218.628906 C 341.285156 222.460938 346.554688 224.402344 352.867188 224.402344 C 359.710938 224.402344 365.003906 222.449219 368.613281 218.582031 C 369.105469 218.058594 370.664062 216.410156 370.664062 213.847656 C 370.664062 212.371094 370.207031 210.886719 368.957031 208.449219 C 370.515625 206.929688 371.625 204.609375 371.625 201.324219 C 371.625 195.902344 369.710938 191.15625 365.953125 187.234375 C 362.171875 183.289062 357.292969 181.207031 351.859375 181.207031 Z M 351.847656 181.183594 " fill-opacity="1" fill-rule="nonzero"/></svg>